<?xml version="1.0" encoding="utf-8"?>
<!-- Generator: Adobe Illustrator 27.5.0, SVG Export Plug-In . SVG Version: 6.00 Build 0)  -->
<svg version="1.1" xmlns="http://www.w3.org/2000/svg" xmlns:xlink="http://www.w3.org/1999/xlink" x="0px" y="0px"
	 viewBox="0 0 500 500" style="enable-background:new 0 0 500 500;" xml:space="preserve">
<g id="BACKGROUND">
	<rect style="fill:#FFFFFF;" width="500" height="500"/>
</g>
<g id="OBJECTS">
	<g>
		<path style="fill:#E0EBFC;" d="M430.698,398.736c15.875-35.341,7.229-74.108,1.975-110.864
			c-5.381-37.636,2.596-71.377,14.398-106.569c5.264-15.696,9.287-32.679,5.535-48.84c-8.523-36.714-50.151-50.488-81.202-57.553
			c-37.487-8.529-75.63-13.541-112.343-25.18C200.886,31.287,124.862-1.817,75.904,55.1C50.842,84.236,40.046,125.964,40.517,164.48
			c1.544,126.374,98.14,236.55,212.392,267.513c38.572,10.453,79.411,12.671,118.56,4.348
			C394.169,431.514,420.289,421.908,430.698,398.736z"/>
		<g>
			
				<line style="fill:none;stroke:#6B6BA5;stroke-width:1.5;stroke-linejoin:round;stroke-miterlimit:10;" x1="305.538" y1="95.34" x2="305.538" y2="110.135"/>
			
				<line style="fill:none;stroke:#6B6BA5;stroke-width:1.5;stroke-linejoin:round;stroke-miterlimit:10;" x1="312.936" y1="102.738" x2="298.14" y2="102.738"/>
		</g>
		<g>
			
				<line style="fill:none;stroke:#6B6BA5;stroke-width:1.5;stroke-linejoin:round;stroke-miterlimit:10;" x1="79.988" y1="209.454" x2="79.988" y2="219.686"/>
			
				<line style="fill:none;stroke:#6B6BA5;stroke-width:1.5;stroke-linejoin:round;stroke-miterlimit:10;" x1="85.626" y1="214.57" x2="74.349" y2="214.57"/>
		</g>
		<g>
			
				<line style="fill:none;stroke:#6B6BA5;stroke-width:1.5;stroke-linejoin:round;stroke-miterlimit:10;" x1="293.673" y1="201.736" x2="293.673" y2="209.454"/>
			
				<line style="fill:none;stroke:#6B6BA5;stroke-width:1.5;stroke-linejoin:round;stroke-miterlimit:10;" x1="297.533" y1="205.595" x2="289.814" y2="205.595"/>
		</g>
		<g>
			
				<line style="fill:none;stroke:#6B6BA5;stroke-width:1.5;stroke-linejoin:round;stroke-miterlimit:10;" x1="135.085" y1="70.486" x2="135.085" y2="83.895"/>
			
				<line style="fill:none;stroke:#6B6BA5;stroke-width:1.5;stroke-linejoin:round;stroke-miterlimit:10;" x1="141.789" y1="77.191" x2="128.38" y2="77.191"/>
		</g>
		<g>
			
				<line style="fill:none;stroke:#6B6BA5;stroke-width:1.5;stroke-linejoin:round;stroke-miterlimit:10;" x1="181.696" y1="44.119" x2="181.696" y2="51.837"/>
			
				<line style="fill:none;stroke:#6B6BA5;stroke-width:1.5;stroke-linejoin:round;stroke-miterlimit:10;" x1="185.555" y1="47.978" x2="177.837" y2="47.978"/>
		</g>
		<g>
			
				<line style="fill:none;stroke:#6B6BA5;stroke-width:1.5;stroke-linejoin:round;stroke-miterlimit:10;" x1="404.895" y1="350.117" x2="404.895" y2="357.835"/>
			
				<line style="fill:none;stroke:#6B6BA5;stroke-width:1.5;stroke-linejoin:round;stroke-miterlimit:10;" x1="408.754" y1="353.976" x2="401.036" y2="353.976"/>
		</g>
		
			<circle style="fill:none;stroke:#ED664A;stroke-width:1.5;stroke-linejoin:round;stroke-miterlimit:10;" cx="94.278" cy="173.239" r="9.057"/>
		
			<circle style="fill:none;stroke:#ED664A;stroke-width:1.5;stroke-linejoin:round;stroke-miterlimit:10;" cx="323.083" cy="137.198" r="9.057"/>
		<path style="fill:none;stroke:#ED664A;stroke-width:1.5;stroke-linejoin:round;stroke-miterlimit:10;" d="M90.454,102.738
			c0,2.89-2.343,5.233-5.233,5.233c-2.89,0-5.233-2.343-5.233-5.233s2.343-5.233,5.233-5.233
			C88.111,97.505,90.454,99.848,90.454,102.738z"/>
		<path style="fill:none;stroke:#ED664A;stroke-width:1.5;stroke-linejoin:round;stroke-miterlimit:10;" d="M285.351,152.14
			c0,2.89-2.343,5.233-5.233,5.233c-2.89,0-5.233-2.343-5.233-5.233c0-2.89,2.343-5.233,5.233-5.233
			C283.008,146.907,285.351,149.25,285.351,152.14z"/>
		
			<circle style="fill:none;stroke:#ED664A;stroke-width:1.5;stroke-linejoin:round;stroke-miterlimit:10;" cx="417.948" cy="317.619" r="7.623"/>
		<path style="fill:none;stroke:#ED664A;stroke-width:1.5;stroke-linejoin:round;stroke-miterlimit:10;" d="M404.895,372.833
			c0,2.89-2.343,5.233-5.233,5.233c-2.89,0-5.233-2.343-5.233-5.233c0-2.89,2.343-5.233,5.233-5.233
			C402.552,367.6,404.895,369.943,404.895,372.833z"/>
	</g>
	<g>
		<defs>
			<rect id="SVGID_1_" width="500" height="500"/>
		</defs>
		<clipPath id="SVGID_00000102521257524880490390000011704989907578396086_">
			<use xlink:href="#SVGID_1_"  style="overflow:visible;"/>
		</clipPath>
		<g style="clip-path:url(#SVGID_00000102521257524880490390000011704989907578396086_);">
			<g>
				<path style="fill:#6B3429;" d="M285.987,841.026c0,0,4.094-165.672,3.323-219.517c-0.887-61.914-19.78-132.822-35.859-204.545
					l-2.221-16.002l-84.772-22.871c0,0-13.153,71.164-4.656,88.079s39.023,132.411,39.023,132.411l-7.682,239.545L285.987,841.026z"
					/>
				<path style="fill:#6B3429;" d="M110.098,403.006l-2.118,14.274c0,0-9.748,32.394-10.758,43.158
					c-1.857,19.788,2.811,48.294,2.811,48.294l13.785,136.327l-12.444,203.793h105.069c0,0,14.403-175.435,13.956-206.394
					c-0.447-30.959-9.104-181.025-9.104-181.025s6.322-17.855,6.698-19.575c0.376-1.72,0-58.339,0-58.339L110.098,403.006z"/>
				<path style="fill:none;stroke:#000000;stroke-width:1.5;stroke-miterlimit:10;" d="M206.443,848.853
					c0,0,14.403-175.435,13.956-206.394c-0.447-30.959-8.016-161.926-8.016-161.926l4.099-13.421"/>
				<path style="fill:none;stroke:#000000;stroke-width:1.5;stroke-miterlimit:10;" d="M113.453,437.843
					c7.774,0.257,15.621,0.055,23.214-1.681c7.593-1.735,14.964-5.08,20.69-10.504c2.631-2.492,4.937-5.488,5.978-9.01"/>
				<path style="fill:none;stroke:#000000;stroke-width:1.5;stroke-miterlimit:10;" d="M238.738,416.715
					c3.818,9.57,9.28,18.282,19.109,19.594"/>
				<path style="fill:none;stroke:#000000;stroke-width:1.5;stroke-miterlimit:10;" d="M220.775,416.648l-1.508,35.576
					c0,0,9.209-5.386,9.546-7.48c0.338-2.094,3.864-28.096,3.864-28.096v-13.651"/>
				
					<line style="fill:none;stroke:#000000;stroke-width:1.5;stroke-miterlimit:10;" x1="107.98" y1="417.28" x2="253.451" y2="416.648"/>
				<circle style="fill:none;stroke:#000000;stroke-width:1.5;stroke-miterlimit:10;" cx="225.744" cy="410.057" r="2.138"/>
				
					<line style="fill:none;stroke:#000000;stroke-width:1.5;stroke-miterlimit:10;" x1="176.501" y1="416.715" x2="177.995" y2="402.535"/>
				
					<line style="fill:none;stroke:#000000;stroke-width:1.5;stroke-miterlimit:10;" x1="120.104" y1="416.715" x2="121.598" y2="402.535"/>
				
					<line style="fill:none;stroke:#000000;stroke-width:1.5;stroke-miterlimit:10;" x1="169.956" y1="416.715" x2="171.45" y2="402.535"/>
			</g>
			<g>
				<polygon style="fill:#D87D55;" points="216.404,175.8 215.287,203.372 220.008,206.82 194.882,229.908 149.328,206.263 
					154.248,198.782 163.642,155.239 195.222,154.959 				"/>
				<path style="fill:#D87D55;" d="M197.589,87.425c-1.942-0.281-3.92-0.459-5.919-0.54c-10.91-0.444-21.564,5.016-28.472,12.919
					c-8.084,9.247-9.378,21.715-6.994,33.303c4.303,20.923,15.815,39.343,35.536,49.875c9.383,5.011,24.709,7.75,34.327,3.313
					c13.837-6.383,15.806-19.247,13.044-32.788c-1.63-7.994-2.431-13.296-4.592-21.13c-2.319-8.407-4.007-17.361-7.78-25.329
					C221.186,95.319,210.135,89.239,197.589,87.425z"/>
				<path style="fill:#1C150D;" d="M213.276,90.519c-5.366-3.105-9.706-4.69-15.867-5.324c-6.54-0.673-13.16-0.636-19.569,0.786
					c-7.801,1.731-15.016,5.54-21.129,10.298c-5.697,4.435-10.169,9.658-13.083,16.048c-2.772,6.08-4.182,12.705-4.14,19.332
					c0.049,7.735,2.11,15.597,6.13,22.414c4.251,7.209,14.039,19.683,14.039,19.683l12.239-14.067
					c2.456-1.457,1.075-10.455,3.323-12.178c1.993-1.527,2.617-3.846,2.348-6.19c-0.423-3.684-2.413-6.959-3.591-10.446
					c-1.191-3.528-2.284-7.625-1.4-11.304c0.728-3.028,3.212-4.973,6.52-5.181c4.383-0.275,8.565,1.279,12.726,2.413
					c5.535,1.509,11.32,2.595,17.102,2.903c4.886,0.26,10.577,0.292,14.616-2.908c2.996-2.373,4.368-8.38,4.368-8.38
					S224.868,97.228,213.276,90.519z"/>
				<g>
					<path style="fill:#D87D55;" d="M180.098,148.069c-2.434-4.696-8.342-7.38-12.497-6.694c-6.161,1.017-8.865,6.566-8.846,11.384
						c0.017,4.389,1.378,8.169,4.626,11.813c3.051,3.423,9.166,7.081,14.086,6.126c3.349-0.65,5.005-4.263,5.127-6.879"/>
					
						<line style="fill:none;stroke:#000000;stroke-width:1.5;stroke-miterlimit:10;" x1="179.326" y1="160.175" x2="165.047" y2="150.304"/>
					<path style="fill:none;stroke:#000000;stroke-width:1.5;stroke-miterlimit:10;" d="M182.818,164.923
						c-0.836,2.098-3.921,11.346-17.969,1.761"/>
					<path style="fill:none;stroke:#000000;stroke-width:1.5;stroke-miterlimit:10;" d="M180.481,147.79
						c-0.759-0.981-2.768-3.736-6.255-5.257"/>
				</g>
				<path style="fill:none;stroke:#000000;stroke-width:1.5;stroke-miterlimit:10;" d="M218.197,133.04
					c0.906,4.826,2.426,8.894,5.302,12.868c0.922,1.274,1.922,2.536,2.407,4.032c1.267,3.902-5.413,5.457-5.413,5.457"/>
				<path style="fill:none;stroke:#000000;stroke-width:1.5;stroke-miterlimit:10;" d="M223.399,131.082
					c3.003-4.321,7.299-5.711,11.428-3.392"/>
				<path style="fill:none;stroke:#000000;stroke-width:1.5;stroke-miterlimit:10;" d="M186.815,140.508
					c4.325-7.385,13.815-10.53,21.686-7.159"/>
				<path d="M207.19,143.747c0.424,2.109-0.284,4.03-1.58,4.29c-1.297,0.261-2.691-1.238-3.115-3.347
					c-0.424-2.109,0.284-4.03,1.58-4.29C205.371,140.139,206.766,141.638,207.19,143.747z"/>
				<path d="M233.354,137.974c0.424,2.109-0.284,4.03-1.58,4.29c-1.297,0.26-2.691-1.238-3.115-3.347
					c-0.424-2.109,0.284-4.03,1.58-4.29C231.535,134.367,232.93,135.865,233.354,137.974z"/>
				<path style="fill:#FFFFFF;" d="M229.067,160.691l-16.247,2.138c0,0,1.544,6.426,8.052,5.843
					C228.178,168.017,229.067,160.691,229.067,160.691z"/>
				<path style="fill:none;stroke:#000000;stroke-width:1.5;stroke-miterlimit:10;" d="M187.829,180.723
					c0,0,10.94,8.864,28.036,8.374"/>
			</g>
			<g>
				<path style="fill:#D87D55;" d="M340.469,201.19c6.521-14.057,16.034-27.282,29.486-35.535c0.586-0.359,1.219-0.721,1.912-0.72
					c1.036,0.001,1.909,0.84,2.254,1.784c0.345,0.944,0.277,1.977,0.205,2.976c0.033-0.46,3.543-2.636,4.087-3.044
					c0.194-0.145,0.391-0.292,0.62-0.375c0.731-0.267,1.539,0.186,2.066,0.744c1.548,1.639,1.312,3.864,1.32,5.921
					c0.981-1.019,2.905-0.454,3.639,0.742c0.734,1.196,0.605,2.698,0.356,4.069c-0.38,2.093-1.808,6.118-1.808,6.118
					s2.732-2.453,3.88-1.394c1.149,1.059,0.98,5.002,0.659,6.507c-1.776,8.306-6.688,15.966-8.699,24.673
					c-0.94,4.068-0.746,8.286-0.801,12.453c-0.103,7.795,1.303,14.272-0.834,21.805c-1.428,5.033-8.944,13.139-8.944,13.139
					l-38.699-19.343c0,0,5.696-5.012,5.045-10.215C335.562,226.291,340.469,201.19,340.469,201.19z"/>
				<path style="fill:#D87D55;" d="M290.358,260.312l10.629,14.922l32.101-37.679l42.134,15.678c0,0-31.138,75.425-59.221,96.396
					c-15.335,11.451-36.81,1.234-47.104-13.825c-10.765-15.749-35.295-48.135-35.295-48.135"/>
				<g>
					<polygon style="fill:#FFFFFF;" points="395.087,223.431 325.108,204.647 363.984,110.135 433.963,128.919 					"/>
					<g>
						<path style="fill:#D85266;" d="M368.134,120.852c0.558,0.149,0.99,0.34,1.298,0.575c0.308,0.235,0.493,0.515,0.558,0.84
							c0.064,0.325,0.011,0.7-0.16,1.125c-0.116,0.287-0.27,0.524-0.464,0.711c-0.193,0.187-0.406,0.332-0.641,0.434
							c-0.234,0.103-0.471,0.175-0.711,0.216l0.703,3.223l-1.446-0.386l-0.494-2.806l-0.694-0.185l-0.974,2.414l-1.303-0.347
							l2.537-6.292L368.134,120.852z M367.601,121.921l-0.395-0.106l-0.685,1.7l0.42,0.112c0.432,0.115,0.77,0.124,1.017,0.026
							c0.246-0.098,0.427-0.291,0.542-0.578c0.12-0.298,0.105-0.537-0.044-0.717C368.306,122.178,368.022,122.033,367.601,121.921z"
							/>
						<path style="fill:#D85266;" d="M373.029,129.126l-3.54-0.944l2.537-6.292l3.54,0.944l-0.441,1.093l-2.236-0.596l-0.557,1.381
							l2.081,0.555l-0.441,1.093l-2.081-0.555l-0.654,1.623l2.237,0.596L373.029,129.126z"/>
						<path style="fill:#D85266;" d="M378.644,128.688c-0.151,0.373-0.37,0.674-0.657,0.902c-0.288,0.229-0.63,0.372-1.028,0.432
							c-0.398,0.059-0.838,0.024-1.32-0.104c-0.213-0.057-0.416-0.126-0.607-0.21c-0.192-0.083-0.369-0.177-0.533-0.283
							c-0.164-0.106-0.313-0.223-0.447-0.351l0.5-1.24c0.238,0.21,0.493,0.409,0.764,0.599c0.271,0.19,0.561,0.326,0.869,0.408
							c0.213,0.057,0.396,0.074,0.55,0.051c0.153-0.023,0.28-0.076,0.379-0.161c0.1-0.085,0.175-0.192,0.227-0.321
							c0.064-0.158,0.066-0.307,0.008-0.446c-0.059-0.14-0.159-0.282-0.3-0.428c-0.142-0.146-0.303-0.305-0.485-0.477
							c-0.115-0.107-0.237-0.232-0.365-0.376c-0.128-0.144-0.239-0.308-0.332-0.492c-0.094-0.184-0.147-0.391-0.161-0.622
							c-0.014-0.231,0.037-0.49,0.152-0.777c0.152-0.376,0.365-0.675,0.641-0.897c0.276-0.222,0.598-0.362,0.968-0.421
							c0.37-0.059,0.768-0.031,1.194,0.083c0.32,0.085,0.609,0.204,0.868,0.358c0.259,0.153,0.519,0.344,0.778,0.572l-0.839,0.925
							c-0.235-0.193-0.452-0.352-0.65-0.476c-0.199-0.124-0.414-0.217-0.647-0.279c-0.162-0.044-0.312-0.054-0.448-0.031
							c-0.137,0.022-0.253,0.074-0.351,0.154c-0.098,0.08-0.172,0.184-0.223,0.31c-0.06,0.149-0.068,0.286-0.024,0.411
							c0.044,0.125,0.134,0.257,0.268,0.398c0.134,0.141,0.305,0.308,0.512,0.504c0.253,0.236,0.457,0.466,0.613,0.69
							c0.156,0.224,0.25,0.464,0.281,0.718C378.828,128.066,378.777,128.358,378.644,128.688z"/>
						<path style="fill:#D85266;" d="M379.061,130.735l2.537-6.292l1.304,0.348l-2.537,6.292L379.061,130.735z"/>
						<path style="fill:#D85266;" d="M385.655,128.58l2.438,0.65l-1.315,3.262c-0.366,0.023-0.736,0.02-1.11-0.008
							c-0.374-0.028-0.78-0.101-1.22-0.218c-0.611-0.163-1.08-0.425-1.406-0.785c-0.327-0.36-0.504-0.811-0.53-1.352
							c-0.027-0.541,0.101-1.163,0.384-1.866c0.266-0.66,0.62-1.198,1.063-1.614c0.442-0.416,0.956-0.692,1.54-0.829
							c0.584-0.137,1.221-0.113,1.911,0.071c0.325,0.087,0.632,0.208,0.919,0.364s0.537,0.326,0.749,0.509l-0.864,0.952
							c-0.148-0.148-0.33-0.287-0.544-0.417c-0.215-0.13-0.453-0.231-0.717-0.301c-0.379-0.101-0.743-0.099-1.094,0.004
							c-0.351,0.104-0.667,0.295-0.948,0.574c-0.282,0.279-0.51,0.635-0.685,1.069c-0.165,0.411-0.257,0.789-0.276,1.135
							c-0.019,0.346,0.054,0.64,0.217,0.882s0.434,0.414,0.812,0.514c0.185,0.049,0.345,0.082,0.48,0.097
							c0.135,0.015,0.263,0.028,0.383,0.038l0.529-1.313l-1.164-0.311L385.655,128.58z"/>
						<path style="fill:#D85266;" d="M393.591,134.609l-1.656-0.442l-0.755-5.473l-0.038-0.01c-0.069,0.201-0.139,0.403-0.212,0.606
							c-0.073,0.203-0.145,0.406-0.217,0.607c-0.072,0.202-0.144,0.404-0.217,0.607l-1.194,2.961l-1.165-0.311l2.537-6.292
							l1.644,0.438l0.77,5.424l0.029,0.008c0.073-0.197,0.144-0.392,0.214-0.587c0.069-0.194,0.139-0.388,0.209-0.583
							c0.071-0.194,0.142-0.388,0.214-0.582l1.201-2.978l1.173,0.313L393.591,134.609z"/>
						<path style="fill:#D85266;" d="M398.903,136.026l0.159-1.617l-2.241-0.597l-1.05,1.379l-1.404-0.374l4.717-5.739l1.594,0.425
							l-0.37,6.898L398.903,136.026z M399.201,133.208l0.144-1.582c0.012-0.105,0.025-0.241,0.041-0.407
							c0.015-0.166,0.032-0.334,0.05-0.506c0.018-0.171,0.037-0.32,0.056-0.445c-0.076,0.11-0.173,0.245-0.292,0.406
							c-0.119,0.161-0.233,0.312-0.34,0.455c-0.107,0.143-0.184,0.245-0.23,0.306l-1.031,1.346L399.201,133.208z"/>
						<path style="fill:#D85266;" d="M403.444,137.237l-1.304-0.347l2.09-5.182l-1.669-0.445l0.448-1.111l4.641,1.238l-0.448,1.11
							l-1.669-0.445L403.444,137.237z"/>
						<path style="fill:#D85266;" d="M406.063,137.935l2.537-6.292l1.304,0.348l-2.537,6.292L406.063,137.935z"/>
						<path style="fill:#D85266;" d="M415.784,137.034c-0.196,0.485-0.433,0.911-0.711,1.276c-0.278,0.366-0.595,0.661-0.95,0.883
							c-0.355,0.223-0.748,0.362-1.177,0.418c-0.429,0.055-0.894,0.016-1.396-0.117c-0.502-0.134-0.905-0.326-1.21-0.578
							c-0.305-0.251-0.52-0.553-0.644-0.903c-0.124-0.351-0.165-0.741-0.121-1.171c0.043-0.43,0.163-0.889,0.36-1.377
							c0.263-0.651,0.596-1.19,1-1.618c0.404-0.428,0.876-0.717,1.418-0.868c0.542-0.151,1.148-0.137,1.818,0.041
							c0.667,0.178,1.162,0.458,1.485,0.839c0.323,0.382,0.491,0.842,0.504,1.383C416.173,135.783,416.048,136.38,415.784,137.034z
							 M411.298,135.838c-0.177,0.439-0.276,0.831-0.296,1.177c-0.02,0.346,0.051,0.635,0.212,0.867
							c0.161,0.232,0.424,0.396,0.788,0.494c0.37,0.099,0.704,0.093,1.003-0.016c0.298-0.109,0.564-0.309,0.797-0.598
							c0.233-0.289,0.438-0.653,0.615-1.092c0.266-0.66,0.355-1.211,0.266-1.654c-0.088-0.443-0.408-0.738-0.961-0.886
							c-0.367-0.098-0.701-0.092-1.001,0.017c-0.3,0.109-0.568,0.308-0.804,0.596C411.683,135.031,411.476,135.396,411.298,135.838z
							"/>
						<path style="fill:#D85266;" d="M421.24,141.982l-1.657-0.441l-0.755-5.473l-0.038-0.01c-0.069,0.201-0.139,0.403-0.212,0.606
							c-0.073,0.203-0.145,0.406-0.217,0.607c-0.072,0.202-0.145,0.404-0.217,0.607l-1.194,2.961l-1.165-0.311l2.537-6.292
							l1.644,0.439l0.77,5.424l0.029,0.008c0.073-0.197,0.144-0.392,0.213-0.587c0.069-0.195,0.139-0.389,0.21-0.583
							c0.07-0.194,0.141-0.388,0.214-0.582l1.201-2.978l1.173,0.313L421.24,141.982z"/>
					</g>
					<g>
						<defs>
							<polygon id="SVGID_00000150099629372857844030000013836940777220031914_" points="392.41,213.683 334.474,198.131 
								366.661,119.884 424.597,135.435 							"/>
						</defs>
						<clipPath id="SVGID_00000025413188601039199830000013606589956912956551_">
							<use xlink:href="#SVGID_00000150099629372857844030000013836940777220031914_"  style="overflow:visible;"/>
						</clipPath>
						<g style="clip-path:url(#SVGID_00000025413188601039199830000013606589956912956551_);">
							
								<line style="fill:none;stroke:#E8D9D1;stroke-width:3;stroke-miterlimit:10;" x1="351.824" y1="130.141" x2="431.871" y2="151.627"/>
							
								<line style="fill:none;stroke:#E8D9D1;stroke-width:3;stroke-miterlimit:10;" x1="348.386" y1="137.632" x2="428.433" y2="159.119"/>
							
								<line style="fill:none;stroke:#E8D9D1;stroke-width:3;stroke-miterlimit:10;" x1="344.948" y1="145.123" x2="424.995" y2="166.61"/>
							
								<line style="fill:none;stroke:#E8D9D1;stroke-width:3;stroke-miterlimit:10;" x1="341.51" y1="152.615" x2="421.557" y2="174.101"/>
							
								<line style="fill:none;stroke:#E8D9D1;stroke-width:3;stroke-miterlimit:10;" x1="338.072" y1="160.106" x2="418.119" y2="181.593"/>
							
								<line style="fill:none;stroke:#E8D9D1;stroke-width:3;stroke-miterlimit:10;" x1="334.634" y1="167.598" x2="414.681" y2="189.084"/>
							
								<line style="fill:none;stroke:#E8D9D1;stroke-width:3;stroke-miterlimit:10;" x1="331.197" y1="175.089" x2="411.243" y2="196.576"/>
							
								<line style="fill:none;stroke:#E8D9D1;stroke-width:3;stroke-miterlimit:10;" x1="327.759" y1="182.581" x2="407.805" y2="204.067"/>
							
								<line style="fill:none;stroke:#E8D9D1;stroke-width:3;stroke-miterlimit:10;" x1="324.321" y1="190.072" x2="404.367" y2="211.559"/>
						</g>
					</g>
				</g>
				<path style="fill:none;stroke:#000000;stroke-width:1.5;stroke-miterlimit:10;" d="M300.987,275.234
					c0,0-18.76,17.759-21.673,21.421c-2.913,3.662-6.845,14.009-6.791,21.362"/>
				<path style="fill:#D87D55;" d="M328.166,248.526c0,0,5.247-7.493,5.58-23.91c0.098-4.825,0.855-20.188,2.009-24.874
					c2.202-8.942,13.078-23.919,15.138-22.431c2.06,1.488,3.357,5.663,1.362,10.7c-1.118,2.823-4.074,10.612-4.445,13.625
					c-0.525,4.254,2.29,7.33,4.994,12.988c1.608,3.364,6.551,13.463,6.164,24.588"/>
				<path style="fill:#FCB05E;" d="M213.272,204.753c6.706,1.073,13.412,2.146,20.118,3.219c4.941,0.791,9.926,1.593,14.587,3.413
					c10.656,4.161,18.58,13.18,25.545,22.255c7.134,9.295,25.594,37.342,25.594,37.342l-51.11,43.432l-32.039-42.61"/>
				
					<line style="fill:none;stroke:#000000;stroke-width:1.5;stroke-miterlimit:10;" x1="292.408" y1="262.158" x2="243.295" y2="302.17"/>
				<path style="fill:#FCB05E;" d="M260.929,252.132c0,0-6.021,37.194-5.907,51.681c0.113,14.487-3.39,99.193-3.39,99.193H110.098
					c0,0-16.694-93.061-14.889-111.816c1.644-17.085,35.045-81.738,35.045-81.738l12.71-4.239l54.664,12.161l30.491-10.679
					L260.929,252.132z"/>
				<polyline style="fill:none;stroke:#000000;stroke-width:1.5;stroke-miterlimit:10;" points="191.04,220.127 194.781,269.049 
					207.805,268.241 203.7,217.718 				"/>
				<polygon style="fill:#FCB05E;" points="197.627,217.374 153.642,192.732 142.964,205.213 180.343,243.783 				"/>
				<polygon style="fill:#FCB05E;" points="216.875,197.781 197.627,217.374 216.053,241.709 228.118,206.695 				"/>
				<polyline style="fill:none;stroke:#000000;stroke-width:1.5;stroke-miterlimit:10;" points="142.964,205.213 180.343,243.783 
					197.627,217.374 216.053,241.709 228.118,206.695 				"/>
				<path style="fill:none;stroke:#000000;stroke-width:1.5;stroke-miterlimit:10;" d="M255.021,308.452
					c0,0,0.249-32.473,1.173-39.403c0.923-6.93,3.937-20.524,3.937-20.524"/>
				
					<line style="fill:none;stroke:#000000;stroke-width:1.5;stroke-miterlimit:10;" x1="195.895" y1="232.031" x2="201.459" y2="231.781"/>
				
					<line style="fill:none;stroke:#000000;stroke-width:1.5;stroke-miterlimit:10;" x1="196.641" y1="245.544" x2="202.205" y2="245.293"/>
				
					<line style="fill:none;stroke:#000000;stroke-width:1.5;stroke-miterlimit:10;" x1="197.815" y1="259.834" x2="203.379" y2="259.584"/>
				<path style="fill:none;stroke:#000000;stroke-width:1.5;stroke-miterlimit:10;" d="M351.284,211.673
					c0.625,1.188,8.99,14.065,8.531,25.319"/>
			</g>
			<g>
				<polygon style="fill:#C7D1DD;" points="361.035,340.269 298.795,333.159 330.619,263.772 392.859,270.883 				"/>
				<g>
					<polygon style="fill:#FFFFFF;" points="360.607,337.642 297.961,337.642 321.704,265.091 384.35,265.091 					"/>
					<line style="fill:none;stroke:#C7D1DD;stroke-miterlimit:10;" x1="375.634" y1="275.234" x2="323.628" y2="275.234"/>
					<line style="fill:none;stroke:#C7D1DD;stroke-miterlimit:10;" x1="373.572" y1="281.173" x2="321.566" y2="281.173"/>
					<line style="fill:none;stroke:#C7D1DD;stroke-miterlimit:10;" x1="371.51" y1="287.112" x2="319.504" y2="287.112"/>
					<line style="fill:none;stroke:#C7D1DD;stroke-miterlimit:10;" x1="369.448" y1="293.051" x2="317.442" y2="293.051"/>
					<line style="fill:none;stroke:#C7D1DD;stroke-miterlimit:10;" x1="367.387" y1="298.991" x2="315.38" y2="298.991"/>
					<line style="fill:none;stroke:#C7D1DD;stroke-miterlimit:10;" x1="365.325" y1="304.93" x2="313.318" y2="304.93"/>
					<line style="fill:none;stroke:#C7D1DD;stroke-miterlimit:10;" x1="363.263" y1="310.869" x2="311.256" y2="310.869"/>
					<line style="fill:none;stroke:#C7D1DD;stroke-miterlimit:10;" x1="361.201" y1="316.808" x2="309.194" y2="316.808"/>
					<line style="fill:none;stroke:#C7D1DD;stroke-miterlimit:10;" x1="359.139" y1="322.747" x2="307.133" y2="322.747"/>
					<line style="fill:none;stroke:#C7D1DD;stroke-miterlimit:10;" x1="357.077" y1="328.686" x2="305.071" y2="328.686"/>
				</g>
				<g>
					<polygon style="fill:#29344F;" points="293.796,328.908 352.826,328.908 373.572,239.08 314.542,239.08 					"/>
					<polygon style="fill:#F7A5A4;" points="296.392,304.344 344.039,306.203 363.614,234.35 315.966,232.491 					"/>
					<polygon style="fill:#FFFFFF;" points="289.412,328.908 348.443,328.908 369.189,239.08 310.158,239.08 					"/>
					<polygon style="fill:#29344F;" points="283.548,328.908 342.578,328.908 363.324,239.08 304.293,239.08 					"/>
					<line style="fill:none;stroke:#E0D7C3;stroke-miterlimit:10;" x1="344.46" y1="328.908" x2="365.206" y2="239.08"/>
					<line style="fill:none;stroke:#000000;stroke-miterlimit:10;" x1="343.532" y1="242.961" x2="321.185" y2="242.961"/>
					<line style="fill:none;stroke:#E0D7C3;stroke-miterlimit:10;" x1="346.402" y1="328.908" x2="367.148" y2="239.08"/>
					<line style="fill:none;stroke:#000000;stroke-miterlimit:10;" x1="339.458" y1="328.908" x2="360.204" y2="239.08"/>
					<path style="fill:#C95050;" d="M320.969,237.438c-1.371,0.689-2.488,1.792-3.505,2.941c-2.583,2.919-4.675,6.232-6.754,9.529
						c2.244-1.054,4.489-2.107,6.733-3.161c0.298,1.411,1.392,4.47,1.514,4.335c1.84-2.029,8.793-12.002,8.793-12.002h2.273
						c0,0-0.516-1.376-1.559-1.484C326.918,237.437,322.37,236.735,320.969,237.438z"/>
				</g>
				<g>
					<polygon style="fill:#ED7951;" points="320.268,333.063 257.998,333.063 286.229,250.359 348.499,250.359 					"/>
					<line style="fill:none;stroke:#000000;stroke-miterlimit:10;" x1="332.22" y1="250.359" x2="303.989" y2="333.063"/>
					<path style="fill:#D36244;" d="M331.648,263.924l-21.761,62.689c-0.364,1.049,0.318,2.184,1.311,2.184h5.962
						c0.579,0,1.099-0.402,1.311-1.013l21.761-62.689c0.364-1.049-0.318-2.184-1.311-2.184h-5.962
						C332.38,262.912,331.86,263.313,331.648,263.924z"/>
					<line style="fill:none;stroke:#000000;stroke-miterlimit:10;" x1="330.373" y1="255.769" x2="346.652" y2="255.769"/>
					<line style="fill:none;stroke:#000000;stroke-miterlimit:10;" x1="328.82" y1="260.067" x2="345.099" y2="260.067"/>
				</g>
				<g>
					<polygon style="fill:#777744;" points="301.118,333.063 238.848,333.063 267.079,250.359 329.349,250.359 					"/>
					<line style="fill:none;stroke:#000000;stroke-miterlimit:10;" x1="313.07" y1="250.359" x2="284.839" y2="333.063"/>
					<path style="fill:#565530;" d="M312.498,263.924l-21.761,62.689c-0.364,1.049,0.318,2.184,1.311,2.184h5.962
						c0.579,0,1.099-0.402,1.311-1.013l21.761-62.689c0.364-1.049-0.318-2.184-1.311-2.184h-5.962
						C313.23,262.912,312.71,263.313,312.498,263.924z"/>
					<line style="fill:none;stroke:#000000;stroke-miterlimit:10;" x1="311.223" y1="255.769" x2="327.502" y2="255.769"/>
					<line style="fill:none;stroke:#000000;stroke-miterlimit:10;" x1="309.67" y1="260.067" x2="325.949" y2="260.067"/>
				</g>
				<g>
					<polygon style="fill:#1A1A1A;" points="225.282,354.297 282.263,354.297 302.633,263.013 245.652,263.013 					"/>
					<polygon style="fill:#FFFFFF;" points="221.467,354.297 278.448,354.297 298.817,263.013 241.836,263.013 					"/>
					<polygon style="fill:#1A1A1A;" points="212.648,354.297 269.629,354.297 289.999,263.013 233.017,263.013 					"/>
					<line style="fill:none;stroke:#686261;stroke-miterlimit:10;" x1="265.191" y1="354.297" x2="285.56" y2="263.013"/>
					<line style="fill:none;stroke:#686261;stroke-miterlimit:10;" x1="272.393" y1="273.925" x2="238.542" y2="273.925"/>
					<line style="fill:none;stroke:#DDD2D0;stroke-miterlimit:10;" x1="271.832" y1="354.297" x2="292.201" y2="263.013"/>
					<line style="fill:none;stroke:#DDD2D0;stroke-miterlimit:10;" x1="276.182" y1="354.297" x2="296.552" y2="263.013"/>
				</g>
				<g>
					<g>
						<path style="fill:#757A47;" d="M199.374,296.246c-7.673-14.224-26.588-40.463-29.483-38.433
							c-2.895,2.031,8.69,23.212,15.883,33.539c7.674,11.018,15.823,21.737,23.968,32.452l2.902,3.182
							C210.096,316.159,204.71,306.136,199.374,296.246z"/>
						<path style="fill:none;stroke:#000000;stroke-width:0.75;stroke-miterlimit:10;" d="M174.759,265.389
							c13.349,18.015,25.86,38.956,37.885,61.597"/>
					</g>
					<g>
						<path style="fill:#757A47;" d="M200.727,289.786c-3.426-13.468-13.551-39.164-16.251-37.955
							c-2.7,1.209,2.529,21.293,6.313,31.362c4.037,10.742,8.51,21.314,12.981,31.883l1.714,3.225
							C205.507,308.638,203.109,299.152,200.727,289.786z"/>
						<path style="fill:none;stroke:#000000;stroke-width:0.75;stroke-miterlimit:10;" d="M186.925,259.145
							c7.241,17.707,13.256,37.753,18.559,59.157"/>
					</g>
					<g>
						<path style="fill:#757A47;" d="M210.557,299.532c0.965-13.863-0.601-41.438-3.543-41.135
							c-2.943,0.303-4.268,21.014-3.829,31.761c0.469,11.466,1.405,22.907,2.34,34.345l0.617,3.6
							C209.192,318.932,209.886,309.172,210.557,299.532z"/>
						<path style="fill:none;stroke:#000000;stroke-width:0.75;stroke-miterlimit:10;" d="M207.049,266.109
							c1.33,19.084,0.763,40.005-0.906,61.993"/>
					</g>
					<g>
						<path style="fill:#757A47;" d="M211.21,292.733c3.393-13.476,13.454-39.198,16.157-37.995
							c2.703,1.203-2.477,21.3-6.236,31.377c-4.011,10.752-8.457,21.335-12.902,31.915l-1.706,3.229
							C206.476,311.596,208.851,302.104,211.21,292.733z"/>
						<path style="fill:none;stroke:#000000;stroke-width:0.75;stroke-miterlimit:10;" d="M224.936,262.057
							c-7.197,17.725-13.163,37.785-18.413,59.202"/>
					</g>
					<g>
						<path style="fill:#757A47;" d="M186.82,294.12c-5.679-5.51-12.283-9.755-19.641-9.992c-1.686-0.054-8.144-0.177-9.045,2.956
							c-0.855,2.972,4.243,4.225,5.433,4.555c10.157,2.816,19.671,8.267,27.963,16.02c4.883,4.566,9.622,9.78,13.824,15.467
							C201.18,311.433,194.393,301.467,186.82,294.12z"/>
						<path style="fill:none;stroke:#000000;stroke-width:0.75;stroke-miterlimit:10;" d="M164.372,286.972
							c0,0,27.054,4.569,40.981,36.153"/>
					</g>
				</g>
				<g>
					<path style="fill:#FCD98D;" d="M228.334,309.184l20.276,33.027l30.474-64.184L228.334,309.184z M240.3,311.42l20.017-12.289
						l-12.02,25.316L240.3,311.42z"/>
					<line style="fill:none;stroke:#000000;stroke-miterlimit:10;" x1="230.545" y1="307.827" x2="233.64" y2="312.869"/>
					<line style="fill:none;stroke:#000000;stroke-miterlimit:10;" x1="233.697" y1="305.892" x2="235.658" y2="309.085"/>
					<line style="fill:none;stroke:#000000;stroke-miterlimit:10;" x1="236.85" y1="303.956" x2="238.81" y2="307.15"/>
					<line style="fill:none;stroke:#000000;stroke-miterlimit:10;" x1="240.002" y1="302.021" x2="241.963" y2="305.214"/>
					<line style="fill:none;stroke:#000000;stroke-miterlimit:10;" x1="243.155" y1="300.085" x2="246.25" y2="305.127"/>
					<line style="fill:none;stroke:#000000;stroke-miterlimit:10;" x1="246.307" y1="298.15" x2="248.268" y2="301.344"/>
					<line style="fill:none;stroke:#000000;stroke-miterlimit:10;" x1="249.46" y1="296.215" x2="251.42" y2="299.408"/>
					<line style="fill:none;stroke:#000000;stroke-miterlimit:10;" x1="252.612" y1="294.279" x2="254.573" y2="297.473"/>
					<line style="fill:none;stroke:#000000;stroke-miterlimit:10;" x1="255.765" y1="292.344" x2="258.86" y2="297.386"/>
					<line style="fill:none;stroke:#000000;stroke-miterlimit:10;" x1="258.917" y1="290.409" x2="260.878" y2="293.602"/>
					<line style="fill:none;stroke:#000000;stroke-miterlimit:10;" x1="262.07" y1="288.473" x2="264.03" y2="291.667"/>
					<line style="fill:none;stroke:#000000;stroke-miterlimit:10;" x1="265.222" y1="286.538" x2="267.183" y2="289.731"/>
					<line style="fill:none;stroke:#000000;stroke-miterlimit:10;" x1="268.375" y1="284.602" x2="271.47" y2="289.644"/>
				</g>
				<g>
					<g>
						<polygon style="fill:#9D88D3;" points="254.027,332.169 246.542,338.344 210.269,332.169 181.696,286.001 189.18,279.826 
							232.939,279.826 						"/>
					</g>
					<polygon style="fill:#FFFFFF;" points="246.542,338.344 252.945,333.068 232.311,281.851 186.733,281.851 181.696,286.001 
						210.269,332.169 					"/>
					<polyline style="fill:none;stroke:#000000;stroke-width:0.75;stroke-miterlimit:10;" points="251.389,334.263 230.755,283.047 
						185.177,283.047 					"/>
					<polyline style="fill:none;stroke:#000000;stroke-width:0.75;stroke-miterlimit:10;" points="249.194,336.12 228.56,284.903 
						182.982,284.903 					"/>
					<polygon style="fill:#9D88D3;" points="246.542,338.344 202.784,338.344 181.696,286.001 225.454,286.001 					"/>
					<polyline style="fill:none;stroke:#000000;stroke-width:0.75;stroke-miterlimit:10;" points="244.049,338.344 223.566,287.978 
						182.894,287.978 					"/>
					
						<line style="fill:none;stroke:#000000;stroke-width:0.75;stroke-miterlimit:10;" x1="194.751" y1="291.711" x2="212.97" y2="291.711"/>
				</g>
				<g>
					
						<rect x="261.884" y="303.813" transform="matrix(-1 -1.224647e-16 1.224647e-16 -1 642.1963 712.4967)" style="fill:#F7DBBF;" width="118.427" height="104.87"/>
					<g>
						<rect x="307.016" y="387.133" style="fill:#E0B996;" width="45.986" height="21.551"/>
						<rect x="307.016" y="303.813" style="fill:#E0B996;" width="45.986" height="16.613"/>
						
							<line style="fill:none;stroke:#000000;stroke-width:1.5;stroke-miterlimit:10;" x1="337.807" y1="303.813" x2="337.807" y2="320.426"/>
						
							<line style="fill:none;stroke:#000000;stroke-width:1.5;stroke-miterlimit:10;" x1="337.807" y1="387.133" x2="337.807" y2="408.683"/>
					</g>
					<line style="fill:none;stroke:#FFFFFF;stroke-miterlimit:10;" x1="369.448" y1="330.456" x2="333.833" y2="330.456"/>
					<line style="fill:none;stroke:#FFFFFF;stroke-miterlimit:10;" x1="369.448" y1="337.642" x2="333.833" y2="337.642"/>
					<line style="fill:none;stroke:#FFFFFF;stroke-miterlimit:10;" x1="369.448" y1="344.828" x2="344.135" y2="344.828"/>
					<path style="fill:#F2D4B3;" d="M179.666,303.813v104.87h82.219v-104.87H179.666z M239.676,321.636h-35.887
						c-1.999,0-3.619-1.62-3.619-3.619c0-1.999,1.62-3.619,3.619-3.619h35.887c1.999,0,3.619,1.62,3.619,3.619
						C243.295,320.015,241.675,321.636,239.676,321.636z"/>
					
						<line style="fill:none;stroke:#000000;stroke-width:1.5;stroke-miterlimit:10;" x1="261.884" y1="303.813" x2="261.884" y2="408.683"/>
				</g>
			</g>
			<g>
				<path style="fill:#D87D55;" d="M88.596,293.352c0,0,2.534,52.738,3.899,62.444c1.365,9.706,3.649,45.468,45.899,42.1
					c42.25-3.368,95.208-15.178,95.208-15.178l-10.9-41.378l-71.595,0.346l-2.99-58.497"/>
				<g>
					<path style="fill:#D87D55;" d="M218.769,341.618c15.658-7.446,32.396-12.633,49.534-15.351
						c0.303-0.048,0.618-0.095,0.916-0.016c0.672,0.18,1.053,0.701,0.946,1.416c-0.283,1.889-2.244,3.38-3.629,4.515
						c-2.073,1.699-4.362,2.966-6.687,4.275c-0.988,0.556-2.757,1.341-2.298,2.792c10.638,1.991,21.758,1.353,32.092-1.84
						c2.407-0.744,4.861-1.635,7.372-1.419c2.511,0.217,5.112,1.939,5.358,4.438c-0.748,0.512-1.496,1.023-2.244,1.534
						c2.964-0.675,5.914,0.197,7.623,2.704c0.255,0.374,0.483,0.798,0.464,1.25c-0.07,1.616-2.98,2.849-2.98,2.849
						s2.159,1.766,1.972,2.718c-0.503,2.57-3.194,4.775-5.061,5.982c1.176,0.76,1.047,2.027,0.797,3.065
						c-0.25,1.038-3.611,3.82-4.505,4.408c-22.444,14.742-44.075,15.968-71.328,18.989c-7.346,0.814-24.793,3.205-24.793,3.205"/>
					<path style="fill:none;stroke:#000000;stroke-width:1.5;stroke-miterlimit:10;" d="M257.661,339.241
						c0,0-6.77-1.589-9.798-2.336"/>
					<path style="fill:none;stroke:#000000;stroke-width:1.5;stroke-miterlimit:10;" d="M262.971,350.647
						c0,0,8.574-0.485,17.053-1.795c7.22-1.116,20.215-6.896,20.215-6.896"/>
					<path style="fill:none;stroke:#000000;stroke-width:1.5;stroke-miterlimit:10;" d="M267.113,360.97
						c0,0,14.328-1.96,19.507-3.805c7.267-2.589,18.727-8.408,18.727-8.408"/>
					<path style="fill:none;stroke:#000000;stroke-width:1.5;stroke-miterlimit:10;" d="M272.792,369.456
						c0,0,9.424-1.993,14.115-4.16c4.691-2.167,15.351-7.838,15.351-7.838"/>
				</g>
				<path style="fill:#FCB05E;" d="M151.848,261.733l1.401,57.998l-66.544,6.614c0,0-2.39-46.532-2.159-59.419
					c0.22-12.245,2.162-28.78,12.339-39.788c12.516-13.539,23.97-14.872,43.449-21.027"/>
				
					<line style="fill:none;stroke:#000000;stroke-width:1.5;stroke-miterlimit:10;" x1="151.848" y1="261.733" x2="153.249" y2="319.731"/>
				
					<line style="fill:none;stroke:#000000;stroke-width:1.5;stroke-miterlimit:10;" x1="85.97" y1="311.153" x2="153.249" y2="304.742"/>
				<path style="fill:none;stroke:#000000;stroke-width:1.5;stroke-miterlimit:10;" d="M151.309,341.507
					c-12.515-0.061-25.361,2.323-36.599,7.967"/>
				<g>
					<polygon style="fill:#1A1A1A;" points="220.764,386.648 213.05,388.225 206.972,340.733 214.844,340.389 					"/>
					<g>
						<path style="fill:#E0C9C6;" d="M222.129,371.594c0.216,3.789-2.834,7.04-6.814,7.26c-3.98,0.22-7.381-2.673-7.597-6.462
							c-0.216-3.789,2.835-7.04,6.814-7.26C218.511,364.911,221.913,367.804,222.129,371.594z"/>
						<g>
							
								<line style="fill:none;stroke:#000000;stroke-width:0.5;stroke-miterlimit:10;" x1="214.012" y1="365.893" x2="214.241" y2="367.811"/>
							
								<line style="fill:none;stroke:#000000;stroke-width:0.5;stroke-miterlimit:10;" x1="215.606" y1="376.173" x2="215.835" y2="378.091"/>
							
								<line style="fill:none;stroke:#000000;stroke-width:0.5;stroke-miterlimit:10;" x1="221.022" y1="371.081" x2="219.105" y2="371.31"/>
							
								<line style="fill:none;stroke:#000000;stroke-width:0.5;stroke-miterlimit:10;" x1="210.742" y1="372.675" x2="208.825" y2="372.903"/>
						</g>
					</g>
				</g>
			</g>
		</g>
	</g>
</g>
</svg>
