<?xml version="1.0" encoding="utf-8"?>
<!-- Generator: Adobe Illustrator 27.5.0, SVG Export Plug-In . SVG Version: 6.00 Build 0)  -->
<svg version="1.1" id="Layer_1" xmlns="http://www.w3.org/2000/svg" xmlns:xlink="http://www.w3.org/1999/xlink" x="0px" y="0px"
	 viewBox="0 0 4000 4000" style="enable-background:new 0 0 4000 4000;" xml:space="preserve">
<g>
	<rect x="-0.001" style="fill-rule:evenodd;clip-rule:evenodd;fill:#FFFFFF;" width="4000.002" height="4000"/>
	<path style="fill-rule:evenodd;clip-rule:evenodd;" d="M1999.998,668.078c0,0-127.104-8.995-332.45,37.47
		c-155.538,35.192-271.492,109.076-318.603,142.851c-186.414-79.015-366.219-274.417-506.075-403.3
		c0,0,7.491,344.737,202.344,599.543l-137.895-20.982c0,0,41.301,92.433,163.725,194.466l-0.004,0.003
		c0,0,13.468,227.853-152.905,467.675c0,0,68.949,19.483,106.417,19.483c0,0-67.444,71.948-128.902,220.336
		c0,0,59.953-71.948,148.389-67.45c0,0-5.269,108.443,42.953,254.551l-0.037-0.043c0,0-180.863,437.971,142.895,809.688
		c323.755,371.721,770.15,632.526,770.15,632.526s446.395-260.805,770.149-632.526c323.759-371.717,142.896-809.688,142.896-809.688
		l-0.033,0.043c48.222-146.108,42.948-254.551,42.948-254.551c88.436-4.499,148.389,67.45,148.389,67.45
		c-61.454-148.388-128.898-220.336-128.898-220.336c37.468,0,106.417-19.483,106.417-19.483
		c-166.378-239.822-152.905-467.675-152.905-467.675l-0.008-0.003c122.424-102.033,163.725-194.466,163.725-194.466l-137.895,20.982
		C3149.635,789.836,3157.131,445.1,3157.131,445.1c-139.856,128.883-319.666,324.285-506.075,403.3
		c-47.111-33.775-163.07-107.66-318.603-142.851C2127.106,659.083,1999.998,668.078,1999.998,668.078"/>
	<path style="fill-rule:evenodd;clip-rule:evenodd;fill:#FFFFFF;" d="M1861.684,1577.868c0,0,28.479-188.855-169.373-308.765
		c0,0,82.438,13.484,116.911,31.475c0,0-115.413-217.337-307.267-313.261c-191.858-95.93-430.18-221.83-544.096-313.262
		c0,0,29.976,130.398,88.432,235.323c58.455,104.923,170.874,188.858,398.702,254.81c0,0-232.32-25.483-352.23-40.473
		c0,0,50.956,106.422,383.703,154.388l-109.42,16.488c0,0,138.647,58.455,239.071,106.418
		C1706.545,1448.976,1778.489,1495.441,1861.684,1577.868"/>
	<path style="fill-rule:evenodd;clip-rule:evenodd;fill:#FFFFFF;" d="M2138.316,1577.868c0,0-28.479-188.855,169.368-308.765
		c0,0-82.434,13.484-116.911,31.475c0,0,115.413-217.337,307.267-313.261c191.858-95.93,430.184-221.83,544.096-313.262
		c0,0-29.976,130.398-88.432,235.323c-58.456,104.923-170.87,188.858-398.702,254.81c0,0,232.324-25.483,352.234-40.473
		c0,0-50.956,106.422-383.708,154.388l109.424,16.488c0,0-138.647,58.455-239.075,106.418
		C2293.455,1448.976,2221.507,1495.441,2138.316,1577.868"/>
	<path style="fill-rule:evenodd;clip-rule:evenodd;fill:#FFFFFF;" d="M1999.998,2362.902c0,0-113.192-286.285-165.654-398.702
		l65.951,242.815l-143.14-224.078l242.843-450.038l242.846,450.038l-143.139,224.078l65.946-242.815
		C2113.19,2076.617,1999.998,2362.902,1999.998,2362.902"/>
	<path style="fill-rule:evenodd;clip-rule:evenodd;fill:#FFFFFF;" d="M1999.998,2708.044c0,0-67.139-197.853-402.885-314.763
		l14.99,85.432c0,0-261.959-151.077-340.255-479.637c0,0-17.985,182.863-23.979,257.807c0,0-214.339-235.318-125.903-544.086
		l-94.43,76.447c0,0,95.927-191.858,139.396-233.827l-140.893,70.447c0,0,102.791-120.193,129.468-345.411
		c5.111,3.345,10.299,6.68,15.605,10.007c39.652,24.855,74.849,44.617,106.872,60.922l-0.008,0.005
		c0,0-112.524,139.563-91.545,281.956c20.988,142.393,101.925,224.83,187.362,262.303c0,0-139.392-94.431-148.389-224.833
		c-8.992-130.398,59.953-236.821,59.953-236.821s-82.438,172.375,23.979,335.75c106.425,163.375,364.229,100.427,407.698,77.943
		c0,0-175.37,203.845-403.194,94.427c0,0,199.247,139.88,430.855-37.21c-34.342,62.93-158.41,151.38-344.267,123.005
		c0,0,161.882,41.967,241.321,20.987c79.439-20.987,92.932,1.497,121.411,46.465c28.475,44.967,7.491,49.463-56.962,47.967
		c-64.453-1.503-161.133-44.222-161.133-44.222s68.201,92.93,242.073,104.174c0,0,50.956-9.747,106.417,81.685
		c55.461,91.432,106.441,248.817,106.441,248.817s50.98-157.385,106.441-248.817s106.417-81.685,106.417-81.685
		c173.873-11.243,242.073-104.174,242.073-104.174s-96.68,42.719-161.129,44.222c-64.457,1.497-85.441-3-56.962-47.967
		c28.479-44.968,41.972-67.452,121.407-46.465c79.439,20.98,241.325-20.987,241.325-20.987
		c-185.86,28.375-309.928-60.075-344.271-123.005c231.612,177.09,430.859,37.21,430.859,37.21
		c-227.828,109.418-403.198-94.427-403.198-94.427c43.469,22.483,301.278,85.432,407.698-77.943
		c106.417-163.375,23.983-335.75,23.983-335.75s68.941,106.423,59.953,236.821c-8.996,130.402-148.388,224.833-148.388,224.833
		c85.433-37.473,166.374-119.91,187.362-262.303c20.98-142.393-91.549-281.956-91.549-281.956l-0.008-0.005
		c32.027-16.305,67.224-36.067,106.877-60.922c5.306-3.327,10.49-6.662,15.604-10.007
		c26.672,225.218,129.468,345.411,129.468,345.411l-140.897-70.447c43.469,41.968,139.4,233.827,139.4,233.827l-94.434-76.447
		c88.436,308.768-125.899,544.086-125.899,544.086c-5.994-74.943-23.983-257.807-23.983-257.807
		c-78.292,328.56-340.251,479.637-340.251,479.637l14.986-85.432C2067.137,2510.191,1999.998,2708.044,1999.998,2708.044"/>
	<path style="fill-rule:evenodd;clip-rule:evenodd;fill:#FFFFFF;" d="M1999.998,3434.989c0,0-280.147-159.608-386.446-566.575
		c0,0,1.497,142.395,1.497,301.276c0,0-439.172-272.792-457.157-716.461c0,0,47.961,137.896,182.861,257.806
		c0,0-134.155-115.418-133.37-358.905c39.962,56.873,89.628,114.005,151.416,168.548c0,0-50.964-169.37-34.477-257.807
		c0,0,85.437,169.37,340.242,295.281c0,0-4.496-41.972-11.991-76.441c0,0,79.439,10.493,178.361,109.417
		c98.926,98.925,169.063,248.817,169.063,248.817s70.141-149.892,169.063-248.817c98.926-98.923,178.361-109.417,178.361-109.417
		c-7.491,34.47-11.991,76.441-11.991,76.441c254.805-125.912,340.242-295.281,340.242-295.281
		c16.488,88.437-34.473,257.807-34.473,257.807c61.784-54.543,111.454-111.675,151.412-168.548
		c0.785,243.487-133.37,358.905-133.37,358.905c134.9-119.91,182.865-257.806,182.865-257.806
		c-17.989,443.67-457.161,716.461-457.161,716.461c0-158.882,1.501-301.276,1.501-301.276
		C2280.145,3275.38,1999.998,3434.989,1999.998,3434.989"/>
	<path style="fill-rule:evenodd;clip-rule:evenodd;fill:#FFFFFF;" d="M1999.998,1462.828l-52.458,67.45
		c0,0-92.932-356.725-287.785-509.612c0,0,178.369,2.995,296.777,115.412c0,0-56.958-80.938-188.855-127.403
		c-131.905-46.463-164.876-35.972-244.32-79.44c0,0,179.871-62.948,328.255,0c0,0-137.899-77.943-412.187-52.46
		c0,0,121.704-82.795,276.086-106.777c154.386-23.982,230.827,70.45,230.827,70.45c-53.666,0-101.925,5.995-101.925,5.995
		c88.432,41.968,155.583,184.362,155.583,184.362s67.155-142.393,155.587-184.362c0,0-48.263-5.995-101.929-5.995
		c0,0,76.445-94.432,230.827-70.45c154.386,23.982,276.09,106.777,276.09,106.777c-274.288-25.483-412.19,52.46-412.19,52.46
		c148.385-62.948,328.255,0,328.255,0c-79.443,43.468-112.415,32.977-244.316,79.44
		c-131.901,46.465-188.859,127.403-188.859,127.403c118.408-112.417,296.777-115.412,296.777-115.412
		c-194.853,152.887-287.781,509.612-287.781,509.612L1999.998,1462.828z"/>
	<path style="fill-rule:evenodd;clip-rule:evenodd;fill:#CCCCCC;" d="M1046.292,909.378
		c58.455,104.923,170.874,188.858,398.702,254.81c-146.199-50.943-222.522-119.928-222.522-119.928
		c32.975-6.747,77.942-26.982,77.942-26.982c-162.712-13.11-217.338-206.848-217.338-206.848
		c82.442,64.45,364.229,193.36,364.229,193.36l-56.958,14.987c238.318,16.488,341.74,224.83,341.74,224.83
		c-50.765-13.177-106.417,4.497-106.417,4.497c94.425,52.46,160.376,200.845,160.376,200.845
		c-175.366-94.426-411.617-151.233-411.617-151.233c29.964,12.728,145.052,61.918,231.689,103.295
		c100.427,47.967,172.371,94.432,255.566,176.858c0,0,28.479-188.855-169.373-308.765c0,0,82.438,13.484,116.911,31.475
		c0,0-115.413-217.337-307.267-313.261c-191.858-95.93-430.18-221.83-544.096-313.262
		C957.86,674.055,987.836,804.453,1046.292,909.378"/>
	<path style="fill-rule:evenodd;clip-rule:evenodd;fill:#CCCCCC;" d="M1444.993,1164.188c0,0-232.32-25.483-352.23-40.473
		c0,0,50.956,106.422,383.703,154.388c-199.414-36.708-303.458-118.431-303.458-118.431
		C1214.228,1169.413,1444.993,1164.188,1444.993,1164.188"/>
	<path style="fill-rule:evenodd;clip-rule:evenodd;fill:#CCCCCC;" d="M1999.998,1462.828v-73.223
		c-24.622,15.963-47.579,32.362-47.579,32.362c-11.991-69.698-59.204-160.38-59.204-160.38
		c29.976,10.493,68.945,50.963,68.945,50.963c-46.464-85.436-130.404-203.85-130.404-203.85
		c62.956,7.493,124.776,27.378,124.776,27.378c-118.408-112.417-296.777-115.412-296.777-115.412
		c194.853,152.887,287.785,509.612,287.785,509.612L1999.998,1462.828z"/>
	<path style="fill-rule:evenodd;clip-rule:evenodd;fill:#CCCCCC;" d="M1439.427,876.774c274.288-25.483,412.187,52.46,412.187,52.46
		s-125.529-91.081-282.157-82.087c0,0,139.4-95.93,312.516-30.728l-37.557,30.023c0,0,48.259-5.995,101.925-5.995
		c0,0-76.44-94.432-230.827-70.45C1561.131,793.98,1439.427,876.774,1439.427,876.774"/>
	<path style="fill-rule:evenodd;clip-rule:evenodd;fill:#CCCCCC;" d="M1851.613,929.234c-148.385-62.948-328.255,0-328.255,0
		c79.443,43.468,112.415,32.977,244.32,79.44c124.056,43.702,181.816,117.903,188.253,126.572
		c-7.259-9.868-78.809-104.763-179.622-150.207c-106.421-47.963-151.392-47.211-151.392-47.211S1739.699,891.816,1851.613,929.234"
		/>
	<path style="fill-rule:evenodd;clip-rule:evenodd;fill:#CCCCCC;" d="M1844.415,846.443c0,0,115.479,103.375,155.583,224.783
		v-40.422C1999.998,1030.804,1932.847,888.411,1844.415,846.443"/>
	<polygon style="fill-rule:evenodd;clip-rule:evenodd;fill:#CCCCCC;" points="1872.223,1858.879 1963.654,1732.969 
		1912.693,1744.964 1999.998,1608.566 2087.307,1744.964 2036.342,1732.969 2127.773,1858.879 2105.292,1791.429 2219.488,1939.662 
		1999.998,1532.899 1780.507,1939.662 1894.708,1791.429 	"/>
	<polygon style="fill-rule:evenodd;clip-rule:evenodd;fill:#CCCCCC;" points="1900.295,2207.016 1834.344,1964.201 1831,2060.484 
		1757.155,1982.938 	"/>
	<path style="fill-rule:evenodd;clip-rule:evenodd;fill:#CCCCCC;" d="M1834.344,1964.201
		c52.462,112.417,165.654,398.702,165.654,398.702s113.192-286.285,165.653-398.702l-94.832,165.973l10.494-91.432l-81.315,164.876
		l-81.311-164.876l10.494,91.432L1834.344,1964.201z"/>
	<path style="fill-rule:evenodd;clip-rule:evenodd;fill:#CCCCCC;" d="M1153.51,1614.556c0,0-29.228,195.605,193.359,296.028
		c0,0,137.146,42.717,251.811,1.497c0,0-125.269,90.78-284.839,30.028c227.824,109.418,403.194-94.427,403.194-94.427
		c-43.469,22.483-301.274,85.432-407.698-77.943c-106.417-163.375-23.979-335.75-23.979-335.75s-68.945,106.423-59.953,236.821
		c8.997,130.402,148.389,224.833,148.389,224.833c-85.437-37.473-166.374-119.91-187.362-262.303
		c-20.98-142.393,91.545-281.956,91.553-281.961c-32.023-16.305-67.22-36.067-106.872-60.922
		c-5.306-3.327-10.494-6.662-15.605-10.007c-26.676,225.218-129.468,345.411-129.468,345.411l140.893-70.447
		c-43.469,41.968-139.396,233.827-139.396,233.827l94.43-76.447l-32.157,7.432L1153.51,1614.556z"/>
	<path style="fill-rule:evenodd;clip-rule:evenodd;fill:#CCCCCC;" d="M1744.696,1904.899
		c-231.608,177.09-430.855,37.21-430.855,37.21s68.254,73.398,215.894,68.901c0,0-66.337,23.23-117.493,18.552
		C1591.543,2052.519,1711.086,1966.488,1744.696,1904.899"/>
	<path style="fill-rule:evenodd;clip-rule:evenodd;fill:#CCCCCC;" d="M1641.75,2048.891
		c-79.439,20.98-241.321-20.987-241.321-20.987s98.584,34.815,187.769,46.058c89.181,11.24,116.907-8.243,144.641,20.235
		c23.454,24.095-40.336,47.585-101.009,35.892c25.037,7.072,51.697,12.703,74.369,13.233c64.453,1.497,85.437-3,56.962-47.967
		C1734.682,2050.387,1721.189,2027.904,1641.75,2048.891"/>
	<path style="fill-rule:evenodd;clip-rule:evenodd;fill:#CCCCCC;" d="M1787.14,2203.274
		c-173.873-11.243-242.073-104.174-242.073-104.174s53.621,90.275,167.537,129.247c113.916,38.972,143.864-19.483,287.394,361.228
		v-55.8c0,0-50.981-157.385-106.441-248.817C1838.096,2193.527,1787.14,2203.274,1787.14,2203.274"/>
	<path style="fill-rule:evenodd;clip-rule:evenodd;fill:#CCCCCC;" d="M1573.936,2421.699
		c-232.328-176.863-302.087-422.623-302.087-422.623c78.296,328.56,340.255,479.637,340.255,479.637l-14.99-85.432
		c335.746,116.91,402.885,314.763,402.885,314.763v-60.019c-164.49-233.825-427.559-292.28-427.559-292.28L1573.936,2421.699z"/>
	<path style="fill-rule:evenodd;clip-rule:evenodd;fill:#CCCCCC;" d="M1247.87,2256.882c5.994-74.943,23.979-257.807,23.979-257.807
		l-42.651,170.811c-152.885-208.341-107.231-457.091-107.231-457.091C1033.531,2021.564,1247.87,2256.882,1247.87,2256.882"/>
	<path style="fill-rule:evenodd;clip-rule:evenodd;fill:#CCCCCC;" d="M1360.329,2372.989c0,0,146.139,170.873,341.744,215.088
		l-10.494-53.21c0,0,145.089,0.032,308.419,379.218c163.334-379.187,308.418-379.218,308.418-379.218l-10.494,53.21
		c195.605-44.215,341.748-215.088,341.748-215.088c5.994,58.46,1.53,147.69,1.53,147.69
		c61.784-54.543,111.454-111.675,151.412-168.548c0.749,231.798-120.797,347.528-132.47,358.107
		c-0.297,0.268-0.598,0.533-0.899,0.798c0,0,93.591-116.212,101.835-264.6c0,0-23.165,42.07-119.877,74.243
		c0,0,50.96-169.37,34.473-257.807c0,0-85.437,169.37-340.242,295.281c0,0,4.5-41.972,11.991-76.441
		c0,0-79.435,10.493-178.361,109.417c-98.922,98.925-169.063,248.817-169.063,248.817s-70.138-149.892-169.063-248.817
		c-98.922-98.923-178.361-109.417-178.361-109.417c7.495,34.47,11.991,76.441,11.991,76.441
		c-254.805-125.912-340.242-295.281-340.242-295.281c-16.488,88.437,34.477,257.807,34.477,257.807
		c-61.788-54.543-111.454-111.675-151.416-168.548c-0.745,231.798,120.801,347.528,132.475,358.107
		c0.297,0.268,0.594,0.533,0.895,0.798c0,0-93.587-116.212-101.835-264.6c0,0,23.165,42.07,119.881,74.243
		C1358.8,2520.679,1354.332,2431.449,1360.329,2372.989"/>
	<path style="fill-rule:evenodd;clip-rule:evenodd;fill:#CCCCCC;" d="M2953.705,909.378
		c-58.456,104.923-170.87,188.858-398.702,254.81c146.204-50.943,222.526-119.928,222.526-119.928
		c-32.979-6.747-77.946-26.982-77.946-26.982c162.715-13.11,217.338-206.848,217.338-206.848
		c-82.438,64.45-364.229,193.36-364.229,193.36l56.958,14.987c-238.318,16.488-341.74,224.83-341.74,224.83
		c50.765-13.177,106.417,4.497,106.417,4.497c-94.426,52.46-160.372,200.845-160.372,200.845
		c175.362-94.426,411.613-151.233,411.613-151.233c-29.964,12.728-145.048,61.918-231.689,103.295
		c-100.423,47.967-172.371,94.432-255.562,176.858c0,0-28.479-188.855,169.368-308.765c0,0-82.434,13.484-116.911,31.475
		c0,0,115.413-217.337,307.267-313.261c191.858-95.93,430.184-221.83,544.096-313.262
		C3042.136,674.055,3012.16,804.453,2953.705,909.378"/>
	<path style="fill-rule:evenodd;clip-rule:evenodd;fill:#CCCCCC;" d="M2555.003,1164.188c0,0,232.324-25.483,352.234-40.473
		c0,0-50.956,106.422-383.708,154.388c199.418-36.708,303.458-118.431,303.458-118.431
		C2785.772,1169.413,2555.003,1164.188,2555.003,1164.188"/>
	<path style="fill-rule:evenodd;clip-rule:evenodd;fill:#CCCCCC;" d="M1999.998,1462.828v-73.223
		c24.626,15.963,47.579,32.362,47.579,32.362c11.991-69.698,59.208-160.38,59.208-160.38
		c-29.976,10.493-68.949,50.963-68.949,50.963c46.464-85.436,130.404-203.85,130.404-203.85
		c-62.952,7.493-124.776,27.378-124.776,27.378c118.408-112.417,296.777-115.412,296.777-115.412
		c-194.853,152.887-287.781,509.612-287.781,509.612L1999.998,1462.828z"/>
	<path style="fill-rule:evenodd;clip-rule:evenodd;fill:#CCCCCC;" d="M2560.573,876.774c-274.288-25.483-412.19,52.46-412.19,52.46
		s125.529-91.081,282.157-82.087c0,0-139.4-95.93-312.516-30.728l37.561,30.023c0,0-48.263-5.995-101.929-5.995
		c0,0,76.445-94.432,230.827-70.45C2438.869,793.98,2560.573,876.774,2560.573,876.774"/>
	<path style="fill-rule:evenodd;clip-rule:evenodd;fill:#CCCCCC;" d="M2148.383,929.234c148.385-62.948,328.255,0,328.255,0
		c-79.443,43.468-112.415,32.977-244.316,79.44c-124.06,43.702-181.82,117.903-188.253,126.572
		c7.255-9.868,78.808-104.763,179.618-150.207c106.425-47.963,151.396-47.211,151.396-47.211S2260.301,891.816,2148.383,929.234"/>
	<path style="fill-rule:evenodd;clip-rule:evenodd;fill:#CCCCCC;" d="M2155.585,846.443c0,0-115.479,103.375-155.587,224.783
		v-40.422C1999.998,1030.804,2067.153,888.411,2155.585,846.443"/>
	<polygon style="fill-rule:evenodd;clip-rule:evenodd;fill:#CCCCCC;" points="2099.705,2207.016 2165.651,1964.201 
		2168.996,2060.484 2242.844,1982.938 	"/>
	<path style="fill-rule:evenodd;clip-rule:evenodd;fill:#CCCCCC;" d="M2846.49,1614.556c0,0,29.224,195.605-193.359,296.028
		c0,0-137.146,42.717-251.815,1.497c0,0,125.269,90.78,284.843,30.028c-227.828,109.418-403.198-94.427-403.198-94.427
		c43.469,22.483,301.278,85.432,407.698-77.943c106.417-163.375,23.983-335.75,23.983-335.75s68.941,106.423,59.953,236.821
		c-8.996,130.402-148.388,224.833-148.388,224.833c85.433-37.473,166.374-119.91,187.362-262.303
		c20.98-142.393-91.549-281.956-91.557-281.961c32.027-16.305,67.224-36.067,106.877-60.922c5.306-3.327,10.49-6.662,15.604-10.007
		c26.672,225.218,129.468,345.411,129.468,345.411l-140.897-70.447c43.469,41.968,139.4,233.827,139.4,233.827l-94.434-76.447
		l32.161,7.432L2846.49,1614.556z"/>
	<path style="fill-rule:evenodd;clip-rule:evenodd;fill:#CCCCCC;" d="M2255.3,1904.899c231.612,177.09,430.859,37.21,430.859,37.21
		s-68.253,73.398-215.897,68.901c0,0,66.341,23.23,117.497,18.552C2408.457,2052.519,2288.91,1966.488,2255.3,1904.899"/>
	<path style="fill-rule:evenodd;clip-rule:evenodd;fill:#CCCCCC;" d="M2358.246,2048.891
		c79.439,20.98,241.325-20.987,241.325-20.987s-98.588,34.815-187.769,46.058c-89.18,11.24-116.911-8.243-144.641,20.235
		c-23.458,24.095,40.336,47.585,101.005,35.892c-25.033,7.072-51.693,12.703-74.365,13.233c-64.457,1.497-85.441-3-56.962-47.967
		C2265.318,2050.387,2278.811,2027.904,2358.246,2048.891"/>
	<path style="fill-rule:evenodd;clip-rule:evenodd;fill:#CCCCCC;" d="M2212.856,2203.274
		c173.873-11.243,242.073-104.174,242.073-104.174s-53.621,90.275-167.533,129.247c-113.916,38.972-143.864-19.483-287.398,361.228
		v-55.8c0,0,50.98-157.385,106.441-248.817S2212.856,2203.274,2212.856,2203.274"/>
	<path style="fill-rule:evenodd;clip-rule:evenodd;fill:#CCCCCC;" d="M2426.06,2421.699
		c232.328-176.863,302.087-422.623,302.087-422.623c-78.292,328.56-340.251,479.637-340.251,479.637l14.986-85.432
		c-335.746,116.91-402.885,314.763-402.885,314.763v-60.019c164.49-233.825,427.559-292.28,427.559-292.28L2426.06,2421.699z"/>
	<path style="fill-rule:evenodd;clip-rule:evenodd;fill:#CCCCCC;" d="M2752.13,2256.882
		c-5.994-74.943-23.983-257.807-23.983-257.807l42.651,170.811c152.889-208.341,107.231-457.091,107.231-457.091
		C2966.465,2021.564,2752.13,2256.882,2752.13,2256.882"/>
	<path style="fill-rule:evenodd;clip-rule:evenodd;fill:#CCCCCC;" d="M2386.448,2868.414l45.622,197.057
		c308.765-158.883,380.713-499.872,380.713-499.872c-53.959,68.197-153.54,145.437-153.54,145.437s0.313-0.265,0.899-0.798
		c134.216-119.722,181.966-257.008,181.966-257.008c-17.989,443.67-457.161,716.461-457.161,716.461
		C2384.947,3010.809,2386.448,2868.414,2386.448,2868.414c-106.303,406.967-386.45,566.575-386.45,566.575
		s-280.147-159.608-386.446-566.575l-45.626,197.057c-308.76-158.883-380.709-499.872-380.709-499.872
		c53.955,68.197,153.536,145.437,153.536,145.437s-0.309-0.265-0.895-0.798c-134.216-119.722-181.966-257.008-181.966-257.008
		c17.985,443.67,457.157,716.461,457.157,716.461c0-158.882-1.497-301.276-1.497-301.276s79.866,269.912,254.154,403.9
		c0,0-58.455-49.465-56.958-157.385c0,0,18.77,142.395,189.25,184.367c170.483-41.972,189.25-184.367,189.25-184.367
		c1.498,107.92-56.958,157.385-56.958,157.385C2306.582,3138.325,2386.448,2868.414,2386.448,2868.414"/>
	<path style="fill-rule:evenodd;clip-rule:evenodd;fill:#FFFFFF;" d="M1824.563,1623.666
		c-20.125,123.595-127.356,217.947-256.645,217.947c-143.62,0-260.05-116.428-260.05-260.057
		c0-74.281,31.144-141.278,81.091-188.668c29.679,10.777,87.061,32.792,156.254,65.24c-57.027,16.62-98.702,69.279-98.702,131.673
		c0,75.742,61.406,137.145,137.15,137.145c75.74,0,137.142-61.403,137.142-137.145c0-14.348-2.201-28.177-6.291-41.173
		C1751.797,1571.423,1789.057,1596.463,1824.563,1623.666"/>
	<path style="opacity:0.49;fill-rule:evenodd;clip-rule:evenodd;fill:#CCCCCC;" d="M1323.086,1493.688
		c0,0,54.472-41.783,147.4-26.045c0,0-126.656,129.651-2.246,275.792l-4.496-31.475c0,0,73.442,86.183,217.334,11.992
		l-32.222,42.719c0,0,85.433-35.972,100.419-136.398c0,0,30.965,23.488,56.685,56.125c8.704-19.743,15.031-40.777,18.604-62.73
		c-35.506-27.203-72.766-52.243-110.05-75.038c4.089,12.997,6.291,26.825,6.291,41.173c0,75.742-61.401,137.145-137.142,137.145
		c-75.745,0-137.15-61.403-137.15-137.145c0-62.395,41.675-115.053,98.702-131.673c-69.193-32.448-126.575-54.463-156.254-65.24
		C1359.748,1420.606,1336.973,1455.023,1323.086,1493.688"/>
	<path style="fill-rule:evenodd;clip-rule:evenodd;fill:#FFFFFF;" d="M1649.571,1553.819c22.969,0,41.593,18.62,41.593,41.59
		c0,22.975-18.624,41.593-41.593,41.593c-22.97,0-41.589-18.619-41.589-41.593
		C1607.981,1572.439,1626.601,1553.819,1649.571,1553.819"/>
	<path style="fill-rule:evenodd;clip-rule:evenodd;fill:#CCCCCC;" d="M1398.122,2596.284
		c-39.718-21.732-107.166-50.212-107.166-50.212c33.72,116.915,98.177,193.356,98.177,193.356
		c-70.447-2.248-114.669-23.981-114.669-23.981c78.691,169.37,266.056,247.313,266.056,247.313
		c-0.277-87.945,46.464-191.858,46.464-191.858c48.189,138.123,163.383,199.352,232.328,229.333
		c68.949,29.977,56.958,85.435,56.958,85.435c-32.975-1.497-37.476-11.995-37.476-11.995
		c34.477,125.91,134.896,50.963,134.896,50.963c-53.955-344.74-271.285-481.14-271.285-481.14l13.489,86.935
		c-179.862-62.953-308.769-220.333-308.769-220.333S1393.626,2564.059,1398.122,2596.284"/>
	<path style="fill-rule:evenodd;clip-rule:evenodd;fill:#FFFFFF;" d="M2175.433,1623.666
		c20.129,123.595,127.356,217.947,256.645,217.947c143.624,0,260.05-116.428,260.05-260.057c0-74.281-31.144-141.278-81.087-188.668
		c-29.679,10.777-87.065,32.792-156.258,65.24c57.031,16.62,98.702,69.279,98.702,131.673c0,75.742-61.401,137.145-137.146,137.145
		s-137.146-61.403-137.146-137.145c0-14.348,2.205-28.177,6.295-41.173C2248.199,1571.423,2210.939,1596.463,2175.433,1623.666"/>
	<path style="opacity:0.49;fill-rule:evenodd;clip-rule:evenodd;fill:#CCCCCC;" d="M2676.914,1493.688
		c0,0-54.476-41.783-147.404-26.045c0,0,126.656,129.651,2.25,275.792l4.496-31.475c0,0-73.446,86.183-217.338,11.992l32.227,42.719
		c0,0-85.437-35.972-100.423-136.398c0,0-30.961,23.488-56.681,56.125c-8.708-19.743-15.035-40.777-18.608-62.73
		c35.506-27.203,72.766-52.243,110.054-75.038c-4.089,12.997-6.295,26.825-6.295,41.173c0,75.742,61.401,137.145,137.146,137.145
		s137.146-61.403,137.146-137.145c0-62.395-41.671-115.053-98.702-131.673c69.193-32.448,126.579-54.463,156.258-65.24
		C2640.252,1420.606,2663.027,1455.023,2676.914,1493.688"/>
	<path style="fill-rule:evenodd;clip-rule:evenodd;fill:#FFFFFF;" d="M2350.429,1553.819c-22.969,0-41.597,18.62-41.597,41.59
		c0,22.975,18.628,41.593,41.597,41.593s41.585-18.619,41.585-41.593C2392.014,1572.439,2373.399,1553.819,2350.429,1553.819"/>
	<path style="fill-rule:evenodd;clip-rule:evenodd;fill:#CCCCCC;" d="M2601.874,2596.284c39.718-21.732,107.17-50.212,107.17-50.212
		c-33.724,116.915-98.177,193.356-98.177,193.356c70.447-2.248,114.665-23.981,114.665-23.981
		c-78.691,169.37-266.056,247.313-266.056,247.313c0.281-87.945-46.464-191.858-46.464-191.858
		c-48.189,138.123-163.379,199.352-232.324,229.333c-68.949,29.977-56.962,85.435-56.962,85.435
		c32.979-1.497,37.476-11.995,37.476-11.995c-34.473,125.91-134.896,50.963-134.896,50.963
		c53.959-344.74,271.285-481.14,271.285-481.14l-13.489,86.935c179.863-62.953,308.769-220.333,308.769-220.333
		S2606.37,2564.059,2601.874,2596.284"/>
</g>
</svg>
