<?xml version="1.0" encoding="utf-8"?>
<!-- Generator: Adobe Illustrator 27.5.0, SVG Export Plug-In . SVG Version: 6.00 Build 0)  -->
<svg version="1.1" xmlns="http://www.w3.org/2000/svg" xmlns:xlink="http://www.w3.org/1999/xlink" x="0px" y="0px"
	 viewBox="0 0 500 500" style="enable-background:new 0 0 500 500;" xml:space="preserve">
<g id="BACKGROUND">
	<rect style="fill:#FFFFFF;" width="500" height="500"/>
</g>
<g id="OBJECTS">
	<g>
		<path d="M232.814,291.103c0.05,0.152,0.112,0.272,0.197,0.323C233.208,291.545,233.067,291.369,232.814,291.103z"/>
		<path d="M414.57,135.153c0,0-7.64-9.627-29.388-3.287c-19.861,5.79-37.792,22.298-37.792,22.298s8.007-10.623,23.032-21.686
			c15.025-11.062,53.047-25.34,53.047-25.34s-5.35-17.369-38.196-0.823c-18.43,9.284-44.149,33.232-44.149,33.232
			s1.753-4.699,24.04-28.008c22.287-23.31,52.845-32.308,52.845-32.308c-3.106-5.496-20.55-11.469-39.072,1.886
			c-27.642,19.932-48.958,52.207-48.958,52.207s4.696-15.709,16.254-32.806c11.195-16.559,34.206-34.414,34.206-34.414
			c-7.262,0.79-31.731,6.412-44.001,21.82c-12.27,15.408-12.361,20.523-21.802,39.588c-2.255,4.554-8.995,8.52-7.935,15.13
			c1.317,0.86,4.048,3.035,6.216,7.37c2.966,5.933,5.221,13.407,2.848,23.73c0,0,9.103-2.005,14.323-0.344
			c0,0-5.143,5.326-6.555,13.571c-1.312,7.659,0.293,10.538,0.293,10.538s4.648-2.234,7.615-6.624c0,0,3.259,7.025,1.071,17.044
			c-1.807,8.27-6.292,13.174-7.726,15.235c2.398-0.16,5.849-2.284,6.976-3.503c0,0,0.259,7.475-4.012,14.119
			c-4.271,6.644-15.114,9.59-15.114,9.59s1.588,3.58,4.198,5.597c0,0-2.492,4.034-7.119,4.983c-4.627,0.949-13.17,0-13.17,0
			s2.729,3.322,2.966,7.594c0.039,0.705,0.064,1.332,0.081,1.898c0.083,2.869-0.081,4.034-0.081,4.034s-2.535-4.299-7.116-6.156
			c-1.208-0.49-2.551-0.819-4.037-0.844c-3.919-0.065-8.834-0.472-12.911-1.652c-2.572-0.744-4.795-1.803-6.234-3.277
			c1.534,0.52,3.831,1.177,6.476,1.539c2.149,0.294,4.526,0.393,6.911,0.062c3.623-0.503,6.952,0.081,9.478,0.841
			c1.132,0.34,2.105,0.713,2.863,1.044c1.161,0.507,1.834,0.908,1.834,0.908c0.173-2.069-2.836-6.763-4.03-8.535
			c-0.293-0.435-0.481-0.7-0.481-0.7s0.203,0.113,0.593,0.27c1.235,0.498,4.39,1.457,9.286,0.804
			c6.443-0.859,9.879-3.866,9.879-3.866c-2.792-2.792-3.866-7.088-3.866-7.088s3.651,0.43,10.738-3.651
			c7.087-4.081,8.591-12.457,8.591-12.457c-4.127,1.784-7.545,0.449-7.545,0.449s4.701-3.938,6.894-9.688
			c3.704-9.712,2.37-17.822,2.37-17.822c-2.577,3.866-6.418,4.081-6.418,4.081s-2.661-4.129-2.318-11.502
			c0.479-10.31,4.011-13.626,4.011-13.626c-4.081-0.859-12.672,4.94-12.672,4.94s-1.472-2.869,1.289-15.464
			c3.304-15.075-6.228-22.551-6.228-22.551c1.191,5.049,1.213,10.315-1.907,17.724c-0.733,1.741-1.637,3.598-2.743,5.601
			c-7.811,14.143-9.525,22.207-7.807,34.449c1.718,12.242-1.933,24.484-13.531,28.135c-7.012,2.208-11.478,0.205-14.738-2.902
			c2.018-0.044,3.845-1.059,4.617-2.749c1.857-4.067-1.661-7.46-1.661-7.46s0.959,1.86-0.46,4.318
			c-1.384,2.398-3.442,2.154-6.008-1.448c-3.275-4.596-4.343-8.925-5.161-17.368c0.014-9.819,3.54-17.564,8.214-20.018
			c7.09-3.717,10.006,1.891,10.267,2.432c0.009,0.009,0.009,0.019,0.009,0.028c0.009,0.009,0.009,0.019,0.009,0.019
			s2.371-5.085-1.856-9.721c-2.078-2.279-4.457-2.011-4.457-2.011s0.038-0.804-0.251-1.807c-0.453-1.858-1.734-4.592-5.376-5.42
			c-5.678-1.29-10.259,3.871-15.098,4.968c-4.839,1.097-7.743-2.258-6.968-3.807c0,0-2.194,1.548-0.839,4.581
			c0.795,1.779,2.152,3.085,4.421,3.553c-2.402,0.641-4.964,0.851-7.251-0.091c0,0,0.885,1.686,2.944,3.121
			c-4.565,1.798-8.394,2.124-12.345,0.252c0,0,1.957,2.348,4.957,4.621c2.515,1.919,5.767,3.783,9.196,4.165
			c-1.671-0.04-7.305,3.606-10.408,15.042l-0.001-0.003c-2.064,4.741-2.16,13.317-3.027,17.653c-0.867,4.336-3.675,4.76-5.549,2.722
			c-1.92-2.089-1.389-4.114-1.389-4.114s-2.694,4.077,0.004,7.643c1.66,2.194,5.251,2.424,7.836,0.392
			c-0.194,0.714-0.437,1.345-0.74,1.864c-0.566,0.968-1.596,1.787-2.951,2.309c-2.171,0.351-4.699,0.18-7.695-0.763
			c-11.598-3.651-15.249-15.893-13.531-28.135c1.718-12.242,0.003-20.305-7.807-34.449c-1.106-2.003-2.01-3.86-2.743-5.601
			c-3.12-7.409-3.098-12.675-1.906-17.724c0,0-9.533,7.476-6.228,22.551c2.761,12.594,1.289,15.464,1.289,15.464
			s-8.591-5.799-12.671-4.94c0,0,3.531,3.316,4.011,13.626c0.343,7.373-2.318,11.502-2.318,11.502s-3.841-0.215-6.418-4.081
			c0,0-1.335,8.111,2.37,17.822c2.193,5.75,6.894,9.688,6.894,9.688s-3.419,1.334-7.545-0.449c0,0,1.503,8.376,8.591,12.457
			c7.087,4.081,10.739,3.651,10.739,3.651s-1.074,4.296-3.866,7.088c0,0,3.436,3.007,9.879,3.866
			c4.897,0.653,8.051-0.305,9.286-0.804c0.39-0.157,0.593-0.27,0.593-0.27s-0.187,0.265-0.481,0.7
			c-1.183,1.755-4.139,6.372-4.028,8.471c0.001,0.02-0.004,0.045-0.002,0.064c0,0,1.831-1.089,4.697-1.951
			c2.527-0.76,5.856-1.344,9.478-0.841c1.316,0.183,2.626,0.227,3.9,0.188c3.692-0.114,7.042-0.986,9.161-1.683
			c-1.855,1.665-5.228,2.884-8.936,3.68c-3.321,0.714-6.901,1.092-9.883,1.142c-1.486,0.025-2.828,0.354-4.037,0.844
			c-4.582,1.857-7.116,6.156-7.116,6.156s-0.173-1.222-0.074-4.249c0.017-0.511,0.04-1.067,0.074-1.683
			c0.237-4.271,2.966-7.594,2.966-7.594s-8.543,0.949-13.17,0c-4.627-0.949-7.119-4.983-7.119-4.983
			c2.61-2.017,4.198-5.597,4.198-5.597s-10.842-2.945-15.114-9.59c-4.271-6.644-4.012-14.119-4.012-14.119
			c1.127,1.219,4.578,3.343,6.976,3.503c-1.434-2.061-5.92-6.965-7.726-15.235c-2.189-10.02,1.071-17.044,1.071-17.044
			c2.966,4.39,7.615,6.624,7.615,6.624s1.605-2.878,0.293-10.538c-1.412-8.244-6.555-13.571-6.555-13.571
			c5.221-1.661,14.323,0.344,14.323,0.344c-2.373-10.322-0.118-17.797,2.848-23.73c2.167-4.335,4.898-6.509,6.216-7.37
			c1.06-6.61-5.68-10.575-7.935-15.13c-9.442-19.064-9.532-24.18-21.802-39.588c-12.27-15.408-36.739-21.03-44.001-21.82
			c0,0,23.011,17.855,34.206,34.414c11.558,17.096,16.254,32.806,16.254,32.806s-21.315-32.275-48.957-52.207
			c-18.522-13.356-35.965-7.382-39.072-1.886c0,0,30.558,8.998,52.845,32.308s24.04,28.008,24.04,28.008
			s-25.719-23.948-44.149-33.232c-32.846-16.547-38.196,0.823-38.196,0.823s38.022,14.278,53.047,25.34
			c15.025,11.062,23.032,21.686,23.032,21.686s-17.931-16.508-37.792-22.298c-21.748-6.34-29.388,3.287-29.388,3.287
			s22.921,7.028,40.341,16.809c18.217,10.228,25.782,17.35,25.782,17.35s-26.373-14.383-40.146-13.988
			c-13.773,0.395-18.03,12.376-18.03,12.376s12.095,0.764,31.878,4.714c19.783,3.951,24.713,9.932,24.713,9.932
			s-17.385-5.618-32.91-0.087c-15.526,5.531-16.027,8.848-16.027,8.848s11.733,3.871,24.224,5.353
			c13.384,1.588,23.138,1.134,23.138,1.134s-22.03,5.625-32.337,13.506c-7.601,5.812-9.015,9.482-9.015,9.482
			s20.029,4.46,44.982-7.562c0,0-13.68,11.908-22.945,18.625c-9.265,6.716-10.768,10.667-10.768,10.667s7.012,3.556,20.283-1.975
			c13.272-5.531,22.036-12.248,22.036-12.248s-12.512,12.049-19.282,20.544c-5.075,6.368-7.521,10.775-8.263,12.248
			c0.009,0.003,9.615,3.798,18.126-0.941c8.514-4.741,12.424-10.121,12.424-10.121s-7.012,13.515-10.017,28.685
			c0,0,6.573-0.062,11.91-2.939c7.225-3.895,13.88-4.981,19.371-4.822c0,0-0.001-0.001-0.001-0.001
			c-5.532-4.225-4.167-10.051-4.167-10.051s0.109,2.071,4.808,5.763c3.474,2.729,6.801,4.288,9.174,5.761
			c0.242,0.15,0.457,0.301,0.678,0.45c0.027,0.018,0.054,0.036,0.08,0.054c0.424,0.206,0.936,0.544,1.364,1.069
			c0.589,0.723,1.016,1.804,0.808,3.425c-0.517,4.032-4.267,8.098-4.267,8.098s6.038-0.227,10.135-3.059
			c0.941-0.65,1.618-1.395,2.112-2.122c0.075,0.349,0.183,0.727,0.345,1.148c2.865,7.445,11.773,7.445,11.773,7.445
			s-3.773-8.511-3.996-14.476c-0.207-5.53,0-10.323,7.543-12.967c-0.154,0.554-0.388,1.14-0.737,1.796
			c-1.973,3.709-2.811,4.188-2.811,4.188s2.632,0,4.427-0.838c1.795-0.838,2.393-1.077,2.393-1.077s-1.675,3.35-2.752,5.983
			c-1.077,2.632-1.316,4.906-1.316,4.906s1.914-0.718,3.47-1.555c0,0,0,4.547,0.718,6.701c0.005,0.016,0.02,0.028,0.026,0.044
			c-0.231,1.17-0.317,2.332-0.202,3.669c0.277,3.222-0.865,5.743-0.865,5.743s0.791,0.072,2.171-1.286c0,0-2.477,5.251-3.826,7.525
			c-1.349,2.274-5.472,6.408-7.387,7.375c-0.662,0.334-1.602,0.56-2.579,0.706c-0.331-0.013-0.617-0.084-0.878-0.182
			c-0.77-1.055-0.833-1.022-2.107-1.178c-1.575-0.193-2.028-0.036-3.267-1.244c-1.239-1.208-2.066-2.213-3.871-2.079
			c-1.804,0.134-2.379-1.217-3.699-1.515c-3.181-0.718-2.889,4.182-2.889,4.182s2.19-1.69,2.612-1.403
			c0.422,0.287,0.861,0.925,1.818,0.813c0.956-0.112,2.635,0.041,3.339,0.504c0.704,0.462,1.31,1.464,2.158,1.989
			c0.516,0.32,0.763,0.523,1.296,0.772c-0.708,0.053-1.441-0.013-2.173-0.416c-1.872-1.031-2.632-2.309-4.02-1.966
			c-1.388,0.344-2.186,0.916-2.186,0.916s-2.553-0.504-3.202,0.906c-0.649,1.411-0.072,3.325-0.072,3.325s0.316-0.556,0.954-0.997
			c0.002-0.002,0.003-0.006,0.004-0.008c0.437-0.549,1.929-1.456,2.896-1.77c0.967-0.314,2.111-0.267,3.076,0.28
			c0.965,0.548,3.356,2.048,3.356,2.048s-1.003-0.34-1.946-0.714c-0.942-0.373-2.125-0.845-2.512-0.804
			c-0.387,0.041-1.141,0.336-1.637,0.699c0,0-1.185,1.015-1.445,2.741c-0.148,0.984,0.879,2.568,0.879,2.568
			s0.058-1.028,0.749-1.637c0.974-0.858,1.597-1.354,2.451-0.582s-0.015,1.351,1.8,0.257c1.815-1.094,5.023,1.828,6.52,1.22
			c1.497-0.608,0.609,1.797,0.414,2.698c-0.196,0.901-2.089,2.211-1.784,3.109c0.305,0.898,1.01,1.895,0.013,2.5
			c-0.997,0.605-1.496,0.808-1.496,0.808s1.305,0.893,2.848-0.365c1.544-1.258,1.042-1.555,2.285-2.912
			c1.243-1.356,1.191-1.706,1.185-3.006c-0.007-1.3,1.99-0.726,2.125-2.239c0,0,1.432-4.436,4.654-7.224s6.884-4.99,7.636-6.976
			c0.752-1.986,1.892-5.345,1.892-5.345s1.337,2.041,2.411,1.104c0,0-1.434-4.999,0.098-8.12c0.224-0.457,0.496-0.898,0.796-1.331
			c0,0,0-0.001,0-0.001c0.273-0.614,0.478-1.125,0.645-1.608c0.642-1.848,0.706-3.251,1.662-8.166
			c0.138-0.709,0.314-1.359,0.512-1.966c1.533-4.693,4.57-6.397,4.57-6.397s-2.815,2.262-3.273,7.848
			c-0.107,1.306-0.084,2.793,0.133,4.476c0.006,0.049,0.008,0.094,0.015,0.144c0.74,5.493,0.871,6.717,0.597,12.631
			c-0.873,17.296-7.595,23.39-22.147,35.54c0,0-14.588,10.372-16.63,18.739c-2.041,8.366-6.743,13.572-6.743,13.572
			s5.45-0.702,9.094-5.671c0.325,3.146,1.356,6.099,2.909,8.799l-0.001-0.001c3.493,6.537,7.919,10.302,12.218,15.427
			c4.298,5.125,6.14,9.681,6.14,9.681s-0.687-5.369-2.628-10.002c6.106,4.766,9.758,7.538,12.928,11.461
			c4.716,5.837,1.301,14.122,1.301,14.122s8.199-9.71,3.053-19.036c-7.941-14.391-10.741-12.892-14.777-25.964
			c3.609,5.081,7.563,6.582,7.563,6.582s-2.299-3.379-5.364-8.071c-3.064-4.693-2.535-14.22,0.172-21.518
			c0,0-0.001,0.002-0.001,0.002c2.173-4.498,5.069-8.627,8.011-12.251c1.255-1.546,2.398-3.283,3.424-5.149
			c-0.002,0.015-0.005,0.03-0.007,0.045l0.027-0.081c0.184-0.326,0.37-0.692,0.556-1.074c1.921-3.947,3.823-10.446,3.823-10.446
			s-0.008,0.151-0.026,0.423c-0.134,1.994-0.855,10.698-3.58,17.43c-0.926,2.287-1.926,4.308-2.874,6.027
			c-1.743,11.544,0.131,18.363,3.02,25.793c3.171,8.155,3.929,10.722,3.929,10.722s3.924-4.832,2.565-20.085
			c-1.359-15.252-1.136-21.304,0.029-36.406c0.033-0.432,0.068-0.829,0.102-1.246c0.3,7.678,1.217,15.073,2.061,19.966
			c1.755,10.17,1.755,17.687,1.755,17.687s0.997-2.946,2.048-7.582c1.049-4.626,2.153-10.936,2.374-17.681
			c0.27-8.242,0.143-19.383,0.002-26.818c1.107,10.032,3.031,29.253,2.713,38.962c-0.225,6.86-2.516,13.86-4.716,19.091
			c-0.089,22.51-4.587,33.535-10.031,51.877l-0.001-0.001c-0.005,0.017-0.01,0.037-0.015,0.054
			c-0.692,2.331-1.398,4.776-2.113,7.383c-0.21,0.765-0.402,1.521-0.585,2.271c-1.23,4.071-2.73,8.313-4.439,11.079
			c-3.331,5.389-4.614,7.442-4.614,7.442s3.174,1.544,6.947-2.913c-0.424,16.131,4.819,26.279,4.819,26.279
			c-1.193-13.008-0.337-26.694,6.678-42.295c0.588,4.966,2.799,7.252,2.799,7.252s-0.328-2.31,0-6.929
			c0.194-2.736,1.037-6.475,2.352-10.208c0.122-0.206,0.238-0.41,0.362-0.616c1.84-3.064,3.41-5.867,4.756-8.5
			c-0.607-1.245-1.099-2.54-1.383-3.855c-1.794-8.29,2.745-16.879,8.229-22.221c0.039-6.351-0.791-13.515-1.987-22.935
			c-1.328-10.456-2.751-21.352-3.859-31.579c1.426,3.276,3.179,6.312,5.228,8.836c0.686,0.845,1.369,1.717,2.041,2.614l-0.001-0.001
			c2.562,3.649,4.425,8.666,4.712,14.551c0.287,5.885-0.669,9.879-0.669,9.879s3.024-4.905,3.916-9.939
			c1.857,5.565,2.387,11.577,0.484,17.825c-2.068,6.791-3.802,9.726-6.044,12.843c-1.273,1.77-2.713,3.604-4.469,6.23
			c-1.27,1.898-2.703,4.206-4.365,7.217c-1.834,3.325-1.969,6.695-1.388,9.66c0.247,1.26,0.621,2.446,1.054,3.523
			c1.403,3.499,3.387,5.852,3.387,5.852s-0.352-0.863-0.675-2.22c-0.68-2.862-1.224-7.943,1.976-11.903
			c1.813-2.243,3.787-4.11,6.28-6.185c3.59-2.989,8.263-6.414,15.154-12.052c7.054-5.772,11.787-14.094,9.769-23.676
			c3.95,2.659,6.064,5.591,6.064,5.591s-1.293-6.461-4.553-11.422c-2.753-4.19-8.095-7.953-12.868-11.997
			c-0.812-0.753-1.653-1.508-2.561-2.266c-14.55-12.148-21.273-18.242-22.146-35.535l-0.018-0.005
			c-0.275-5.914-0.143-7.138,0.597-12.631c0.034-0.254,0.049-0.487,0.074-0.732c0.127-1.221,0.156-2.337,0.103-3.347
			c-0.315-5.976-3.303-8.388-3.303-8.388s3.103,1.745,4.619,6.558c0.177,0.562,0.338,1.156,0.464,1.804
			c0.961,4.941,1.02,6.332,1.672,8.195c0.081,0.231,0.172,0.472,0.274,0.725c0.552,0.703,1.059,1.423,1.433,2.185
			c1.531,3.121,0.098,8.12,0.098,8.12c1.075,0.937,2.411-1.104,2.411-1.104s1.14,3.359,1.892,5.345
			c0.752,1.986,4.414,4.188,7.636,6.976c3.222,2.788,4.654,7.224,4.654,7.224c0.135,1.512,2.132,0.939,2.125,2.239
			c-0.007,1.3-0.058,1.65,1.185,3.006c1.243,1.356,0.742,1.654,2.285,2.912c1.544,1.258,2.848,0.365,2.848,0.365
			s-0.499-0.203-1.496-0.808c-0.997-0.605-0.292-1.602,0.013-2.5c0.305-0.898-1.589-2.208-1.784-3.109
			c-0.195-0.901-1.083-3.306,0.414-2.698c1.497,0.608,4.705-2.314,6.52-1.22c1.815,1.094,0.946,0.515,1.8-0.257
			c0.854-0.772,1.477-0.276,2.451,0.582c0.692,0.609,0.749,1.637,0.749,1.637s1.027-1.584,0.879-2.568
			c-0.26-1.726-1.445-2.741-1.445-2.741c-0.496-0.363-1.25-0.658-1.637-0.699c-0.387-0.041-1.569,0.43-2.512,0.804
			c-0.942,0.373-1.945,0.714-1.945,0.714s2.391-1.501,3.355-2.048c0.965-0.548,2.109-0.594,3.076-0.28
			c0.967,0.314,2.458,1.222,2.895,1.77c0.002,0.002,0.003,0.005,0.004,0.008c0.639,0.442,0.954,0.997,0.954,0.997
			s0.577-1.915-0.072-3.325c-0.649-1.41-3.202-0.906-3.202-0.906s-0.799-0.572-2.187-0.916c-1.388-0.344-2.147,0.934-4.02,1.966
			c-0.732,0.403-1.464,0.468-2.172,0.416c0.533-0.249,0.779-0.452,1.296-0.772c0.848-0.525,1.454-1.526,2.158-1.989
			c0.705-0.462,2.383-0.616,3.339-0.504c0.956,0.112,1.396-0.526,1.818-0.813c0.422-0.287,2.612,1.403,2.612,1.403
			s0.292-4.899-2.889-4.182c-1.32,0.298-1.895,1.649-3.699,1.515c-1.804-0.134-2.632,0.871-3.871,2.079
			c-1.239,1.208-1.691,1.05-3.267,1.244c-1.274,0.156-1.337,0.124-2.107,1.178c-0.261,0.097-0.547,0.169-0.878,0.182
			c-0.977-0.146-1.917-0.372-2.579-0.706c-1.915-0.967-6.038-5.1-7.387-7.375s-3.826-7.525-3.826-7.525
			c1.38,1.358,2.171,1.286,2.171,1.286s-1.142-2.521-0.865-5.743c0.107-1.243,0.044-2.333-0.15-3.42
			c0.069-0.092,0.135-0.186,0.171-0.294c0.718-2.154,0.718-6.701,0.718-6.701c1.556,0.838,3.47,1.555,3.47,1.555
			s-0.239-2.273-1.316-4.906c-1.077-2.632-2.752-5.983-2.752-5.983s0.598,0.239,2.393,1.077c1.795,0.838,4.427,0.838,4.427,0.838
			s-0.838-0.479-2.811-4.188c-0.424-0.797-0.678-1.492-0.823-2.151c0.347,0.12,0.689,0.239,1.019,0.354
			c7.548,2.644,7.755,7.438,7.548,12.969c-0.223,5.965-3.996,14.476-3.996,14.476s8.908,0,11.773-7.445
			c0.162-0.421,0.27-0.799,0.345-1.148c0.494,0.728,1.171,1.472,2.112,2.122c4.097,2.832,10.802,0.231,10.802,0.231
			s-3.827-3.86-5.017-7.747c-0.726-2.373,0.348-3.89,1.562-4.81c0.079-0.038,0.157-0.075,0.242-0.113
			c0.111-0.091,0.207-0.184,0.327-0.273c0.488-0.365,1.06-0.727,1.673-1.094c2.339-1.402,5.474-2.933,8.752-5.509
			c4.699-3.692,4.808-5.763,4.808-5.763s1.364,5.826-4.167,10.051c-0.308,0.235-0.602,0.462-0.888,0.684
			c5.589,0.171,12.983,1.987,22.008,7.659c5.133,3.226,11.909,2.939,11.909,2.939c-3.005-15.169-10.017-28.685-10.017-28.685
			s3.91,5.381,12.424,10.121c8.51,4.739,18.117,0.944,18.126,0.941c-0.742-1.472-3.188-5.879-8.263-12.248
			c-6.77-8.495-19.282-20.544-19.282-20.544s8.765,6.716,22.036,12.248c13.272,5.531,20.284,1.975,20.284,1.975
			s-1.502-3.951-10.768-10.667c-9.265-6.716-22.945-18.625-22.945-18.625c24.953,12.023,44.982,7.562,44.982,7.562
			s-1.414-3.67-9.015-9.482c-10.308-7.881-32.337-13.506-32.337-13.506s9.754,0.454,23.138-1.134
			c12.491-1.482,24.224-5.353,24.224-5.353s-0.501-3.317-16.027-8.848c-15.526-5.531-32.91,0.087-32.91,0.087
			s4.93-5.981,24.713-9.932c19.783-3.951,31.878-4.714,31.878-4.714s-4.257-11.981-18.03-12.376
			c-13.773-0.395-40.146,13.988-40.146,13.988s7.566-7.122,25.782-17.35C391.649,142.181,414.57,135.153,414.57,135.153z
			 M164.199,101.536l-1.842-3.12c-0.613-1.042-1.297-2.037-1.937-3.063c-1.226-2.091-2.685-4.019-3.993-6.069
			c3.154,3.686,6.046,7.61,8.652,11.716c2.605,4.105,5.013,8.339,7.173,12.694c2.154,4.358,4.169,8.784,5.935,13.31
			c0.875,2.266,1.733,4.537,2.532,6.83c0.764,2.305,1.528,4.609,2.149,6.956c-0.907-2.251-1.791-4.504-2.76-6.724
			c-0.922-2.237-1.881-4.458-2.868-6.665c-1.983-4.41-4.016-8.793-6.186-13.107C168.935,109.953,166.579,105.738,164.199,101.536z
			 M155.541,124.899c-3.497-4.744-7.211-9.316-11.117-13.728c-2.04-2.118-3.999-4.332-6.203-6.289
			c-2.064-2.12-4.414-3.902-6.651-5.85c2.415,1.702,4.864,3.395,7.09,5.361c2.31,1.875,4.366,4.02,6.516,6.073
			c4.119,4.284,7.898,8.88,11.445,13.641c3.475,4.814,6.747,9.771,9.72,14.902c2.974,5.127,5.77,10.364,8.127,15.799
			c-1.432-2.591-2.867-5.174-4.4-7.702c-1.485-2.553-3.018-5.077-4.605-7.566C162.296,134.561,159.018,129.658,155.541,124.899z
			 M143.832,135.792c-4.225-3.715-8.629-7.21-13.143-10.564c-2.314-1.593-4.585-3.262-7.01-4.689
			c-2.332-1.593-4.858-2.835-7.303-4.264c2.574,1.153,5.178,2.288,7.636,3.697c2.511,1.322,4.862,2.905,7.267,4.41
			c4.692,3.182,9.163,6.684,13.437,10.404c4.232,3.767,8.314,7.7,12.158,11.855c3.844,4.151,7.549,8.438,10.891,12.999
			c-1.891-2.1-3.776-4.198-5.742-6.222c-1.925-2.059-3.888-4.082-5.888-6.065C152.134,143.387,148.056,139.507,143.832,135.792z
			 M146.709,190.078c-3.688-0.426-7.378-0.8-11.08-1.055c-1.85-0.124-3.701-0.267-5.554-0.337l-2.78-0.141l-2.783-0.09
			c-3.713-0.126-7.43-0.157-11.166-0.224c1.852-0.229,3.711-0.413,5.573-0.569c1.864-0.105,3.73-0.246,5.598-0.253
			c3.738-0.117,7.478,0.046,11.21,0.277c3.729,0.284,7.449,0.719,11.133,1.36c3.683,0.634,7.344,1.461,10.889,2.642
			C154.08,191.011,150.393,190.535,146.709,190.078z M148.242,206.836c-3.6,0.904-7.186,1.857-10.739,2.924
			c-1.775,0.537-3.556,1.057-5.316,1.646l-2.651,0.85l-2.636,0.899c-3.519,1.193-7.007,2.476-10.526,3.733
			c1.651-0.868,3.326-1.696,5.013-2.5c1.706-0.756,3.403-1.547,5.148-2.214c3.456-1.429,7.013-2.597,10.586-3.698
			c3.589-1.051,7.223-1.957,10.897-2.658c3.67-0.707,7.387-1.226,11.121-1.373C155.467,205.106,151.85,205.962,148.242,206.836z
			 M153.833,224.43c-2.351,2.111-4.912,3.97-7.549,5.693c-2.638,1.728-5.401,3.246-8.209,4.659
			c-1.414,0.688-2.851,1.327-4.283,1.969c-1.469,0.565-2.916,1.171-4.396,1.696l8.187-4.588c2.684-1.587,5.384-3.136,7.972-4.859
			c2.615-1.678,5.164-3.458,7.611-5.37c1.217-0.964,2.424-1.943,3.578-2.986c1.181-1.017,2.285-2.117,3.311-3.304
			C158.412,220.032,156.18,222.334,153.833,224.43z M154.607,177.853c-1.83-1.077-3.697-2.085-5.582-3.054
			c-3.782-1.914-7.637-3.67-11.587-5.177c-3.929-1.566-7.988-2.772-12.092-3.781l-3.096-0.702l-3.132-0.53l-1.569-0.281
			l-1.583-0.167c-1.057-0.104-2.115-0.224-3.177-0.356c4.255-0.069,8.573,0.124,12.775,1.013c4.21,0.814,8.36,1.987,12.354,3.554
			c3.995,1.56,7.892,3.374,11.596,5.525c3.702,2.146,7.287,4.512,10.538,7.283C158.262,180.021,156.465,178.887,154.607,177.853z
			 M158.316,167.25c-1.931-1.704-3.899-3.363-5.91-4.966c-4.018-3.211-8.153-6.269-12.439-9.098
			c-2.105-1.474-4.325-2.768-6.493-4.145c-2.234-1.264-4.426-2.611-6.712-3.784c-1.137-0.598-2.262-1.224-3.412-1.799l-3.489-1.649
			c-0.581-0.278-1.152-0.579-1.741-0.839l-1.777-0.757c-1.188-0.5-2.371-1.015-3.553-1.543c4.926,1.54,9.805,3.343,14.439,5.669
			l1.758,0.832c0.582,0.285,1.142,0.612,1.714,0.917l3.416,1.859c2.209,1.356,4.456,2.655,6.593,4.124
			c4.308,2.884,8.464,6.001,12.354,9.425c1.945,1.711,3.85,3.465,5.698,5.277c1.807,1.853,3.611,3.711,5.241,5.719
			C162.152,170.69,160.266,168.934,158.316,167.25z M162.261,241.468c-1.306,1.815-2.847,3.444-4.472,4.966
			c-1.63,1.521-3.411,2.863-5.249,4.105c-0.923,0.615-1.887,1.168-2.836,1.734c-0.995,0.496-1.965,1.025-2.975,1.479l5.195-4.058
			c0.823-0.72,1.718-1.345,2.516-2.087l1.243-1.056l1.198-1.103c1.601-1.464,3.133-3,4.565-4.63
			c0.698-0.828,1.405-1.655,2.046-2.535c0.677-0.859,1.271-1.773,1.811-2.739C164.71,237.693,163.559,239.66,162.261,241.468z
			 M172.186,253.815c-0.377,2.014-1.062,3.962-1.921,5.822c-0.933,1.822-1.98,3.593-3.292,5.157
			c-0.603,0.821-1.359,1.517-2.042,2.262c-0.735,0.699-1.512,1.355-2.299,1.984c0.577-0.84,1.216-1.608,1.801-2.415l0.859-1.221
			c0.293-0.4,0.583-0.801,0.836-1.227c0.263-0.419,0.529-0.835,0.804-1.243c0.264-0.416,0.492-0.853,0.74-1.278
			c0.523-0.834,0.93-1.729,1.384-2.599c0.845-1.77,1.549-3.602,2.115-5.486c0.549-1.889,0.979-3.824,1.147-5.837
			C172.708,249.732,172.562,251.811,172.186,253.815z M223.948,373.212c0.266-0.37,0.646-0.7,1.275-0.894
			c0.436,0.505,0.641,0.879,0.798,1.227c0.138,0.344,0.212,0.648,0.2,0.949c-0.005,0.301-0.083,0.596-0.242,0.925
			c-0.165,0.336-0.402,0.678-0.82,1.189c-0.649-0.177-1.018-0.552-1.273-0.935c-0.244-0.391-0.357-0.822-0.344-1.246
			C223.561,374.004,223.683,373.583,223.948,373.212z M218.196,333.276c0.932-0.058,1.886,0.018,2.856,0.381
			c-0.752,0.724-1.513,1.197-2.27,1.636c-0.759,0.424-1.517,0.782-2.289,1.09c-0.769,0.316-1.556,0.575-2.379,0.802
			c-0.831,0.227-1.679,0.402-2.703,0.532c0.325-1.003,0.983-1.753,1.689-2.38c0.72-0.618,1.535-1.094,2.395-1.441
			C216.357,333.555,217.266,333.341,218.196,333.276z M209.414,344.189c0.72-0.618,1.535-1.094,2.395-1.441
			c0.862-0.341,1.771-0.556,2.701-0.621c0.932-0.058,1.886,0.018,2.856,0.381c-0.752,0.724-1.513,1.197-2.269,1.636
			c-0.759,0.424-1.517,0.782-2.29,1.09c-0.769,0.316-1.556,0.575-2.38,0.802c-0.83,0.227-1.679,0.402-2.703,0.532
			C208.049,345.566,208.708,344.816,209.414,344.189z M208.723,353.898c0.633-0.801,1.384-1.482,2.205-2.051
			c0.822-0.569,1.72-1.018,2.67-1.342c0.956-0.313,1.963-0.511,3.065-0.438c-0.616,0.925-1.312,1.61-2.016,2.258
			c-0.708,0.638-1.441,1.2-2.194,1.726c-0.752,0.527-1.535,1-2.358,1.447c-0.829,0.448-1.688,0.846-2.717,1.231
			C207.555,355.621,208.106,354.706,208.723,353.898z M212.311,362.364c0.268-0.732,0.671-1.385,1.162-1.954
			c0.493-0.568,1.079-1.048,1.744-1.422c0.672-0.366,1.415-0.638,2.312-0.674c-0.183,0.885-0.503,1.554-0.847,2.18
			c-0.35,0.617-0.747,1.163-1.182,1.669c-0.433,0.508-0.915,0.966-1.456,1.401c-0.548,0.437-1.142,0.828-1.937,1.237
			C211.891,363.912,212.058,363.097,212.311,362.364z M220.768,369.195c-0.073,0.576-0.212,1.138-0.413,1.72
			c-0.206,0.587-0.473,1.167-0.9,1.887c-0.675-0.526-1.004-1.22-1.208-1.899c-0.192-0.687-0.227-1.391-0.134-2.072
			c0.101-0.679,0.319-1.34,0.678-1.941c0.363-0.599,0.845-1.15,1.576-1.56c0.313,0.787,0.403,1.444,0.46,2.076
			C220.867,368.032,220.852,368.62,220.768,369.195z M223.902,328.811c-0.445,0.307-0.896,0.522-1.362,0.674
			c-0.465,0.153-0.949,0.231-1.475,0.247c-0.533,0.013-1.083-0.046-1.825-0.22c0.138-0.768,0.545-1.293,0.979-1.711
			c0.446-0.41,0.959-0.695,1.502-0.868c0.543-0.174,1.118-0.232,1.704-0.168c0.588,0.076,1.187,0.257,1.798,0.717
			C224.79,328.118,224.346,328.494,223.902,328.811z M273.265,375.673c-0.254,0.383-0.623,0.758-1.272,0.935
			c-0.418-0.511-0.655-0.853-0.82-1.189c-0.159-0.329-0.237-0.624-0.242-0.925c-0.012-0.301,0.062-0.605,0.2-0.949
			c0.158-0.348,0.362-0.722,0.798-1.227c0.629,0.194,1.01,0.525,1.276,0.894c0.265,0.371,0.388,0.792,0.405,1.215
			C273.622,374.851,273.509,375.282,273.265,375.673z M278.905,370.902c-0.204,0.679-0.533,1.374-1.208,1.899
			c-0.426-0.719-0.693-1.299-0.9-1.887c-0.201-0.581-0.34-1.143-0.413-1.72c-0.084-0.575-0.1-1.163-0.06-1.79
			c0.057-0.632,0.147-1.289,0.46-2.076c0.731,0.41,1.213,0.961,1.575,1.56c0.359,0.601,0.577,1.261,0.678,1.941
			C279.131,369.51,279.097,370.215,278.905,370.902z M285.046,364.801c-0.794-0.409-1.389-0.799-1.937-1.237
			c-0.541-0.435-1.023-0.893-1.456-1.401c-0.435-0.506-0.832-1.052-1.182-1.669c-0.344-0.626-0.664-1.295-0.847-2.18
			c0.897,0.036,1.64,0.308,2.312,0.674c0.665,0.374,1.251,0.854,1.744,1.422c0.492,0.568,0.894,1.222,1.162,1.954
			C285.095,363.097,285.262,363.912,285.046,364.801z M289.428,346.569c-1.023-0.13-1.872-0.306-2.703-0.532
			c-0.824-0.227-1.61-0.486-2.38-0.802c-0.773-0.308-1.53-0.666-2.289-1.09c-0.756-0.439-1.518-0.911-2.27-1.636
			c0.97-0.363,1.924-0.439,2.856-0.381c0.931,0.065,1.839,0.279,2.702,0.621c0.86,0.347,1.675,0.822,2.395,1.441
			C288.444,344.816,289.103,345.566,289.428,346.569z M287.057,355.498c-0.823-0.447-1.606-0.921-2.358-1.447
			c-0.753-0.525-1.487-1.087-2.194-1.726c-0.704-0.648-1.4-1.333-2.016-2.258c1.102-0.072,2.109,0.125,3.065,0.438
			c0.95,0.324,1.849,0.773,2.67,1.342c0.821,0.569,1.572,1.25,2.205,2.051c0.617,0.807,1.168,1.723,1.345,2.831
			C288.745,356.345,287.887,355.946,287.057,355.498z M278.956,333.276c0.931,0.065,1.839,0.279,2.701,0.62
			c0.86,0.347,1.675,0.822,2.395,1.441c0.706,0.626,1.365,1.377,1.689,2.38c-1.023-0.13-1.872-0.306-2.703-0.532
			c-0.824-0.227-1.61-0.486-2.38-0.802c-0.773-0.308-1.53-0.666-2.289-1.09c-0.756-0.439-1.518-0.911-2.27-1.636
			C277.07,333.294,278.024,333.218,278.956,333.276z M273.727,326.765c0.586-0.064,1.161-0.006,1.704,0.168
			c0.543,0.173,1.056,0.458,1.502,0.868c0.434,0.418,0.841,0.943,0.979,1.711c-0.741,0.174-1.291,0.232-1.824,0.22
			c-0.525-0.016-1.009-0.094-1.474-0.247c-0.466-0.152-0.916-0.366-1.362-0.674c-0.444-0.317-0.888-0.693-1.322-1.329
			C272.54,327.022,273.139,326.841,273.727,326.765z M212.458,246.895c-0.533,1.279-3.623,1.812-3.623,1.812s0.32-0.853,1.172-2.238
			c0.853-1.385,2.581-2.119,2.581-2.119S212.991,245.616,212.458,246.895z M282.427,251.318c0,0-0.135-0.089-0.329-0.234
			c-0.548-0.408-1.588-1.28-1.58-2.027c0.011-1.012,0.647-1.745,0.647-1.745s0.948,0.991,1.121,2.166
			c0.118,0.803,0.14,1.361,0.143,1.638C282.43,251.244,282.427,251.318,282.427,251.318z M287.359,246.895
			c-0.533-1.279-0.13-2.545-0.13-2.545s1.728,0.733,2.581,2.119c0.853,1.385,1.172,2.238,1.172,2.238
			S287.891,248.174,287.359,246.895z M295.344,244.769c-0.524-0.277-0.961-0.654-1.165-1.178c-0.746-1.918,0-3.897,0-3.897
			c1.176,0.907,1.833,1.667,2.437,2.6c0.217,0.334,0.428,0.69,0.653,1.084c0.852,1.492,1.492,2.131,1.492,2.131
			S296.737,245.506,295.344,244.769z M299.268,236.964C299.268,236.964,299.268,236.964,299.268,236.964
			c-1.274-1.615-0.696-3.261-0.696-3.261c0.526,0.127,1.153,0.391,1.807,0.736c1.019,0.538,2.102,1.275,2.972,2.024
			c1.428,1.229,1.822,1.982,1.822,1.982S300.543,238.578,299.268,236.964z M307.119,232.894c-1.756-0.906-2.987-3.14-2.987-3.14
			c3.172,0,4.983,1.587,6.794,2.105C310.926,231.859,308.875,233.799,307.119,232.894z M309.301,225.166
			c-1.763-1.553-1.745-2.701-1.745-2.701c1.952-0.369,5.549,1.859,6.741,2.764C314.297,225.23,311.063,226.719,309.301,225.166z
			 M321.377,214.894c0,0-4.787,3.24-8.022,3.098c-3.235-0.143-4.529-1.569-4.529-1.569c1.811-0.713,5.354-1.325,8.305-1.528
			C320.083,214.69,321.377,214.894,321.377,214.894z M319.797,206.715c0,0-2.151,2.762-5.593,3.368
			c-3.442,0.606-5.08-0.687-5.08-0.687c1.829-1.212,5.51-2.796,7.339-2.645C318.292,206.902,319.797,206.715,319.797,206.715z
			 M315.296,197.368c0,0-1.746,4.005-3.883,4.945c-0.785,0.345-1.515,0.521-2.127,0.607c-1.055,0.15-1.756,0.031-1.756,0.031
			c0.714-1.07,1.569-1.94,2.428-2.64c1.174-0.957,2.357-1.588,3.201-1.892C314.621,197.894,315.296,197.368,315.296,197.368z
			 M312.456,186.385c0,0-1.166,4.268-3.033,6.925c-0.289,0.411-0.593,0.786-0.913,1.097c-0.093,0.09-0.175,0.158-0.265,0.242
			c-2.237,2.087-3.681,2.346-3.681,2.346c0.578-3.237,1.985-5.745,3.755-7.444c0.101-0.097,0.206-0.186,0.309-0.277
			c0.112-0.1,0.221-0.208,0.336-0.301C311.033,187.29,312.456,186.385,312.456,186.385z M301.838,183.424
			c0.208-4.187,2.356-7.203,3.612-10.038c0.268-0.606,0.498-1.204,0.657-1.803c0,0,0.801,3.784,0.03,7.514
			c-0.098,0.476-0.219,0.951-0.373,1.416c-1.366,4.12-3.354,10.264-3.354,10.264S301.584,188.505,301.838,183.424z M191.037,188.972
			c0.115,0.093,0.223,0.201,0.336,0.301c0.103,0.092,0.208,0.18,0.309,0.277c1.769,1.699,3.177,4.207,3.755,7.444
			c0,0-1.444-0.259-3.681-2.346c-0.09-0.084-0.173-0.151-0.265-0.242c-0.32-0.312-0.624-0.687-0.913-1.097
			c-1.867-2.657-3.033-6.925-3.033-6.925S188.967,187.29,191.037,188.972z M186.842,198.42c0.845,0.304,2.027,0.935,3.201,1.892
			c0.859,0.7,1.713,1.57,2.428,2.64c0,0-0.701,0.118-1.756-0.031c-0.612-0.087-1.342-0.263-2.127-0.607
			c-2.138-0.939-3.883-4.945-3.883-4.945S185.379,197.894,186.842,198.42z M183.537,206.751c1.829-0.151,5.51,1.433,7.339,2.645
			c0,0-1.638,1.293-5.08,0.687c-3.442-0.606-5.593-3.368-5.593-3.368S181.708,206.902,183.537,206.751z M178.623,214.894
			c0,0,1.294-0.204,4.245,0c2.951,0.204,6.494,0.815,8.305,1.528c0,0-1.294,1.427-4.529,1.569
			C183.41,218.134,178.623,214.894,178.623,214.894z M185.703,225.23c1.192-0.906,4.79-3.133,6.741-2.764
			c0,0,0.018,1.148-1.745,2.701C188.937,226.719,185.703,225.23,185.703,225.23z M192.881,232.894
			c-1.756,0.906-3.808-1.035-3.808-1.035c1.811-0.518,3.623-2.105,6.794-2.105C195.868,229.754,194.637,231.988,192.881,232.894z
			 M200.549,236.964c-1.275,1.614-5.905,1.481-5.905,1.481s0.393-0.753,1.822-1.982c0.913-0.786,2.062-1.56,3.124-2.103
			c0.599-0.306,1.171-0.541,1.655-0.658c0,0,0.524,1.536-0.587,3.096C200.618,236.854,200.592,236.909,200.549,236.964z
			 M201.056,245.51c0,0,0.639-0.639,1.492-2.131c0.26-0.455,0.502-0.857,0.756-1.236c0.578-0.863,1.224-1.591,2.335-2.447
			c0,0,0.746,1.979,0,3.897c-0.185,0.475-0.56,0.833-1.02,1.102C203.225,245.509,201.056,245.51,201.056,245.51z M217.39,251.318
			c0,0-0.005-0.138,0.003-0.387c0.01-0.311,0.042-0.8,0.138-1.453c0.173-1.175,1.121-2.166,1.121-2.166s0.635,0.734,0.646,1.745
			c0.007,0.635-0.746,1.362-1.308,1.816C217.657,251.144,217.39,251.318,217.39,251.318z M322.759,127.401
			c-0.987,2.207-1.945,4.428-2.868,6.665c-0.969,2.22-1.852,4.473-2.759,6.724c0.621-2.347,1.385-4.652,2.149-6.956
			c0.799-2.292,1.656-4.564,2.532-6.83c1.766-4.526,3.781-8.952,5.935-13.31c2.16-4.355,4.568-8.589,7.173-12.694
			c2.606-4.106,5.499-8.03,8.652-11.716c-1.308,2.05-2.767,3.978-3.993,6.069c-0.641,1.025-1.324,2.021-1.937,3.063l-1.842,3.12
			c-2.38,4.202-4.736,8.416-6.856,12.757C326.775,118.608,324.742,122.991,322.759,127.401z M329.931,147.106
			c-1.533,2.527-2.968,5.11-4.4,7.702c2.357-5.436,5.153-10.672,8.127-15.799c2.974-5.131,6.246-10.088,9.72-14.902
			c3.547-4.761,7.327-9.357,11.445-13.641c2.151-2.053,4.206-4.199,6.516-6.073c2.226-1.966,4.675-3.659,7.09-5.361
			c-2.238,1.948-4.587,3.731-6.651,5.85c-2.204,1.958-4.163,4.171-6.203,6.289c-3.905,4.412-7.619,8.984-11.117,13.728
			c-3.477,4.759-6.755,9.663-9.923,14.642C332.949,142.029,331.416,144.553,329.931,147.106z M332.235,159.639
			c3.342-4.561,7.047-8.848,10.891-12.999c3.843-4.155,7.926-8.088,12.158-11.855c4.275-3.719,8.745-7.221,13.437-10.404
			c2.406-1.504,4.756-3.087,7.267-4.41c2.458-1.409,5.062-2.544,7.636-3.697c-2.445,1.429-4.972,2.671-7.303,4.264
			c-2.426,1.427-4.697,3.096-7.01,4.689c-4.514,3.354-8.918,6.849-13.143,10.564c-4.224,3.715-8.302,7.596-12.302,11.561
			c-2,1.983-3.963,4.006-5.888,6.065C336.011,155.442,334.126,157.539,332.235,159.639z M337.367,269.041
			c-0.787-0.629-1.563-1.285-2.299-1.984c-0.683-0.745-1.439-1.441-2.042-2.262c-1.312-1.565-2.359-3.335-3.292-5.157
			c-0.859-1.86-1.544-3.808-1.921-5.822c-0.376-2.004-0.522-4.083-0.134-6.08c0.169,2.012,0.599,3.947,1.147,5.837
			c0.566,1.884,1.271,3.716,2.115,5.486c0.454,0.869,0.861,1.765,1.384,2.599c0.248,0.424,0.476,0.862,0.74,1.278
			c0.276,0.408,0.542,0.824,0.804,1.243c0.253,0.427,0.543,0.827,0.836,1.227l0.859,1.221
			C336.151,267.434,336.79,268.201,337.367,269.041z M343.119,245.449l1.198,1.103l1.243,1.056c0.798,0.742,1.694,1.367,2.516,2.087
			l5.195,4.058c-1.01-0.454-1.98-0.983-2.975-1.479c-0.949-0.566-1.913-1.119-2.836-1.734c-1.837-1.242-3.618-2.584-5.249-4.105
			c-1.625-1.522-3.166-3.15-4.472-4.966c-1.297-1.808-2.449-3.775-3.041-5.922c0.54,0.966,1.134,1.881,1.81,2.739
			c0.641,0.88,1.349,1.706,2.046,2.535C339.986,242.449,341.518,243.986,343.119,245.449z M354.445,229.001
			c2.587,1.723,5.288,3.272,7.972,4.859l8.187,4.588c-1.48-0.525-2.927-1.131-4.396-1.696c-1.432-0.642-2.869-1.281-4.283-1.969
			c-2.809-1.413-5.572-2.931-8.209-4.659c-2.637-1.724-5.197-3.582-7.549-5.693c-2.347-2.096-4.578-4.399-6.22-7.09
			c1.026,1.187,2.129,2.287,3.31,3.304c1.154,1.043,2.361,2.023,3.578,2.986C349.281,225.543,351.83,227.323,354.445,229.001z
			 M351.98,205.818c3.674,0.701,7.307,1.607,10.897,2.658c3.573,1.101,7.13,2.269,10.586,3.698c1.746,0.667,3.442,1.458,5.148,2.214
			c1.687,0.803,3.362,1.631,5.013,2.5c-3.518-1.257-7.007-2.54-10.526-3.733l-2.636-0.899l-2.651-0.85
			c-1.759-0.589-3.541-1.109-5.316-1.646c-3.553-1.068-7.138-2.021-10.739-2.924c-3.608-0.874-7.225-1.729-10.898-2.39
			C344.594,204.592,348.31,205.111,351.98,205.818z M353.139,189.048c3.685-0.642,7.404-1.076,11.133-1.36
			c3.732-0.232,7.472-0.394,11.21-0.277c1.869,0.007,3.735,0.148,5.598,0.253c1.862,0.156,3.721,0.339,5.573,0.569
			c-3.735,0.066-7.453,0.098-11.166,0.224l-2.783,0.09l-2.78,0.141c-1.854,0.07-3.704,0.213-5.555,0.337
			c-3.701,0.256-7.392,0.63-11.08,1.055c-3.684,0.456-7.37,0.933-11.04,1.611C345.796,190.508,349.456,189.682,353.139,189.048z
			 M350.485,173.897c3.704-2.151,7.601-3.966,11.596-5.525c3.994-1.567,8.144-2.74,12.354-3.554
			c4.202-0.888,8.52-1.081,12.775-1.013c-1.062,0.132-2.12,0.252-3.177,0.356l-1.583,0.167l-1.569,0.281l-3.132,0.53l-3.096,0.702
			c-4.104,1.009-8.163,2.215-12.092,3.781c-3.95,1.507-7.805,3.263-11.586,5.177c-1.885,0.969-3.752,1.977-5.582,3.054
			c-1.858,1.034-3.655,2.168-5.447,3.327C343.198,178.408,346.783,176.043,350.485,173.897z M366.526,149.041
			c-2.169,1.376-4.388,2.67-6.493,4.145c-4.287,2.829-8.422,5.888-12.44,9.098c-2.011,1.604-3.979,3.262-5.909,4.966
			c-1.95,1.684-3.836,3.44-5.687,5.243c1.63-2.008,3.434-3.866,5.241-5.719c1.848-1.812,3.753-3.565,5.698-5.277
			c3.89-3.423,8.046-6.541,12.354-9.425c2.137-1.47,4.384-2.769,6.593-4.124l3.416-1.859c0.572-0.304,1.132-0.631,1.714-0.917
			l1.758-0.832c4.634-2.326,9.513-4.129,14.439-5.669c-1.182,0.527-2.365,1.043-3.553,1.543l-1.777,0.757
			c-0.589,0.26-1.16,0.561-1.741,0.839l-3.489,1.649c-1.15,0.576-2.274,1.202-3.412,1.799
			C370.952,146.43,368.76,147.776,366.526,149.041z"/>
		<path d="M366.915,260.879L366.915,260.879c0.001,0.005,0.004,0.01,0.006,0.014C366.919,260.888,366.918,260.885,366.915,260.879z"
			/>
		<path d="M366.922,260.894C367.237,261.616,367.266,261.578,366.922,260.894L366.922,260.894z"/>
		<path d="M133.078,260.894c0.002-0.004,0.005-0.01,0.007-0.014l-0.001,0C133.082,260.885,133.081,260.888,133.078,260.894z"/>
		<path d="M133.078,260.894C132.734,261.578,132.763,261.616,133.078,260.894L133.078,260.894z"/>
		<path d="M231.8,331.855c0.123-1.854,0.167-3.372-0.16-4.373c0,0-6.538,10.199-4.977,16.107c1.561,5.908,6.44,9.185,6.44,9.185
			s-0.846-5.074-1.464-11.189c-0.248-2.453-0.167-4.808-0.034-6.913C231.669,333.669,231.742,332.725,231.8,331.855z"/>
	</g>
</g>
</svg>
