<?xml version="1.0" encoding="utf-8"?>
<!-- Generator: Adobe Illustrator 27.5.0, SVG Export Plug-In . SVG Version: 6.00 Build 0)  -->
<svg version="1.1" xmlns="http://www.w3.org/2000/svg" xmlns:xlink="http://www.w3.org/1999/xlink" x="0px" y="0px"
	 viewBox="0 0 500 500" style="enable-background:new 0 0 500 500;" xml:space="preserve">
<g id="BACKGROUND">
	<rect style="fill:#FFFFFF;" width="500" height="500"/>
</g>
<g id="OBJECTS">
	<ellipse style="fill:#AFC5C6;" cx="265.107" cy="454.946" rx="109.372" ry="14.963"/>
	<g>
		<g>
			<g>
				<g>
					<defs>
						<path id="XMLID_00000117675761918957362430000008008617717528963978_" d="M261.404,112.833c0,0,19.855-14.92,12.442-31.827
							c-7.413-16.907-26.964-3.852-26.964-3.852s-31.229-23.162-42.437,2.689c-5.477,12.634-7.53,82.657-39.336,58.864
							c-13.638-10.202-18.515-18.781-18.515-18.781s-3.692,21.148,10.9,28.849c0,0-15.47,1.017-21.306-10.067
							c0,0-4.135,42.929,54.141,38.684s31.592-66.453,44.689-72.305c7.601-3.396,13.493,6.853,13.493,6.853L261.404,112.833z"/>
					</defs>
					<use xlink:href="#XMLID_00000117675761918957362430000008008617717528963978_"  style="overflow:visible;fill:#BD3F4F;"/>
					<clipPath id="XMLID_00000022528674280790972290000002975670963699693724_">
						<use xlink:href="#XMLID_00000117675761918957362430000008008617717528963978_"  style="overflow:visible;"/>
					</clipPath>
					<path style="clip-path:url(#XMLID_00000022528674280790972290000002975670963699693724_);fill:#96273A;" d="M261.404,112.833
						c0,0,14.1-15.708,5.081-30.194c0,0-6.053,19.076-10.978,24.26c0,0-2.141-25.627-28.106-15.514l10.183,5.466
						c0,0-18.031,4.496-27.525,15.705l17.722-0.043c0,0-38.989,14.953-48.485,59.227c-44.551-8.2-47.831-45.453-47.831-45.453
						l-13.119,42.773l115.062,27.825l49.749-88.009L261.404,112.833"/>
					
						<use xlink:href="#XMLID_00000117675761918957362430000008008617717528963978_"  style="overflow:visible;fill:none;stroke:#752D23;stroke-width:2.1602;stroke-linecap:round;stroke-miterlimit:10;"/>
				</g>
			</g>
			<path style="fill:#BD3F4F;stroke:#752D23;stroke-width:2.1602;stroke-linecap:round;stroke-miterlimit:10;" d="M246.883,77.154
				c8.691,7.664,7.102,16.054,7.102,16.054"/>
		</g>
		<g>
			<defs>
				<polygon id="XMLID_00000049218455157662856300000009805568122780788106_" points="382.192,115.501 331.789,28.619 
					309.209,15.833 309.209,42.222 352.464,133.628 				"/>
			</defs>
			<use xlink:href="#XMLID_00000049218455157662856300000009805568122780788106_"  style="overflow:visible;fill:#D6EBED;"/>
			<clipPath id="XMLID_00000004539029490256833040000009130324258179706259_">
				<use xlink:href="#XMLID_00000049218455157662856300000009805568122780788106_"  style="overflow:visible;"/>
			</clipPath>
			<polyline style="clip-path:url(#XMLID_00000004539029490256833040000009130324258179706259_);fill:#AFC5C6;" points="
				309.209,15.833 376.839,143.716 410.366,121.612 326.248,-7.651 309.209,15.833 			"/>
			
				<use xlink:href="#XMLID_00000049218455157662856300000009805568122780788106_"  style="overflow:visible;fill:none;stroke:#68696B;stroke-width:2.5271;stroke-miterlimit:10;"/>
		</g>
		<polygon style="fill:#44444D;stroke:#2D2D2D;stroke-width:1.7968;stroke-miterlimit:10;" points="335.235,146.323 
			405.403,100.266 409.258,106.716 339.331,153.503 		"/>
		<path style="fill:#44444D;stroke:#2D2D2D;stroke-width:1.7968;stroke-miterlimit:10;" d="M406.749,198.964L406.749,198.964
			c5.06-2.689,6.982-8.971,4.293-14.031l-12.877-24.231c-2.689-5.06-8.971-6.982-14.031-4.293l0,0
			c-5.06,2.689-6.982,8.971-4.293,14.031l12.877,24.231C395.407,199.731,401.689,201.653,406.749,198.964z"/>
		<path style="fill:#44444D;stroke:#2D2D2D;stroke-width:2.3799;stroke-miterlimit:10;" d="M213.345,349.047l10.383,33.158h16.599
			v-29.278c0,0,9.635,4.972,17.442,1.878l18.62,30.494l13.856-3.535l-8.35-49.792l-69.424,0.19L213.345,349.047z"/>
		<path style="fill:#D6EBED;stroke:#68696B;stroke-width:2.5271;stroke-miterlimit:10;" d="M267.742,342.727
			c0,0,5.984,18.943,12.837,22.37c6.854,3.427,28.744-1.713,36.218-15.706l-17.656-17.42L267.742,342.727z"/>
		<path style="fill:#AFC5C6;stroke:#68696B;stroke-width:2.5271;stroke-miterlimit:10;" d="M219.669,334.821
			c0,0-6.451,18.968-13.304,22.395c-6.854,3.427-21.015,2.129-28.489-11.864l17.656-17.42
			C209.228,325.306,216.587,328.2,219.669,334.821z"/>
		<path style="fill:#D6EBED;stroke:#68696B;stroke-width:2.5271;stroke-miterlimit:10;" d="M296.868,314.907
			c0,0-2.537,10.861,14.216,21.664c0,0-20.612,32.271-43.342,6.156c0,0-36.615,8.489-55.272-10.566c0,0-7.517,14.867-26.413,0
			c0,0,19.179-14.867,22.605-29.716L296.868,314.907z"/>
		
			<ellipse style="fill:#44444D;stroke:#2D2D2D;stroke-width:2.3799;stroke-miterlimit:10;" cx="136.421" cy="299.466" rx="49.635" ry="68.284"/>
		<path style="fill:#44444D;stroke:#2D2D2D;stroke-width:2.3799;stroke-miterlimit:10;" d="M166.564,304.876
			c0,0,24.997-18.033,54.993-18.366v-28.424c0,0-36.329-0.965-64.658,23.395L166.564,304.876z"/>
		<path style="fill:#D6EBED;stroke:#68696B;stroke-width:2.5271;stroke-miterlimit:10;" d="M225.7,242.243
			c0,0,12.198,13.602-7.828,26.093c-25.564,15.945-42.445-9.835-42.445-9.835C193.957,259.065,210.57,253.156,225.7,242.243z"/>
		<path style="fill:#44444D;stroke:#2D2D2D;stroke-width:2.3799;stroke-miterlimit:10;" d="M307.819,296.225
			c17.272-9.726,48.052-35.866,54.451-66.175c0,0-15.994,2.076-27.225-14.797c0,0-18.155,35.676-44.801,47.8
			C263.598,275.176,277.615,313.233,307.819,296.225z"/>
		<g>
			<defs>
				<path id="XMLID_00000181048221809873322320000015942119087323170990_" d="M222.063,254.209c0,0-26.7,27.411-14.361,60.727
					c8.063,21.771,72.379,41.085,98.751-15.622c0.449-0.965-0.503-1.975-1.506-1.618c-3.168,1.128-8.476,1.583-13.428-4.661
					c-7.893-9.952-3.502-21.663,7.719-24.834l-13.168-25.07L222.063,254.209z"/>
			</defs>
			<use xlink:href="#XMLID_00000181048221809873322320000015942119087323170990_"  style="overflow:visible;fill:#D6EBED;"/>
			<clipPath id="XMLID_00000073700118377435657850000008313534259850097031_">
				<use xlink:href="#XMLID_00000181048221809873322320000015942119087323170990_"  style="overflow:visible;"/>
			</clipPath>
			<path style="clip-path:url(#XMLID_00000073700118377435657850000008313534259850097031_);fill:#AFC5C6;" d="M257.655,248.049
				c0,0-39.122,31.241-9.73,106.513c29.392,75.273-79.215-22.94-79.215-22.94l38.712-102.514L257.655,248.049"/>
			
				<use xlink:href="#XMLID_00000181048221809873322320000015942119087323170990_"  style="overflow:visible;fill:none;stroke:#68696B;stroke-width:2.5271;stroke-miterlimit:10;"/>
		</g>
		<path style="fill:#D6EBED;stroke:#68696B;stroke-width:2.5271;stroke-miterlimit:10;" d="M239.93,127.468h28.108l-5.95-16.208
			c-2.286-5.885-14.192-5.743-16.208,0L239.93,127.468z"/>
		<g>
			<defs>
				<path id="XMLID_00000047060825037038059820000010946078932823859110_" d="M316.797,185.615
					c0-35.348-28.655-64.003-64.003-64.003c-35.348,0-64.003,28.655-64.003,64.003c0,16.746,6.435,31.988,16.962,43.395
					l-16.962,10.678c0,0,18.763,24.567,63.969,24.567c45.206,0,63.969-24.567,63.969-24.567l-16.919-10.651
					C310.352,217.626,316.797,202.374,316.797,185.615z"/>
			</defs>
			<use xlink:href="#XMLID_00000047060825037038059820000010946078932823859110_"  style="overflow:visible;fill:#D6EBED;"/>
			<clipPath id="XMLID_00000024705318436553869430000000235750804044424839_">
				<use xlink:href="#XMLID_00000047060825037038059820000010946078932823859110_"  style="overflow:visible;"/>
			</clipPath>
			<path style="clip-path:url(#XMLID_00000024705318436553869430000000235750804044424839_);fill:#AFC5C6;" d="M242.554,122.431
				c0,0-35.335,19.622-35.335,66.783c0,25.024,39.896,43.386,39.896,43.386l-32.838-0.396l-11.55,44.915L137.6,215.2l46.198-98.172
				l58.39-2.057L242.554,122.431"/>
			<path style="clip-path:url(#XMLID_00000024705318436553869430000000235750804044424839_);fill:#FFFFFF;" d="M263.545,126.288
				c0,0,33.79,7.858,44.66,42.829L263.545,126.288z"/>
			<path style="clip-path:url(#XMLID_00000024705318436553869430000000235750804044424839_);fill:#FFFFFF;" d="M243.373,263.884
				c0,0,51.658,0.399,67.71-37.669l14.634,21.559l-60.61,24.784L243.373,263.884"/>
			
				<use xlink:href="#XMLID_00000047060825037038059820000010946078932823859110_"  style="overflow:visible;fill:none;stroke:#68696B;stroke-width:2.5271;stroke-miterlimit:10;"/>
		</g>
		<g>
			<defs>
				<polygon id="XMLID_00000034781235053628462400000006202099465636871334_" points="181.707,198.38 252.801,235.575 
					323.813,198.38 323.813,180.736 252.76,152.124 181.707,179.782 				"/>
			</defs>
			<use xlink:href="#XMLID_00000034781235053628462400000006202099465636871334_"  style="overflow:visible;fill:#D6EBED;"/>
			<clipPath id="XMLID_00000005950503590667485930000004845057686382824894_">
				<use xlink:href="#XMLID_00000034781235053628462400000006202099465636871334_"  style="overflow:visible;"/>
			</clipPath>
			
				<rect x="161.122" y="138.956" style="clip-path:url(#XMLID_00000005950503590667485930000004845057686382824894_);fill:#AFC5C6;" width="91.672" height="119.131"/>
			<path style="clip-path:url(#XMLID_00000005950503590667485930000004845057686382824894_);fill:#FFFFFF;" d="M252.76,159.352
				c0,0,64.123,22.946,64.037,26.262c-0.086,3.317,2.402,22.506,2.402,22.506l19.406,3.285l-3.37-40.799l-84.021-24.285l1.546,5.801
				"/>
			
				<use xlink:href="#XMLID_00000034781235053628462400000006202099465636871334_"  style="overflow:visible;fill:none;stroke:#68696B;stroke-width:3.0634;stroke-miterlimit:10;"/>
		</g>
		<path style="fill:#68696B;" d="M236.34,208.121c0,3.939,1.869,7.132,4.175,7.132c2.306,0,4.175-3.193,4.175-7.132
			c0-3.939-1.869-7.132-4.175-7.132C238.209,200.988,236.34,204.182,236.34,208.121z"/>
		<path style="fill:#68696B;" d="M229.233,180.717c0,3.939,1.869,7.132,4.175,7.132c2.306,0,4.175-3.193,4.175-7.132
			c0-3.939-1.869-7.132-4.175-7.132C231.102,173.585,229.233,176.778,229.233,180.717z"/>
		<path style="fill:#68696B;" d="M215.378,195.759c0,3.939,1.869,7.132,4.175,7.132c2.306,0,4.175-3.193,4.175-7.132
			s-1.869-7.132-4.175-7.132C217.247,188.627,215.378,191.82,215.378,195.759z"/>
		<path style="fill:#68696B;" d="M269.282,208.121c0,3.939-1.869,7.132-4.175,7.132c-2.306,0-4.175-3.193-4.175-7.132
			c0-3.939,1.869-7.132,4.175-7.132C267.413,200.988,269.282,204.182,269.282,208.121z"/>
		<path style="fill:#68696B;" d="M276.388,180.717c0,3.939-1.869,7.132-4.175,7.132c-2.306,0-4.175-3.193-4.175-7.132
			c0-3.939,1.869-7.132,4.175-7.132C274.519,173.585,276.388,176.778,276.388,180.717z"/>
		<path style="fill:#68696B;" d="M290.244,195.759c0,3.939-1.869,7.132-4.175,7.132c-2.306,0-4.175-3.193-4.175-7.132
			s1.869-7.132,4.175-7.132C288.375,188.627,290.244,191.82,290.244,195.759z"/>
		<path style="fill:#D6EBED;stroke:#68696B;stroke-width:2.5271;stroke-miterlimit:10;" d="M281.894,260.396
			c0,0,4.275,17.763,25.925,8.365c27.638-11.997,15.994-40.527,15.994-40.527C313.76,243.81,299.467,254.133,281.894,260.396z"/>
		<path style="fill:#D6EBED;stroke:#68696B;stroke-width:3.0634;stroke-miterlimit:10;" d="M328.291,199.602
			c0,0-0.646,37.796,47.488,30.689l9.045-49.574c0,0-19.383-46.047-20.998-47.662c-1.615-1.615-6.784-3.554-9.368,0
			c-2.584,3.553-0.969,11.953,0.646,17.767c1.615,5.815,7.107,23.259,5.169,26.813C358.334,181.189,328.291,199.602,328.291,199.602
			z"/>
		<path style="fill:#D6EBED;stroke:#68696B;stroke-width:3.0634;stroke-miterlimit:10;" d="M384.824,180.717
			c0,0-13.685-4.334-15.354-16.951c0,0-6.494-1.67-5.01-10.761c0,0-7.051-6.68-5.752-12.617s18.554-14.101,24.12-14.101
			s18.183,20.502,21.523,25.836c3.34,5.335,0,18.879,0,18.879s-5.01-8.164-6.494-8.72c-1.484-0.557-16.088-3.631-18.156,6.349
			L384.824,180.717z"/>
		<path style="fill:none;stroke:#68696B;stroke-width:3.0634;stroke-linecap:round;stroke-miterlimit:10;" d="M384.824,139.89
			c-3.98-1.175-18.29,1.565-20.364,13.116"/>
		<path style="fill:none;stroke:#68696B;stroke-width:3.0634;stroke-linecap:round;stroke-miterlimit:10;" d="M390.076,151.784
			c-3.98-1.175-18.29,1.565-20.364,13.116"/>
		<g>
			
				<ellipse style="fill:#D6EBED;stroke:#68696B;stroke-width:2.8143;stroke-miterlimit:10;" cx="150.63" cy="296.621" rx="29.871" ry="31.091"/>
			<path style="fill:#D6EBED;stroke:#68696B;stroke-width:3.1037;stroke-linecap:round;stroke-miterlimit:10;" d="M151.776,280.475
				c0,0-17.999,0.148-31.152,1.285c-23.947,2.07-21.102,50.833,7.359,47.623c31.448-3.547,27.004-26.497,27.004-26.497
				L151.776,280.475z"/>
			<path style="fill:#D6EBED;stroke:#68696B;stroke-width:3.1037;stroke-linecap:round;stroke-miterlimit:10;" d="M138.14,286.176
				c-4.546,7.325,2.38,21.459,10.168,19.079c14.483-4.425,3.25-15.752,5.124-23.534c2.443-10.142-12.172-10.404-12.172-10.404
				c-4.211-0.037-14.941,4.984-14.948,13.667"/>
			<path style="fill:#D6EBED;stroke:#68696B;stroke-width:3.1037;stroke-linecap:round;stroke-miterlimit:10;" d="M122.378,285.868
				c0,0,14.549-4.215,17.54,1.632c2.991,5.847,4.89,39.619-11.935,41.883"/>
			<path style="fill:none;stroke:#68696B;stroke-width:3.1037;stroke-linecap:round;stroke-miterlimit:10;" d="M118.346,298.318
				c8.42-3.102,16.267-4.196,22.914-1.082"/>
			<path style="fill:none;stroke:#68696B;stroke-width:3.1037;stroke-linecap:round;stroke-miterlimit:10;" d="M117.455,312.908
				c8.026-5.837,15.708-6.818,22.914-1.081"/>
		</g>
		<g>
			<defs>
				<path id="XMLID_00000044895083671224646460000008684590398133835948_" d="M237.971,317.255c0,0-19.295-12.549-14.244-40.875
					l18.692-5.063l15.178,10.163C257.598,281.479,260.942,298.493,237.971,317.255z"/>
			</defs>
			<use xlink:href="#XMLID_00000044895083671224646460000008684590398133835948_"  style="overflow:visible;fill:#BD3F4F;"/>
			<clipPath id="XMLID_00000150806842423015976790000005860159328751789461_">
				<use xlink:href="#XMLID_00000044895083671224646460000008684590398133835948_"  style="overflow:visible;"/>
			</clipPath>
			<path style="clip-path:url(#XMLID_00000150806842423015976790000005860159328751789461_);fill:#96273A;" d="M237.583,324.055
				h-28.178v-61.737l35.284,0.112C238.867,283.395,235.805,303.818,237.583,324.055z"/>
			
				<use xlink:href="#XMLID_00000044895083671224646460000008684590398133835948_"  style="overflow:visible;fill:none;stroke:#752D23;stroke-width:2.1602;stroke-linecap:round;stroke-miterlimit:10;"/>
		</g>
		<path style="fill:#D6EBED;stroke:#68696B;stroke-width:2.5271;stroke-miterlimit:10;" d="M209.039,439.059
			c0,0,23.19-2.689,25.207-10.755s-6.05-35.625-25.207-49.069c0,0,16.804-22.518,37.642-7.73c0,0-5.714,57.807-3.025,62.176
			c2.689,4.369,5.041,14.788-0.672,16.804c-5.714,2.017-65.537,0-70.242,0c-4.705,0,19.125-26.215,26.031-23.526
			C205.678,429.648,209.039,439.059,209.039,439.059z"/>
		<path style="fill:#D6EBED;stroke:#68696B;stroke-width:2.5271;stroke-miterlimit:10;" d="M270.204,388.469
			c0,0,6.634-22.695,31.772-10.474c0,0,7.56,58.308,17.222,63.894s12.456,4.19,12.456,4.19s9.776-17.807,20.251-13.966
			c10.474,3.841,16.061,22.695,15.712,24.79c-0.349,2.095-57.261-2.661-63.546-5.52c-6.284-2.859,2.496-15.429,2.496-15.429
			L270.204,388.469z"/>
		<circle style="fill:#44444D;stroke:#2D2D2D;stroke-width:1.7968;stroke-miterlimit:10;" cx="405.396" cy="103.867" r="7.818"/>
		<circle style="fill:#44444D;stroke:#2D2D2D;stroke-width:1.7968;stroke-miterlimit:10;" cx="335.235" cy="151.534" r="7.818"/>
		<path style="fill:#FFFFFF;" d="M270.204,283.517c0,7.362,2.328,13.33,5.199,13.33s5.199-5.968,5.199-13.33
			c0-7.362-2.328-13.33-5.199-13.33S270.204,276.155,270.204,283.517z"/>
		<path style="fill:#FFFFFF;" d="M294.661,324.055c0,0,2.784,8.155,11.906,12.515C306.567,336.57,295.063,340.931,294.661,324.055z"
			/>
	</g>
</g>
</svg>
