<?xml version="1.0" encoding="utf-8"?>
<!-- Generator: Adobe Illustrator 27.5.0, SVG Export Plug-In . SVG Version: 6.00 Build 0)  -->
<svg version="1.1" xmlns="http://www.w3.org/2000/svg" xmlns:xlink="http://www.w3.org/1999/xlink" x="0px" y="0px"
	 viewBox="0 0 800 800" style="enable-background:new 0 0 800 800;" xml:space="preserve">
<g id="Background">
	<rect x="0.538" style="fill:#FFFF9D;" width="799.462" height="800"/>
	<rect x="400.269" style="fill:#C2EAE9;" width="399.731" height="800.433"/>
	<g>
		<g>
			<rect x="693.637" y="227.958" style="fill:#7E8AA2;" width="24.125" height="90.948"/>
			
				<rect x="660.226" y="261.369" transform="matrix(0.7071 -0.7071 0.7071 0.7071 13.3494 579.0919)" style="fill:#7E8AA2;" width="90.948" height="24.126"/>
			<rect x="660.227" y="261.368" style="fill:#7E8AA2;" width="90.948" height="24.126"/>
			
				<rect x="693.638" y="227.958" transform="matrix(0.7071 -0.7071 0.7071 0.7071 13.353 579.1)" style="fill:#7E8AA2;" width="24.126" height="90.948"/>
		</g>
		<path style="fill:#7E8AA2;" d="M743.168,273.432c0,20.693-16.774,37.468-37.468,37.468c-20.692,0-37.467-16.775-37.467-37.468
			c0-20.693,16.774-37.468,37.467-37.468C726.394,235.963,743.168,252.739,743.168,273.432z"/>
		<path style="fill:#A9B5C9;" d="M730.999,273.432c0,13.972-11.327,25.299-25.299,25.299c-13.973,0-25.298-11.327-25.298-25.299
			c0-13.972,11.325-25.299,25.298-25.299C719.672,248.133,730.999,259.46,730.999,273.432z"/>
		<path style="fill:#C2EAE9;" d="M723.526,273.432c0,9.846-7.982,17.827-17.826,17.827c-9.846,0-17.827-7.981-17.827-17.827
			s7.982-17.827,17.827-17.827C715.545,255.605,723.526,263.586,723.526,273.432z"/>
	</g>
	<g>
		<g>
			<polygon style="fill:#FF7865;" points="492.809,230.654 559.101,233.751 596.997,211.665 604.024,218.151 562.526,241.206 			"/>
			<polygon style="fill:#FF7865;" points="605.665,226.253 591.228,206.188 611.358,206.568 			"/>
		</g>
		<g>
			<polygon style="fill:#8CBEB2;" points="504.011,279.841 529.938,279.841 529.938,241.965 504.011,238.217 			"/>
			<polygon style="fill:#8CBEB2;" points="534.987,279.841 560.914,279.841 560.914,246.445 534.987,242.696 			"/>
			<polygon style="fill:#8CBEB2;" points="565.965,279.841 591.892,279.841 591.892,230.959 565.965,245.046 			"/>
		</g>
	</g>
	<g>
		<path style="fill:#F3B562;" d="M540.655,471.691c0,12.716-10.307,23.023-23.023,23.023c-12.713,0-23.022-10.308-23.022-23.023
			c0-12.715,10.31-23.022,23.022-23.022C530.349,448.669,540.655,458.977,540.655,471.691z"/>
		<g>
			<path style="fill:#FFFFFF;" d="M518.038,454.527c0.971,0,1.74,0.769,1.74,1.74v0.89c2.385,0.282,4.407,1.052,6.27,2.225
				c0.647,0.364,1.214,0.972,1.214,1.942c0,1.255-1.011,2.224-2.267,2.224c-0.405,0-0.81-0.12-1.214-0.363
				c-1.416-0.849-2.791-1.456-4.166-1.779v7.767c6.149,1.537,8.779,4.006,8.779,8.334c0,4.452-3.479,7.403-8.616,7.89v2.427
				c0,0.971-0.769,1.739-1.74,1.739c-0.972,0-1.782-0.768-1.782-1.739v-2.508c-3.032-0.323-5.825-1.417-8.293-3.156
				c-0.688-0.444-1.091-1.093-1.091-1.941c0-1.256,0.972-2.226,2.225-2.226c0.485,0,0.972,0.162,1.334,0.445
				c1.904,1.376,3.764,2.307,5.989,2.71v-7.969c-5.906-1.539-8.659-3.763-8.659-8.334c0-4.33,3.44-7.321,8.495-7.727v-0.85
				C516.256,455.296,517.066,454.527,518.038,454.527z M516.42,468.322v-7.161c-2.591,0.244-3.884,1.62-3.884,3.398
				C512.536,466.26,513.305,467.311,516.42,468.322z M519.615,473.946v7.363c2.59-0.283,4.007-1.579,4.007-3.52
				C523.622,476.009,522.729,474.917,519.615,473.946z"/>
		</g>
	</g>
	<g>
		<path style="fill:#FFFFFF;" d="M635.078,570.862c0,22.941-18.595,41.537-41.536,41.537c-22.94,0-41.537-18.596-41.537-41.537
			c0-22.94,18.598-41.536,41.537-41.536C616.483,529.326,635.078,547.922,635.078,570.862z"/>
		<g>
			<g>
				<path style="fill:#B1C2B3;" d="M593.542,531.148c21.934,0,39.714,17.781,39.714,39.714c0,21.934-17.78,39.715-39.714,39.715
					s-39.715-17.781-39.715-39.715C553.827,548.93,571.608,531.148,593.542,531.148 M593.542,522.644
					c-26.588,0-48.219,21.63-48.219,48.218s21.631,48.219,48.219,48.219s48.218-21.631,48.218-48.219
					S620.13,522.644,593.542,522.644L593.542,522.644z"/>
			</g>
			
				<line style="fill:none;stroke:#F06060;stroke-width:2.8347;stroke-linecap:round;stroke-miterlimit:10;" x1="593.542" y1="570.862" x2="593.542" y2="541.739"/>
			
				<line style="fill:none;stroke:#F06060;stroke-width:2.8347;stroke-linecap:round;stroke-miterlimit:10;" x1="593.542" y1="570.862" x2="606.561" y2="583.882"/>
		</g>
		
			<line style="fill:none;stroke:#F06060;stroke-width:2.8347;stroke-linecap:round;stroke-miterlimit:10;" x1="593.542" y1="570.862" x2="593.542" y2="542.765"/>
		
			<line style="fill:none;stroke:#F06060;stroke-width:2.8347;stroke-linecap:round;stroke-miterlimit:10;" x1="593.542" y1="570.862" x2="606.104" y2="583.424"/>
	</g>
	<g>
		<g>
			<polygon style="fill:#F3B562;" points="714.639,662.521 630.991,662.521 672.814,688.036 			"/>
			<polygon style="fill:#F3B562;" points="672.814,692.168 627.604,664.586 627.604,717.685 718.025,717.685 718.025,664.586 			"/>
		</g>
		
			<line style="fill:none;stroke:#FF7865;stroke-width:2.8347;stroke-linecap:round;stroke-miterlimit:10;" x1="585.608" y1="715.299" x2="622.108" y2="715.299"/>
		
			<line style="fill:none;stroke:#FF7865;stroke-width:2.8347;stroke-linecap:round;stroke-miterlimit:10;" x1="593.541" y1="705.812" x2="622.108" y2="705.812"/>
		
			<line style="fill:none;stroke:#FF7865;stroke-width:2.8347;stroke-linecap:round;stroke-miterlimit:10;" x1="605.984" y1="696.323" x2="622.108" y2="696.323"/>
	</g>
	<g>
		<path style="fill:#FF7865;" d="M718.977,386.724c0,21.362-17.316,38.68-38.679,38.68c-21.361,0-38.68-17.318-38.68-38.68
			c0-21.364,17.318-38.68,38.68-38.68C701.66,348.044,718.977,365.36,718.977,386.724z"/>
		<text transform="matrix(1 0 0 1 651.8164 411.146)" style="fill:#FFFFFF; font-family:'Quicksand-Bold'; font-size:70.6586px;">@</text>
	</g>
	<g>
		<g>
			<polygon style="fill:#7E8AA2;" points="142.693,537.815 138.875,537.162 150.504,469.186 103.08,437.006 92.617,505.457 
				88.789,504.869 100.18,430.36 154.74,467.383 			"/>
		</g>
		<g>
			<path style="fill:#7E8AA2;" d="M142.242,538.501c-2.853,5.672-10.472,7.603-17.02,4.312c-6.549-3.293-9.546-10.559-6.696-16.231
				c2.852-5.674,10.472-7.604,17.021-4.312C142.094,525.56,145.092,532.827,142.242,538.501z"/>
		</g>
		<g>
			<path style="fill:#7E8AA2;" d="M91.674,508.284c-2.851,5.675-10.472,7.603-17.02,4.311c-6.549-3.291-9.546-10.558-6.696-16.231
				c2.852-5.672,10.472-7.603,17.021-4.311C91.526,495.344,94.524,502.612,91.674,508.284z"/>
		</g>
		<g>
			<polygon style="fill:#7E8AA2;" points="98.734,452.622 149.269,487.893 152.622,468.285 101.63,433.683 			"/>
		</g>
	</g>
	<g>
		<polygon style="fill:#FF7865;" points="221.352,160.958 240.521,132.979 239.583,166.881 271.537,155.512 250.85,182.389 
			283.384,191.973 250.85,201.558 271.537,228.435 239.583,217.065 240.521,250.968 221.352,222.989 202.184,250.968 
			203.123,217.065 171.169,228.435 191.855,201.558 159.322,191.973 191.855,182.389 171.169,155.512 203.123,166.881 
			202.184,132.979 		"/>
		
			<ellipse transform="matrix(0.2274 -0.9738 0.9738 0.2274 -15.9267 363.872)" style="fill:#F3B562;" cx="221.353" cy="191.973" rx="24.153" ry="24.153"/>
		<g>
			<g>
				<path style="fill:#8CBEB2;" d="M176.699,273.03c0,0,7.648-14.63,24.938-15.96c17.29-1.331,30.589,8.978,39.568,7.98
					c8.977-0.999,17.623-8.313,17.29-16.293c-0.333-7.98-8.313-11.152-13.632-10.065c0,0,19.841-12.095,26.433,7.904
					c4.988,15.129-5.818,33.581-31.421,32.252C214.271,277.519,205.295,256.074,176.699,273.03z"/>
				<path style="fill:#8CBEB2;" d="M176.699,273.861c0,0,11.803-8.479,23.441-5.321c11.638,3.16,36.206,19.254,57.358,11.64
					c20.132-7.246,17.29-24.273,17.29-24.273s10.915,24.58-17.456,31.834c-24.389,6.237-48.848-12.661-61.098-16.511
					C186.092,268.043,176.699,273.861,176.699,273.861z"/>
			</g>
			<path style="fill:#8CBEB2;" d="M175.741,273.927c0,0,4.554-14.354,13.435-16.983c8.882-2.63,1.905-13.861-5.042-6.854
				C178.275,255.999,175.774,267.898,175.741,273.927z"/>
		</g>
	</g>
	<g>
		<g>
			<path style="fill:#8CBEB2;" d="M285.566,512.861l-2.55-57.193h-9.125h-9.126l-2.55,57.193c0,0-12.659,5.171-12.659,18.555
				s0,69.352,0,69.352s7.878,4.73,24.334,4.563c17.221,0.168,24.333-4.563,24.333-4.563s0-55.968,0-69.352
				S285.566,512.861,285.566,512.861z"/>
			<path style="fill:#6DAA9A;" d="M281.786,451.723h-7.894h-7.895c-2.023,0-3.664,1.794-3.664,4.004
				c0,2.212,1.641,4.006,3.664,4.006h7.895h7.894c2.024,0,3.664-1.794,3.664-4.006C285.45,453.517,283.81,451.723,281.786,451.723z"
				/>
		</g>
		<path style="fill:#A0E0CF;" d="M268.284,464.086l-3.042,49.369c0,0-10.645,4.564-12.166,15.817v69.35c0,0,7.3,3.954,18.555,3.954
			c0,0-13.08-3.65-14.904-6.083v-65.912c0,0,2.738-14.39,12.471-16.822L268.284,464.086z"/>
		<path style="fill:#FFFFFF;" d="M294.068,599.537v-70.365c0,0-1.248-5.678-5.911-8.314c0,0,1.857,2.637,2.956,8.112v71.357
			L294.068,599.537z"/>
		<path style="fill:#A0E0CF;" d="M266.408,452.469c0,0-3.036,0.48-3.042,3.258c-0.006,2.778,3.042,3.358,3.042,3.358
			s-1.737-0.824-1.642-3.417C264.861,453.075,266.408,452.469,266.408,452.469z"/>
	</g>
	<g>
		<path style="fill:#8CBEB2;" d="M219.161,713.117c0,0,25.247-11.154,11.554-67.638h-12.837H205.04
			c-13.694,56.483,11.553,67.638,11.553,67.638v40.623l-11.982,4.706h13.266h13.266l-11.983-4.706V713.117z"/>
		<path style="fill:#A0E0CF;" d="M213.584,646.852h-7.275c0,0-12.303,49.102,9.627,63.651c0,0-11.126-12.033-9.841-37.336
			C206.91,657.118,213.584,646.852,213.584,646.852z"/>
		<path style="fill:#FFFFFF;" d="M231.234,664.734c0,0,2.728,30.042-11.874,45.769C219.359,710.503,235.727,702.091,231.234,664.734
			z"/>
		<path style="fill:#A0E0CF;" d="M217.033,754.255l-8.745,3.529h5.696C213.984,757.784,212.219,757.544,217.033,754.255z"/>
	</g>
	<g>
		
			<ellipse transform="matrix(0.1216 -0.9926 0.9926 0.1216 -240.878 416.217)" style="fill:#FF7865;" cx="114.72" cy="344.202" rx="56.075" ry="56.075"/>
		<path style="fill:#E85142;" d="M169.199,337.878c0,0-4.923,56.562-50.021,57.642c-51.212,1.226-58.799-51.802-56.503-58.564
			c0,0,13.532,41.401,54.126,39.681C157.394,374.917,169.199,337.878,169.199,337.878z"/>
		<path style="fill:#FC9C95;" d="M151.961,315.645c0,13.29-16.212,24.064-36.209,24.064c-19.997,0-36.209-10.773-36.209-24.064
			c0-13.292,16.212-24.065,36.209-24.065C135.748,291.58,151.961,302.353,151.961,315.645z"/>
		<g>
			<g>
				<path style="fill:#FFFFFF;" d="M170.756,347.289c-0.131-0.136-13.399-13.43-46.52-16.715
					c-40.753-4.056-65.347,10.94-65.591,11.092l0.252-2.813c0.251-0.157,24.026-14.817,65.571-10.609
					c33.535,3.395,45.769,15.381,46.326,15.958L170.756,347.289z"/>
			</g>
			<g>
				<path style="fill:#FFFFFF;" d="M167.961,326.609c-0.05-0.029-5.129-2.971-18.874-0.845c-15.859,2.444-31.216-3.819-44.767-9.347
					c-2.703-1.103-5.256-2.144-7.792-3.115c-15.079-5.766-26.364-3.029-26.481-2.999l2.091-2.588
					c0.5-0.125,9.468-2.626,25.226,3.402c2.561,0.979,5.125,2.025,7.84,3.133c13.268,5.413,28.29,11.435,43.526,9.2
					c14.218-2.087,17.974,0.113,18.2,0.255l1.022,2.899L167.961,326.609L167.961,326.609z"/>
			</g>
			<g>
				<path style="fill:#FFFFFF;" d="M166.366,366.08c-3.611-0.64-4.844-2.865-8.124-6.837c-1.667-2.018-3.741-4.529-6.498-7.327
					c-8.276-8.396-21.682-18.226-42.46-6.691c-32.721,18.164-47.707,14.929-48.383,14.773l-0.562-2.44
					c0.159,0.035,16.008,3.273,47.808-14.378c22.173-12.31,36.452-1.848,45.264,7.094c2.829,2.87,4.94,5.426,6.636,7.48
					c3.021,3.658,4.476,5.811,7.2,6.12L166.366,366.08z"/>
			</g>
			<g>
				<path style="fill:#FFFFFF;" d="M112.688,401.557l-2.022-1.183c23.025-39.368,23.833-67.726,20.455-84.581
					c-3.649-18.211-12.871-27.471-12.962-27.562l2.967,0.258c0.396,0.381,8.428,7.807,12.255,26.667
					C136.886,332.435,136.142,361.452,112.688,401.557z"/>
			</g>
		</g>
	</g>
	<g>
		<path style="fill:#FF7865;" d="M133.694,78.536c-19.074-5.05-28.61,8.976-28.61,8.976s-9.536-14.025-28.61-8.976
			c-19.072,5.048-21.316,29.731-6.732,47.122c14.586,17.39,35.342,21.316,35.342,21.316s20.756-3.926,35.342-21.316
			C155.011,108.268,152.767,83.585,133.694,78.536z"/>
		<path style="fill:#E85142;" d="M140.34,85.835c0,0,12.512,14.475-0.614,34.469c-13.2,20.109-32.678,21.344-32.678,21.344
			s24.95-12.512,26.054-35.695c1.104-23.184-13.248-23.064-13.248-23.064S131.876,75.776,140.34,85.835z"/>
		<path style="fill:#FFBDBB;" d="M99.123,87.736c0,0-6.974-10.01-22.08-5.704c-16.781,4.784-13.248,25.944-9.752,31.832
			c0,0-0.815-13.063,3.496-14.168c4.785-1.226,14.475-2.287,15.823-8.648C87.434,87.171,97.1,87,99.123,87.736z"/>
	</g>
	<g>
		<g>
			<g>
				<polygon style="fill:#493940;" points="667.038,165.314 658.281,165.314 649.523,165.314 647.525,185.305 658.281,185.305 
					669.037,185.305 				"/>
				<polygon style="fill:#5C4B51;" points="669.037,185.305 658.281,185.305 647.525,185.305 643.527,188.494 658.281,188.494 
					673.036,188.494 				"/>
			</g>
			<polygon style="fill:#7C6C73;" points="658.281,188.494 643.527,188.494 643.527,191.137 658.281,191.137 673.036,191.137 
				673.036,188.494 			"/>
		</g>
		<path style="fill:#5C4B51;" d="M723.205,161.36c0,5.457-4.093,9.882-9.139,9.882h-111.57c-5.047,0-9.139-4.425-9.139-9.882V95.066
			c0-5.457,4.092-9.882,9.139-9.882h111.57c5.046,0,9.139,4.424,9.139,9.882V161.36z"/>
		<g>
			<path style="fill:#B1C2B3;" d="M709.305,90.949h-47.807l-25.023,70.411h72.83c5.05,0,9.14-4.425,9.14-9.883v-50.646
				C718.444,95.373,714.354,90.949,709.305,90.949z"/>
			<path style="fill:#C4CEC5;" d="M607.258,90.949c-5.047,0-9.139,4.424-9.139,9.882v50.646c0,5.458,4.092,9.883,9.139,9.883h29.217
				l25.023-70.411H607.258z"/>
		</g>
	</g>
	<g>
		<g>
			<path style="fill:#5C4B51;" d="M738.106,554.435c0,3.394-2.752,6.144-6.143,6.144h-40.638c-3.394,0-6.144-2.75-6.144-6.144
				v-70.757c0-3.395,2.75-6.145,6.144-6.145h40.638c3.392,0,6.143,2.75,6.143,6.145V554.435z"/>
			<path style="fill:#A9B5C9;" d="M713.756,556.146c0,1.165-0.946,2.111-2.111,2.111l0,0c-1.167,0-2.112-0.946-2.112-2.111l0,0
				c0-1.167,0.945-2.111,2.112-2.111l0,0C712.81,554.035,713.756,554.979,713.756,556.146L713.756,556.146z"/>
		</g>
		<g>
			<path style="fill:#B1C2B3;" d="M728.027,482.502h-3.528l-23.497,69.885h27.025c3.392,0,6.144-2.75,6.144-6.145v-57.596
				C734.171,485.253,731.419,482.502,728.027,482.502z"/>
			<path style="fill:#C4CEC5;" d="M695.261,482.502c-3.393,0-6.143,2.751-6.143,6.145v57.596c0,3.395,2.751,6.145,6.143,6.145h5.741
				l23.497-69.885H695.261z"/>
		</g>
	</g>
	<g>
		<g>
			<g>
				<path style="fill:#E09944;" d="M151.162,582.259H59.006c-3.69,0-6.682,2.655-6.682,5.931v6.952h105.519v-6.952
					C157.844,584.914,154.852,582.259,151.162,582.259z"/>
				<path style="fill:#F3B562;" d="M52.325,645.651c0,3.275,2.992,5.931,6.682,5.931h92.155c3.69,0,6.683-2.655,6.683-5.931v-47.88
					H52.325V645.651z"/>
				<rect x="52.325" y="595.142" style="fill:#FFFFFF;" width="105.519" height="2.63"/>
			</g>
			<path style="fill:#5C4B51;" d="M72.647,589.356c0,2.308-1.869,4.177-4.176,4.177h-6.264c-2.306,0-4.176-1.869-4.176-4.177l0,0
				c0-2.304,1.87-4.176,4.176-4.176h6.264C70.779,585.181,72.647,587.053,72.647,589.356L72.647,589.356z"/>
		</g>
		<g>
			
				<ellipse transform="matrix(0.025 -0.9997 0.9997 0.025 -521.3655 712.506)" style="fill:#8CBEB2;" cx="104.606" cy="623.548" rx="22.457" ry="22.458"/>
			<g>
				<path style="fill:#FFFFFF;" d="M104.606,647.284c-13.088,0-23.736-10.649-23.736-23.736c0-13.089,10.648-23.736,23.736-23.736
					c13.088,0,23.737,10.647,23.737,23.736C128.343,636.635,117.694,647.284,104.606,647.284z M104.606,604.548
					c-10.477,0-19,8.521-19,19c0,10.477,8.523,19.001,19,19.001c10.478,0,19.001-8.523,19.001-19.001
					C123.607,613.069,115.084,604.548,104.606,604.548z"/>
			</g>
			<path style="fill:#A0E0CF;" d="M102.041,615.25c0,2.537-2.057,4.593-4.594,4.593l0,0c-2.537,0-4.594-2.056-4.594-4.593l0,0
				c0-2.537,2.057-4.595,4.594-4.595l0,0C99.985,610.655,102.041,612.713,102.041,615.25L102.041,615.25z"/>
		</g>
	</g>
	<g>
		<g>
			<path style="fill:#4B4B4B;" d="M286.024,774.285v-0.256c-0.349,0.398-0.692,0.723-1.031,0.973
				c-0.338,0.25-0.706,0.441-1.102,0.57c-0.395,0.131-0.827,0.195-1.296,0.195c-0.621,0-1.196-0.131-1.725-0.395
				c-0.528-0.262-0.986-0.639-1.372-1.125c-0.387-0.488-0.68-1.06-0.879-1.719c-0.199-0.66-0.299-1.371-0.299-2.137
				c0-1.621,0.396-2.887,1.188-3.791s1.833-1.358,3.125-1.358c0.747,0,1.377,0.129,1.89,0.383c0.513,0.258,1.013,0.652,1.501,1.183
				v-3.828c0-0.531,0.105-0.934,0.318-1.205c0.211-0.273,0.514-0.408,0.907-0.408c0.393,0,0.694,0.125,0.907,0.375
				s0.318,0.617,0.318,1.106v11.436c0,0.494-0.113,0.865-0.342,1.111c-0.228,0.246-0.522,0.371-0.883,0.371
				c-0.354,0-0.647-0.129-0.879-0.385C286.139,775.125,286.024,774.76,286.024,774.285z M280.923,770.477
				c0,0.703,0.109,1.301,0.328,1.795c0.219,0.494,0.518,0.867,0.897,1.115c0.38,0.252,0.795,0.377,1.244,0.377
				c0.456,0,0.872-0.119,1.25-0.357c0.376-0.236,0.677-0.602,0.902-1.09c0.225-0.492,0.337-1.106,0.337-1.84
				c0-0.69-0.112-1.283-0.337-1.781c-0.225-0.496-0.528-0.877-0.912-1.141c-0.383-0.262-0.803-0.393-1.258-0.393
				c-0.475,0-0.899,0.135-1.273,0.404c-0.374,0.268-0.663,0.654-0.869,1.158C281.026,769.229,280.923,769.813,280.923,770.477z"/>
			<path style="fill:#4B4B4B;" d="M297.457,771.133h-5.071c0.006,0.588,0.124,1.107,0.357,1.557c0.23,0.451,0.538,0.789,0.921,1.017
				c0.383,0.229,0.806,0.34,1.268,0.34c0.31,0,0.593-0.035,0.85-0.107c0.257-0.074,0.505-0.186,0.746-0.342
				c0.241-0.154,0.462-0.322,0.665-0.5c0.202-0.178,0.464-0.418,0.788-0.723c0.133-0.113,0.323-0.17,0.571-0.17
				c0.266,0,0.48,0.074,0.645,0.219c0.165,0.146,0.248,0.352,0.248,0.617c0,0.234-0.093,0.508-0.275,0.822
				c-0.185,0.313-0.462,0.613-0.832,0.902c-0.372,0.287-0.835,0.525-1.397,0.717c-0.559,0.189-1.204,0.285-1.933,0.285
				c-1.664,0-2.96-0.477-3.884-1.426c-0.924-0.949-1.386-2.238-1.386-3.865c0-0.766,0.113-1.477,0.341-2.131
				c0.228-0.656,0.561-1.219,0.997-1.688c0.437-0.469,0.975-0.826,1.615-1.078c0.639-0.25,1.349-0.373,2.128-0.373
				c1.013,0,1.882,0.211,2.606,0.641c0.726,0.426,1.27,0.978,1.63,1.656c0.36,0.678,0.542,1.369,0.542,2.07
				c0,0.652-0.187,1.074-0.56,1.27C298.662,771.035,298.136,771.133,297.457,771.133z M292.386,769.66h4.702
				c-0.063-0.887-0.303-1.551-0.717-1.99c-0.415-0.439-0.96-0.66-1.638-0.66c-0.646,0-1.177,0.223-1.591,0.67
				C292.727,768.125,292.476,768.787,292.386,769.66z"/>
			<path style="fill:#4B4B4B;" d="M309.272,772.375c0,0.717-0.173,1.33-0.522,1.84c-0.348,0.51-0.862,0.897-1.544,1.158
				c-0.68,0.264-1.508,0.395-2.483,0.395c-0.931,0-1.728-0.143-2.393-0.428c-0.665-0.285-1.156-0.642-1.472-1.068
				c-0.317-0.428-0.475-0.855-0.475-1.287c0-0.285,0.101-0.529,0.304-0.73c0.202-0.203,0.459-0.305,0.769-0.305
				c0.272,0,0.48,0.066,0.626,0.199c0.146,0.133,0.286,0.32,0.418,0.561c0.266,0.463,0.585,0.807,0.956,1.035
				c0.37,0.229,0.874,0.342,1.515,0.342c0.519,0,0.945-0.115,1.277-0.346c0.332-0.232,0.498-0.496,0.498-0.795
				c0-0.455-0.172-0.787-0.518-0.996c-0.345-0.209-0.914-0.408-1.705-0.6c-0.893-0.221-1.619-0.453-2.18-0.697
				c-0.561-0.242-1.008-0.564-1.344-0.963c-0.335-0.4-0.503-0.891-0.503-1.473c0-0.519,0.155-1.01,0.465-1.473
				c0.311-0.461,0.768-0.83,1.374-1.105c0.604-0.277,1.333-0.414,2.188-0.414c0.671,0,1.275,0.068,1.809,0.209
				c0.536,0.139,0.983,0.326,1.34,0.56c0.358,0.234,0.63,0.494,0.816,0.777c0.186,0.285,0.28,0.564,0.28,0.838
				c0,0.297-0.1,0.541-0.298,0.73c-0.199,0.19-0.482,0.285-0.851,0.285c-0.266,0-0.492-0.076-0.679-0.229
				c-0.186-0.152-0.4-0.379-0.641-0.684c-0.196-0.252-0.426-0.455-0.693-0.607c-0.266-0.152-0.627-0.229-1.083-0.229
				c-0.469,0-0.857,0.1-1.168,0.301c-0.31,0.197-0.465,0.445-0.465,0.744c0,0.273,0.114,0.496,0.341,0.67
				c0.229,0.174,0.535,0.318,0.922,0.432c0.386,0.113,0.917,0.252,1.596,0.418c0.803,0.197,1.46,0.432,1.97,0.703
				c0.509,0.272,0.896,0.594,1.16,0.965C309.142,771.479,309.272,771.9,309.272,772.375z"/>
			<path style="fill:#4B4B4B;" d="M311.921,764.019c-0.361,0-0.669-0.111-0.926-0.334c-0.256-0.221-0.385-0.533-0.385-0.939
				c0-0.369,0.131-0.67,0.394-0.908s0.569-0.355,0.917-0.355c0.336,0,0.633,0.107,0.893,0.322c0.26,0.217,0.39,0.529,0.39,0.941
				c0,0.398-0.127,0.711-0.381,0.935C312.57,763.906,312.27,764.019,311.921,764.019z M313.204,766.697v7.492
				c0,0.519-0.124,0.914-0.371,1.18c-0.248,0.266-0.56,0.398-0.94,0.398c-0.38,0-0.689-0.137-0.926-0.408
				c-0.238-0.273-0.356-0.662-0.356-1.17v-7.418c0-0.512,0.118-0.898,0.356-1.158c0.237-0.26,0.546-0.389,0.926-0.389
				c0.38,0,0.693,0.129,0.94,0.389C313.081,765.873,313.204,766.234,313.204,766.697z"/>
			<path style="fill:#4B4B4B;" d="M324.563,767.125v7.531c0,0.861-0.093,1.602-0.277,2.223c-0.182,0.619-0.477,1.133-0.883,1.539
				c-0.405,0.404-0.935,0.705-1.59,0.9c-0.655,0.197-1.471,0.295-2.446,0.295c-0.893,0-1.69-0.125-2.394-0.375
				c-0.702-0.25-1.243-0.572-1.624-0.969c-0.379-0.394-0.57-0.803-0.57-1.221c0-0.316,0.108-0.574,0.324-0.773
				c0.215-0.199,0.475-0.299,0.778-0.299c0.38,0,0.712,0.168,0.997,0.502c0.139,0.172,0.283,0.346,0.432,0.519
				c0.149,0.174,0.314,0.322,0.494,0.447c0.181,0.121,0.397,0.213,0.65,0.273c0.253,0.058,0.545,0.09,0.874,0.09
				c0.671,0,1.192-0.092,1.563-0.279s0.63-0.449,0.779-0.785c0.149-0.334,0.236-0.693,0.261-1.076c0.025-0.385,0.044-1,0.057-1.85
				c-0.399,0.559-0.859,0.984-1.382,1.275c-0.522,0.291-1.145,0.435-1.866,0.435c-0.868,0-1.626-0.221-2.275-0.664
				c-0.648-0.443-1.147-1.064-1.495-1.861c-0.349-0.799-0.522-1.719-0.522-2.764c0-0.779,0.105-1.482,0.317-2.109
				c0.213-0.627,0.515-1.156,0.907-1.586c0.392-0.432,0.845-0.756,1.358-0.975c0.513-0.217,1.076-0.326,1.691-0.326
				c0.734,0,1.371,0.141,1.909,0.422c0.538,0.283,1.038,0.725,1.5,1.326v-0.354c0-0.449,0.11-0.797,0.332-1.045
				c0.222-0.246,0.507-0.369,0.855-0.369c0.5,0,0.832,0.164,0.996,0.488C324.48,766.039,324.563,766.51,324.563,767.125z
				 M317.05,770.41c0,1.051,0.229,1.846,0.688,2.385c0.459,0.539,1.053,0.807,1.781,0.807c0.43,0,0.837-0.115,1.22-0.346
				c0.384-0.233,0.695-0.58,0.936-1.045c0.24-0.467,0.361-1.031,0.361-1.695c0-1.057-0.232-1.881-0.698-2.469
				c-0.466-0.59-1.078-0.885-1.838-0.885c-0.741,0-1.334,0.283-1.78,0.846C317.272,768.57,317.05,769.373,317.05,770.41z"/>
			<path style="fill:#4B4B4B;" d="M328.684,766.658v0.315c0.455-0.602,0.954-1.043,1.496-1.326c0.542-0.281,1.163-0.422,1.866-0.422
				c0.684,0,1.295,0.148,1.834,0.447c0.538,0.297,0.941,0.719,1.206,1.262c0.172,0.316,0.282,0.66,0.332,1.025
				c0.051,0.369,0.077,0.836,0.077,1.406v4.824c0,0.519-0.119,0.914-0.357,1.18c-0.237,0.266-0.546,0.398-0.926,0.398
				c-0.387,0-0.7-0.137-0.94-0.408c-0.241-0.273-0.361-0.662-0.361-1.17v-4.32c0-0.855-0.119-1.51-0.357-1.961
				c-0.238-0.453-0.71-0.68-1.42-0.68c-0.461,0-0.883,0.137-1.263,0.412c-0.38,0.277-0.659,0.656-0.836,1.137
				c-0.126,0.387-0.19,1.108-0.19,2.164v3.248c0,0.525-0.122,0.922-0.365,1.183c-0.244,0.264-0.559,0.395-0.945,0.395
				c-0.375,0-0.681-0.137-0.922-0.408c-0.24-0.273-0.361-0.662-0.361-1.17v-7.492c0-0.494,0.107-0.863,0.323-1.108
				c0.215-0.244,0.51-0.365,0.883-0.365c0.229,0,0.435,0.053,0.619,0.162c0.183,0.107,0.33,0.27,0.441,0.482
				C328.628,766.086,328.684,766.35,328.684,766.658z"/>
			<path style="fill:#4B4B4B;" d="M344.458,771.133h-5.071c0.007,0.588,0.125,1.107,0.357,1.557
				c0.231,0.451,0.538,0.789,0.921,1.017c0.382,0.229,0.805,0.34,1.267,0.34c0.311,0,0.594-0.035,0.851-0.107
				c0.255-0.074,0.504-0.186,0.746-0.342c0.24-0.154,0.461-0.322,0.665-0.5c0.202-0.178,0.464-0.418,0.788-0.723
				c0.133-0.113,0.323-0.17,0.57-0.17c0.266,0,0.481,0.074,0.646,0.219c0.165,0.146,0.247,0.352,0.247,0.617
				c0,0.234-0.091,0.508-0.275,0.822c-0.184,0.313-0.461,0.613-0.832,0.902c-0.371,0.287-0.835,0.525-1.396,0.717
				c-0.56,0.189-1.205,0.285-1.933,0.285c-1.665,0-2.96-0.477-3.885-1.426c-0.923-0.949-1.386-2.238-1.386-3.865
				c0-0.766,0.114-1.477,0.342-2.131c0.228-0.656,0.561-1.219,0.998-1.688c0.436-0.469,0.975-0.826,1.614-1.078
				c0.639-0.25,1.349-0.373,2.128-0.373c1.013,0,1.881,0.211,2.606,0.641c0.726,0.426,1.269,0.978,1.63,1.656
				c0.36,0.678,0.542,1.369,0.542,2.07c0,0.652-0.187,1.074-0.561,1.27C345.662,771.035,345.136,771.133,344.458,771.133z
				 M339.387,769.66h4.701c-0.063-0.887-0.302-1.551-0.717-1.99c-0.415-0.439-0.961-0.66-1.638-0.66
				c-0.646,0-1.177,0.223-1.592,0.67C339.726,768.125,339.476,768.787,339.387,769.66z"/>
			<path style="fill:#4B4B4B;" d="M355.028,774.285v-0.256c-0.348,0.398-0.691,0.723-1.03,0.973c-0.339,0.25-0.706,0.441-1.102,0.57
				c-0.395,0.131-0.828,0.195-1.296,0.195c-0.622,0-1.196-0.131-1.724-0.395c-0.529-0.262-0.986-0.639-1.373-1.125
				c-0.387-0.488-0.679-1.06-0.878-1.719c-0.2-0.66-0.299-1.371-0.299-2.137c0-1.621,0.396-2.887,1.187-3.791
				s1.833-1.358,3.125-1.358c0.747,0,1.377,0.129,1.89,0.383c0.513,0.258,1.013,0.652,1.5,1.183v-3.828
				c0-0.531,0.106-0.934,0.319-1.205c0.211-0.273,0.515-0.408,0.907-0.408c0.392,0,0.694,0.125,0.907,0.375
				c0.212,0.25,0.318,0.617,0.318,1.106v11.436c0,0.494-0.114,0.865-0.342,1.111c-0.228,0.246-0.522,0.371-0.883,0.371
				c-0.355,0-0.648-0.129-0.879-0.385C355.144,775.125,355.028,774.76,355.028,774.285z M349.928,770.477
				c0,0.703,0.108,1.301,0.327,1.795c0.218,0.494,0.517,0.867,0.898,1.115c0.379,0.252,0.794,0.377,1.243,0.377
				c0.456,0,0.873-0.119,1.249-0.357c0.377-0.236,0.678-0.602,0.902-1.09c0.225-0.492,0.337-1.106,0.337-1.84
				c0-0.69-0.112-1.283-0.337-1.781c-0.224-0.496-0.528-0.877-0.912-1.141c-0.384-0.262-0.803-0.393-1.259-0.393
				c-0.474,0-0.899,0.135-1.272,0.404c-0.373,0.268-0.663,0.654-0.869,1.158C350.03,769.229,349.928,769.813,349.928,770.477z"/>
			<path style="fill:#4B4B4B;" d="M365.626,762.85v3.961c0.487-0.506,0.984-0.894,1.491-1.164c0.506-0.268,1.134-0.402,1.881-0.402
				c0.861,0,1.616,0.203,2.266,0.611c0.648,0.41,1.151,1.002,1.51,1.777c0.358,0.773,0.537,1.695,0.537,2.76
				c0,0.785-0.1,1.504-0.299,2.16c-0.2,0.654-0.49,1.223-0.869,1.703c-0.38,0.482-0.841,0.855-1.382,1.117
				c-0.542,0.264-1.139,0.395-1.791,0.395c-0.399,0-0.775-0.047-1.126-0.143c-0.352-0.096-0.651-0.219-0.898-0.375
				c-0.246-0.154-0.457-0.315-0.631-0.481c-0.174-0.164-0.404-0.412-0.689-0.74v0.256c0,0.488-0.117,0.857-0.352,1.107
				c-0.233,0.25-0.531,0.375-0.893,0.375c-0.367,0-0.66-0.125-0.878-0.375c-0.219-0.25-0.328-0.619-0.328-1.107v-11.322
				c0-0.525,0.106-0.922,0.317-1.191c0.212-0.268,0.509-0.402,0.889-0.402c0.399,0,0.706,0.127,0.921,0.383
				C365.518,762.01,365.626,762.375,365.626,762.85z M365.749,770.553c0,1.033,0.236,1.824,0.708,2.379
				c0.472,0.555,1.091,0.832,1.857,0.832c0.652,0,1.214-0.283,1.685-0.85c0.472-0.568,0.708-1.379,0.708-2.438
				c0-0.684-0.097-1.273-0.294-1.766c-0.197-0.494-0.475-0.877-0.836-1.144c-0.361-0.27-0.783-0.404-1.264-0.404
				c-0.494,0-0.935,0.135-1.32,0.404c-0.386,0.268-0.69,0.658-0.912,1.168C365.86,769.242,365.749,769.85,365.749,770.553z"/>
			<path style="fill:#4B4B4B;" d="M376.672,776.09l0.237-0.58l-3.191-8.035c-0.196-0.461-0.295-0.797-0.295-1.006
				c0-0.223,0.058-0.428,0.171-0.617c0.114-0.19,0.271-0.342,0.47-0.455c0.2-0.115,0.407-0.172,0.622-0.172
				c0.373,0,0.655,0.119,0.846,0.355c0.19,0.238,0.357,0.578,0.503,1.022l2.194,6.383l2.08-5.938
				c0.164-0.478,0.313-0.857,0.446-1.129c0.133-0.274,0.273-0.457,0.422-0.551c0.148-0.096,0.359-0.143,0.632-0.143
				c0.197,0,0.385,0.051,0.565,0.156c0.18,0.105,0.319,0.246,0.418,0.424c0.098,0.176,0.148,0.363,0.148,0.559
				c-0.026,0.121-0.066,0.291-0.124,0.514c-0.058,0.221-0.126,0.447-0.208,0.674l-3.381,8.854c-0.292,0.777-0.577,1.389-0.855,1.832
				c-0.279,0.443-0.647,0.785-1.107,1.021c-0.459,0.238-1.078,0.355-1.857,0.355c-0.759,0-1.33-0.082-1.709-0.246
				c-0.381-0.166-0.57-0.467-0.57-0.902c0-0.297,0.089-0.527,0.271-0.689c0.18-0.16,0.448-0.242,0.801-0.242
				c0.14,0,0.276,0.019,0.409,0.059c0.165,0.037,0.307,0.057,0.427,0.057c0.297,0,0.532-0.045,0.704-0.135
				c0.17-0.088,0.324-0.24,0.461-0.461C376.337,776.836,376.495,776.514,376.672,776.09z"/>
		</g>
		<g>
			<path style="fill:#4B4B4B;" d="M414.234,765.449h0.619v-0.779c0-0.814,0.1-1.457,0.307-1.938
				c0.203-0.479,0.555-0.826,1.047-1.045c0.49-0.217,1.162-0.326,2.016-0.326c1.52,0,2.273,0.367,2.273,1.115
				c0,0.238-0.08,0.443-0.24,0.615c-0.154,0.168-0.344,0.256-0.559,0.256c-0.1,0-0.277-0.02-0.527-0.061
				c-0.236-0.033-0.451-0.055-0.623-0.055c-0.467,0-0.766,0.141-0.904,0.414c-0.127,0.275-0.195,0.67-0.195,1.185v0.617h0.633
				c0.99,0,1.48,0.297,1.48,0.895c0,0.42-0.127,0.691-0.392,0.805c-0.262,0.115-0.623,0.172-1.088,0.172h-0.633v6.871
				c0,0.51-0.121,0.9-0.369,1.168c-0.242,0.272-0.555,0.406-0.943,0.406c-0.367,0-0.67-0.135-0.918-0.406
				c-0.244-0.268-0.363-0.658-0.363-1.168v-6.871h-0.715c-0.389,0-0.682-0.084-0.893-0.262c-0.209-0.172-0.315-0.4-0.315-0.678
				C412.932,765.756,413.365,765.449,414.234,765.449"/>
			<path style="fill:#4B4B4B;" d="M422.725,772.023v2.168c0,0.523-0.133,0.918-0.375,1.18c-0.246,0.266-0.559,0.395-0.938,0.395
				c-0.381,0-0.688-0.131-0.926-0.4c-0.236-0.264-0.361-0.656-0.361-1.174v-7.223c0-1.166,0.42-1.75,1.262-1.75
				c0.434,0,0.742,0.135,0.934,0.408c0.19,0.273,0.295,0.674,0.316,1.209c0.309-0.535,0.625-0.935,0.949-1.209
				c0.332-0.273,0.762-0.408,1.309-0.408c0.549,0,1.072,0.135,1.586,0.408c0.516,0.273,0.772,0.637,0.772,1.086
				c0,0.314-0.111,0.58-0.326,0.781c-0.221,0.209-0.455,0.311-0.707,0.311c-0.1,0-0.33-0.063-0.691-0.18
				c-0.365-0.113-0.689-0.172-0.963-0.172c-0.381,0-0.693,0.102-0.932,0.297c-0.242,0.205-0.432,0.498-0.564,0.887
				c-0.129,0.395-0.219,0.865-0.273,1.404C422.746,770.584,422.725,771.244,422.725,772.023"/>
			<path style="fill:#4B4B4B;" d="M434.645,771.131h-5.074c0.01,0.588,0.125,1.109,0.355,1.559c0.234,0.445,0.539,0.785,0.924,1.016
				c0.385,0.229,0.805,0.34,1.27,0.34c0.311,0,0.592-0.033,0.85-0.111c0.254-0.068,0.504-0.186,0.744-0.34
				c0.242-0.152,0.461-0.318,0.664-0.5c0.203-0.176,0.467-0.416,0.791-0.719c0.135-0.113,0.324-0.174,0.568-0.174
				c0.268,0,0.48,0.074,0.648,0.221c0.166,0.148,0.244,0.352,0.244,0.617c0,0.236-0.09,0.508-0.268,0.82
				c-0.188,0.316-0.463,0.615-0.836,0.906c-0.375,0.285-0.84,0.527-1.398,0.713c-0.559,0.191-1.205,0.287-1.932,0.287
				c-1.67,0-2.963-0.473-3.887-1.422c-0.924-0.953-1.391-2.242-1.391-3.869c0-0.766,0.117-1.479,0.348-2.135
				c0.225-0.658,0.557-1.215,0.998-1.688c0.435-0.471,0.971-0.828,1.613-1.078c0.637-0.248,1.346-0.373,2.127-0.373
				c1.012,0,1.881,0.213,2.607,0.645c0.723,0.424,1.273,0.977,1.629,1.654c0.361,0.682,0.541,1.369,0.541,2.074
				c0,0.648-0.188,1.07-0.561,1.266C435.848,771.033,435.322,771.131,434.645,771.131 M429.57,769.656h4.701
				c-0.062-0.885-0.297-1.551-0.713-1.986c-0.418-0.443-0.959-0.66-1.641-0.66c-0.647,0-1.178,0.219-1.592,0.668
				C429.912,768.125,429.658,768.783,429.57,769.656"/>
			<path style="fill:#4B4B4B;" d="M445.432,771.131h-5.072c0.006,0.588,0.125,1.109,0.354,1.559
				c0.232,0.445,0.539,0.785,0.922,1.016c0.383,0.229,0.805,0.34,1.271,0.34c0.307,0,0.592-0.033,0.844-0.111
				c0.26-0.068,0.506-0.186,0.75-0.34c0.242-0.152,0.461-0.318,0.664-0.5c0.199-0.176,0.465-0.416,0.789-0.719
				c0.135-0.113,0.326-0.174,0.568-0.174c0.268,0,0.482,0.074,0.65,0.221c0.164,0.148,0.24,0.352,0.24,0.617
				c0,0.236-0.088,0.508-0.273,0.82c-0.178,0.316-0.455,0.615-0.83,0.906c-0.371,0.285-0.84,0.527-1.397,0.713
				c-0.557,0.191-1.207,0.287-1.934,0.287c-1.668,0-2.959-0.473-3.887-1.422c-0.924-0.953-1.389-2.242-1.389-3.869
				c0-0.766,0.115-1.479,0.348-2.135c0.227-0.658,0.559-1.215,0.996-1.688c0.436-0.471,0.973-0.828,1.613-1.078
				c0.639-0.248,1.352-0.373,2.129-0.373c1.01,0,1.879,0.213,2.613,0.645c0.721,0.424,1.266,0.977,1.621,1.654
				c0.359,0.682,0.545,1.369,0.545,2.074c0,0.648-0.191,1.07-0.561,1.266C446.633,771.033,446.107,771.131,445.432,771.131
				 M440.359,769.656h4.701c-0.064-0.885-0.305-1.551-0.715-1.986c-0.422-0.443-0.963-0.66-1.643-0.66
				c-0.647,0-1.176,0.219-1.594,0.668C440.697,768.125,440.443,768.783,440.359,769.656"/>
			<path style="fill:#4B4B4B;" d="M451.111,766.678v0.311c0.486-0.6,0.994-1.041,1.525-1.324c0.518-0.283,1.117-0.426,1.781-0.426
				c0.795,0,1.535,0.207,2.207,0.617c0.672,0.414,1.199,1.016,1.59,1.807c0.389,0.795,0.586,1.729,0.586,2.813
				c0,0.797-0.113,1.531-0.336,2.201c-0.225,0.668-0.537,1.227-0.93,1.68c-0.393,0.451-0.855,0.803-1.389,1.047
				c-0.543,0.24-1.111,0.363-1.728,0.363c-0.738,0-1.363-0.148-1.865-0.447c-0.502-0.293-0.982-0.734-1.441-1.307v3.893
				c0,1.137-0.416,1.711-1.244,1.711c-0.49,0-0.809-0.146-0.971-0.439c-0.152-0.299-0.234-0.725-0.234-1.291v-11.193
				c0-0.496,0.107-0.859,0.32-1.107c0.215-0.24,0.512-0.365,0.885-0.365c0.369,0,0.666,0.125,0.897,0.375
				C450.998,765.848,451.111,766.203,451.111,766.678 M456.195,770.445c0-0.684-0.105-1.273-0.314-1.762
				c-0.209-0.492-0.498-0.867-0.865-1.129c-0.367-0.262-0.783-0.396-1.232-0.396c-0.715,0-1.318,0.285-1.809,0.844
				c-0.492,0.566-0.74,1.396-0.74,2.494c0,1.025,0.244,1.832,0.736,2.406c0.486,0.572,1.086,0.858,1.813,0.858
				c0.428,0,0.83-0.125,1.197-0.371c0.371-0.254,0.664-0.627,0.883-1.127C456.084,771.76,456.195,771.154,456.195,770.445"/>
			<path style="fill:#4B4B4B;" d="M461.412,764.012c-0.363,0-0.67-0.113-0.924-0.334c-0.26-0.223-0.387-0.533-0.387-0.938
				c0-0.367,0.131-0.67,0.396-0.91c0.262-0.234,0.566-0.355,0.914-0.355c0.34,0,0.635,0.107,0.893,0.32
				c0.26,0.219,0.391,0.533,0.391,0.945c0,0.4-0.127,0.711-0.377,0.936C462.064,763.898,461.764,764.012,461.412,764.012
				 M462.695,766.691v7.502c0,0.516-0.123,0.908-0.369,1.172c-0.25,0.27-0.561,0.4-0.941,0.4c-0.381,0-0.686-0.135-0.928-0.406
				c-0.234-0.277-0.355-0.666-0.355-1.166v-7.428c0-0.51,0.121-0.895,0.355-1.154c0.242-0.266,0.547-0.393,0.928-0.393
				c0.381,0,0.691,0.127,0.941,0.393C462.572,765.871,462.695,766.232,462.695,766.691"/>
			<path style="fill:#4B4B4B;" d="M471.055,774.582l-2.283-3.766l-1.408,1.328v2.065c0,0.5-0.133,0.883-0.396,1.15
				c-0.258,0.272-0.566,0.406-0.906,0.406c-0.398,0-0.715-0.131-0.941-0.4c-0.227-0.264-0.344-0.656-0.344-1.174v-11.064
				c0-0.572,0.115-1.01,0.332-1.313c0.223-0.305,0.545-0.453,0.953-0.453c0.399,0,0.713,0.137,0.949,0.412
				c0.234,0.27,0.353,0.674,0.353,1.201v6.293l2.916-3.063c0.361-0.375,0.633-0.641,0.826-0.777c0.189-0.139,0.42-0.209,0.689-0.209
				c0.326,0,0.594,0.104,0.816,0.308c0.211,0.207,0.32,0.467,0.32,0.773c0,0.379-0.353,0.889-1.055,1.522l-1.377,1.264l2.658,4.182
				c0.193,0.314,0.34,0.545,0.424,0.707c0.084,0.158,0.131,0.318,0.131,0.461c0,0.414-0.115,0.734-0.342,0.977
				c-0.225,0.236-0.523,0.354-0.885,0.354c-0.316,0-0.564-0.082-0.734-0.256C471.582,775.336,471.346,775.025,471.055,774.582"/>
			<path style="fill:#4B4B4B;" d="M476.691,775.766c-0.393,0-0.728-0.127-1.014-0.381c-0.285-0.25-0.43-0.606-0.43-1.065
				c0-0.387,0.139-0.719,0.41-0.996c0.275-0.279,0.607-0.418,1.008-0.418c0.398,0,0.736,0.139,1.023,0.412
				c0.279,0.275,0.422,0.611,0.422,1.002c0,0.451-0.143,0.807-0.422,1.059C477.402,775.639,477.07,775.766,476.691,775.766"/>
			<path style="fill:#4B4B4B;" d="M489.59,772.555c0,0.32-0.098,0.668-0.291,1.035c-0.191,0.369-0.488,0.717-0.887,1.049
				c-0.395,0.332-0.891,0.604-1.494,0.805c-0.602,0.201-1.281,0.307-2.031,0.307c-1.605,0-2.857-0.471-3.758-1.402
				c-0.895-0.936-1.346-2.19-1.346-3.76c0-1.066,0.205-2.006,0.619-2.824c0.408-0.814,1.004-1.447,1.781-1.893
				c0.779-0.449,1.717-0.67,2.795-0.67c0.674,0,1.287,0.098,1.852,0.295c0.561,0.195,1.033,0.451,1.426,0.758
				c0.387,0.315,0.685,0.644,0.889,0.992c0.207,0.352,0.309,0.682,0.309,0.988c0,0.307-0.113,0.57-0.344,0.787
				c-0.234,0.215-0.516,0.324-0.838,0.324c-0.219,0-0.398-0.057-0.541-0.166c-0.145-0.113-0.305-0.291-0.478-0.543
				c-0.318-0.479-0.647-0.842-0.996-1.078c-0.344-0.244-0.781-0.363-1.315-0.363c-0.762,0-1.383,0.299-1.853,0.898
				c-0.467,0.596-0.703,1.42-0.703,2.453c0,0.488,0.063,0.939,0.184,1.348c0.117,0.408,0.291,0.756,0.52,1.045
				c0.23,0.287,0.504,0.504,0.826,0.654c0.324,0.152,0.682,0.225,1.064,0.225c0.522,0,0.967-0.119,1.336-0.359
				c0.377-0.242,0.703-0.607,0.986-1.103c0.158-0.291,0.328-0.518,0.51-0.684c0.182-0.162,0.408-0.248,0.676-0.248
				c0.316,0,0.58,0.123,0.785,0.361C489.482,772.025,489.59,772.285,489.59,772.555"/>
			<path style="fill:#4B4B4B;" d="M500.779,770.494c0,0.77-0.121,1.484-0.355,2.139c-0.246,0.652-0.592,1.213-1.049,1.68
				c-0.455,0.469-1.002,0.828-1.633,1.08c-0.639,0.246-1.35,0.375-2.139,0.375c-0.785,0-1.492-0.129-2.121-0.383
				c-0.623-0.25-1.17-0.615-1.625-1.082c-0.461-0.477-0.809-1.035-1.053-1.678c-0.228-0.643-0.35-1.354-0.35-2.131
				c0-0.785,0.123-1.506,0.357-2.158c0.242-0.654,0.59-1.211,1.039-1.672c0.451-0.463,0.994-0.818,1.631-1.07
				c0.645-0.25,1.35-0.375,2.121-0.375c0.785,0,1.498,0.125,2.139,0.383c0.639,0.25,1.184,0.613,1.645,1.078
				c0.457,0.475,0.803,1.029,1.039,1.672C500.66,769.004,500.779,769.713,500.779,770.494 M498.176,770.494
				c0-1.059-0.234-1.881-0.697-2.469c-0.463-0.596-1.09-0.887-1.875-0.887c-0.508,0-0.955,0.131-1.342,0.393
				c-0.387,0.262-0.682,0.65-0.891,1.164c-0.209,0.514-0.315,1.113-0.315,1.799c0,0.68,0.102,1.268,0.309,1.773
				c0.209,0.512,0.502,0.898,0.887,1.166c0.385,0.268,0.834,0.404,1.351,0.404c0.785,0,1.412-0.295,1.875-0.891
				C497.941,772.356,498.176,771.535,498.176,770.494"/>
			<path style="fill:#4B4B4B;" d="M510.672,770.685v3.445c0,0.547-0.121,0.951-0.369,1.228c-0.25,0.272-0.572,0.408-0.978,0.408
				c-0.393,0-0.713-0.137-0.951-0.408c-0.246-0.277-0.371-0.682-0.371-1.228V770c0-0.652-0.022-1.162-0.065-1.523
				c-0.045-0.354-0.168-0.656-0.361-0.883c-0.197-0.236-0.51-0.352-0.932-0.352c-0.85,0-1.406,0.289-1.676,0.881
				c-0.268,0.576-0.406,1.412-0.406,2.506v3.502c0,0.539-0.123,0.947-0.361,1.225c-0.25,0.273-0.568,0.412-0.965,0.412
				c-0.397,0-0.717-0.139-0.967-0.412c-0.252-0.277-0.377-0.686-0.377-1.225v-7.418c0-0.49,0.111-0.861,0.336-1.111
				c0.229-0.258,0.525-0.383,0.889-0.383c0.357,0,0.652,0.123,0.893,0.355c0.236,0.238,0.353,0.566,0.353,0.984v0.246
				c0.453-0.535,0.936-0.932,1.445-1.182c0.516-0.26,1.082-0.385,1.713-0.385c0.65,0,1.211,0.131,1.678,0.389
				c0.469,0.262,0.853,0.656,1.16,1.178c0.439-0.529,0.908-0.924,1.41-1.182c0.5-0.256,1.053-0.385,1.662-0.385
				c0.705,0,1.32,0.143,1.834,0.418c0.51,0.279,0.893,0.68,1.147,1.195c0.221,0.473,0.33,1.211,0.33,2.217v5.063
				c0,0.547-0.121,0.951-0.367,1.228c-0.246,0.272-0.574,0.408-0.979,0.408c-0.394,0-0.715-0.139-0.965-0.412
				c-0.25-0.277-0.377-0.686-0.377-1.225v-4.361c0-0.559-0.023-1.002-0.068-1.338c-0.047-0.336-0.178-0.619-0.383-0.846
				c-0.213-0.228-0.531-0.344-0.953-0.344c-0.342,0-0.666,0.106-0.975,0.307c-0.307,0.199-0.547,0.477-0.721,0.813
				C510.77,768.801,510.672,769.574,510.672,770.685"/>
		</g>
		<g>
			<path style="fill:#4B4B4B;" d="M389.967,769.867c-0.002-0.006-0.002-0.01-0.002-0.018
				C389.965,769.857,389.965,769.861,389.967,769.867z"/>
			<path style="fill:#4B4B4B;" d="M390.098,770.695c0.002,0,0.002,0,0.003,0c-0.05-0.236-0.088-0.471-0.119-0.701
				C390.012,770.227,390.051,770.463,390.098,770.695z"/>
			<path style="fill:#4B4B4B;" d="M390.956,773.102c-0.006-0.01-0.011-0.022-0.017-0.033
				C390.945,773.08,390.95,773.092,390.956,773.102z"/>
			<path style="fill:#4B4B4B;" d="M390.874,772.941c-0.022-0.043-0.044-0.09-0.065-0.133
				C390.83,772.856,390.852,772.898,390.874,772.941z"/>
			<path style="fill:#4B4B4B;" d="M390.339,771.623c0.127,0.4,0.28,0.787,0.457,1.158c-0.18-0.379-0.33-0.768-0.454-1.158
				C390.341,771.623,390.34,771.623,390.339,771.623z"/>
			<path style="fill:#4B4B4B;" d="M400.004,759.93c0.501,0,0.871,0.041,1.294,0.111l0.121-0.762c0,0-1.171-0.361-2.711-0.234
				l-0.121-0.416c0.478-0.1,0.838-0.525,0.838-1.033c0-0.582-0.474-1.055-1.057-1.055c-0.583,0-1.056,0.473-1.056,1.055
				c0,0.508,0.358,0.934,0.836,1.033l0.134,0.463c-1.634,0.225-2.935,0.863-2.935,0.863l0.23,0.705
				c0.989-0.33,1.846-0.529,2.624-0.613C398.964,759.965,399.537,759.93,400.004,759.93z"/>
			<path style="fill:#4B4B4B;" d="M390.936,763.789l0.006-0.008c0.039-0.051,0.076-0.098,0.113-0.143l-0.313-0.227l-0.488-0.356
				c-0.027,0.037-0.795,0.744-1.401,2.047c-0.025-0.041-0.056-0.08-0.09-0.119c-0.182-0.197-0.436-0.299-0.758-0.293
				c-0.004,0-0.009,0-0.015,0c-0.2,0-0.337-0.066-0.427-0.148c0.089-0.113,0.143-0.256,0.143-0.412c0-0.369-0.3-0.67-0.669-0.67
				c-0.369,0-0.669,0.301-0.669,0.67c0,0.369,0.3,0.668,0.669,0.668c0.058,0,0.113-0.01,0.167-0.02
				c0.164,0.182,0.425,0.342,0.808,0.334c0.197-0.002,0.341,0.049,0.438,0.154c0.111,0.121,0.148,0.297,0.16,0.428
				c-0.001,0.002-0.001,0.006-0.003,0.006c-0.435,1.189-0.311,2.67-0.311,2.67l1.057,0.041c0.022-0.539,0.099-1.482,0.372-2.231
				C390.25,764.732,390.91,763.826,390.936,763.789z"/>
			<path style="fill:#4B4B4B;" d="M409.203,760.815c-0.367,0-0.668,0.299-0.668,0.668c0,0.059,0.008,0.113,0.023,0.166
				c-0.184,0.166-0.344,0.428-0.338,0.811c0.004,0.197-0.047,0.34-0.154,0.435c-0.084,0.076-0.191,0.115-0.295,0.141
				c-0.787-1.102-1.756-1.775-1.756-1.775l-0.76,0.814c0.574,0.521,1.16,1.174,1.728,1.99c0.395,0.563,0.799,1.289,1.137,2.014
				l1.023-0.486c0,0-0.467-1.154-1.125-2.191c0.113-0.039,0.228-0.102,0.33-0.191c0.201-0.182,0.299-0.438,0.293-0.758
				c-0.002-0.209,0.066-0.35,0.148-0.441c0.115,0.086,0.258,0.142,0.412,0.142c0.371,0,0.67-0.301,0.67-0.67
				C409.873,761.113,409.574,760.815,409.203,760.815z"/>
			<path style="fill:#4B4B4B;" d="M406.547,770.016c-1.41,0.688-3.728,1.594-6.782,2.02c-1.198,0.166-2.359,0.228-3.428,0.228
				c-1.391,0-2.62-0.103-3.563-0.223c-1.076-0.137-1.917-0.303-2.432-0.418c0.124,0.391,0.273,0.779,0.454,1.158
				c0.003,0.01,0.008,0.019,0.013,0.027c0.021,0.043,0.043,0.09,0.065,0.133c0.021,0.045,0.043,0.088,0.065,0.127
				c0.006,0.012,0.011,0.023,0.017,0.033c0.303,0.57,0.667,1.096,1.081,1.549c1.44,1.576,2.907,1.824,2.921,1.826l0.023,0.004
				l0.022,0.008c0.013,0.004,1.314,0.424,3.291,0.424c1.945,0,3.855-0.393,5.673-1.166c1.348-0.69,2.623-1.736,3.254-2.67
				c0.488-0.723,0.842-1.494,1.051-2.295c0.111-0.426,0.199-1.107,0.147-1.824C408.021,769.223,407.395,769.604,406.547,770.016z"/>
			<path style="fill:#4B4B4B;" d="M391.389,764.123c-0.041,0.059-0.652,0.924-1.135,2.252c-0.362,0.996-0.346,2.443-0.346,2.461
				v0.002c0,0.34,0.019,0.678,0.057,1.012c0,0.008,0,0.012,0.002,0.018c0.004,0.043,0.011,0.084,0.015,0.127
				c0.03,0.231,0.069,0.465,0.119,0.701c0.7,0.178,4.878,1.152,9.548,0.502c2.927-0.406,5.15-1.272,6.499-1.926
				c1.121-0.545,1.842-1.037,2.119-1.238c-0.277-1.029-1.041-2.641-1.742-3.646c-2.006-2.865-4.168-3.602-5.277-3.783
				c-0.424-0.07-0.763-0.109-1.244-0.109c-0.447,0-1.002,0.035-1.743,0.113c-0.743,0.078-1.572,0.273-2.532,0.596
				c-1.348,0.451-2.567,1.16-3.527,2.049l-0.033,0.029C392.027,763.412,391.73,763.688,391.389,764.123z M403.658,763.455
				c0.961,0,1.744,0.781,1.744,1.744c0,0.961-0.783,1.744-1.744,1.744c-0.961,0-1.742-0.783-1.742-1.744
				C401.916,764.236,402.697,763.455,403.658,763.455z M395.417,763.387c1.557,0,2.817,1.262,2.817,2.816
				c0,1.557-1.26,2.814-2.817,2.814c-1.555,0-2.816-1.258-2.816-2.814C392.601,764.648,393.862,763.387,395.417,763.387z"/>
		</g>
	</g>
	<text transform="matrix(1 0 0 1 304.0273 62.353)"><tspan x="0" y="0" style="fill:#C2EAE9; font-family:'Quicksand-Bold'; font-size:47px;">Life </tspan><tspan x="99.403" y="0" style="fill:#FFFF9D; font-family:'Quicksand-Bold'; font-size:47px;">work</tspan><tspan x="29.514" y="43.687" style="fill:#4B4B4B; font-family:'Quicksand-Bold'; font-size:39.8911px;">balance</tspan></text>
</g>
<g id="Objects">
	<path style="fill:#5C4B51;" d="M468.052,683.301c0,0,7.196,16.132,9.673,21.472c3.223,6.948,12.852,17.44,12.852,17.44v7.507
		c0,0-15.598,8.094-29.935,3.251c0,0-9.026-2.72-11.151-8.826c-2.123-6.106-8.811-10.727-8.811-10.727s-2.124-14.261,0.157-23.14
		C443.119,681.399,468.052,683.301,468.052,683.301z"/>
	<path style="fill:#F06060;" d="M313.5,723.751c0,0-1.5,2.916,0,4.583s19,3.334,22.333,3.417c3.333,0.083,7.583,1.953,10.833-1.69
		c3.25-3.643,8.167-9.643,9.25-14.393c1.083-4.75-0.083-9.082,0.417-12.416c0.5-3.334,1.833-8.167-0.333-10.417
		s-24.333,9.417-24.333,9.417s-8.917,12.167-9.167,12.75C322.25,715.584,313.5,723.751,313.5,723.751z"/>
	<path style="fill:#FFC794;" d="M347.435,593.58l-2.078,11.755c0,0-7.781,23.412-6.518,37.412c1.264,14-5,43.275-5,43.275
		l-17.66,32.142c0,0-5.893,4.333-3.837,7.333c2.056,3,18.435,3.823,18.435,3.823s10.264,1.666,13.597,0s9.798-11.734,10.131-16.57
		c0.333-4.836-0.333-12.734,1.333-15.067s-0.069-6.939,0-10.666c0.417-22.464,8.608-23.937,13.012-50.28
		c1.037-6.203,0.749-27.402,0.749-27.402l4.369-15.754H347.435z"/>
	<path style="fill:#3E454C;" d="M409.216,707.301"/>
	<path style="fill:#F06060;" d="M400.084,452.932l-53.535-1.209l-9.813,137.1c0,0,23.264,19.177,47.566,6.318l15.782-97.543V453.03
		V452.932z"/>
	<polygon style="fill:#778691;" points="452.55,451.723 404.041,452.932 452.671,452.932 	"/>
	<polygon style="fill:#778691;" points="404.041,452.932 400.084,452.932 400.084,453.03 	"/>
	<path style="fill:#2C3135;" d="M475.62,681.821l-22.949-228.89h-48.63l-3.957,0.099v44.568v0.1l30.869,190.791
		C450.286,694.489,475.62,681.821,475.62,681.821z"/>
	<polygon style="fill:#FFC794;" points="506.621,346.156 521.286,368.156 573.287,415.489 562.621,427.489 498.621,380.823 
		470.621,346.156 	"/>
	<path style="fill:#FFC794;" d="M555.926,425.169l16.004-13.51l17.97,0.465l11.546-1.395l-0.371,3.469l-8.904,4.012l-3.363,1.395
		l27.951,11.859l-2.094,3.186l-19.574-5.506l20.533,12.914l-2.941,2.898L589.6,434.009l14.467,14.992l-3.225,2.055l-15.018-14.529
		l5.644,15.51l-3.862,0.994l-5.95-15.783C581.655,437.247,561.018,433.356,555.926,425.169z"/>
	<polygon style="fill:#E6E6E6;" points="562.216,403.307 569.466,409.557 553.216,424.307 542.966,416.182 	"/>
	<path style="fill:#EFB484;" d="M400.084,226.39l-20.868,3.666v25c0,0,1.736,8,20.868,8c19.132,0,20.868-8,20.868-8v-25
		L400.084,226.39z"/>
	<g>
		<g>
			<path style="fill:#EFB484;" d="M369.92,190.968c0,0-2.699-4.524-4.626,0c-1.927,4.523,0.628,17.11,3.084,21.03
				c2.456,3.919,3.855,3.967,3.855,3.967L369.92,190.968z"/>
			<path style="fill:#EFB484;" d="M434.686,190.968c0,0,2.699-4.524,4.626,0c1.928,4.523-0.628,17.11-3.084,21.03
				c-2.456,3.919-3.854,3.967-3.854,3.967L434.686,190.968z"/>
		</g>
		<polygon style="fill:#FFC794;" points="426.205,164.307 380.329,164.307 366.835,176.257 372.233,222.519 388.681,244.622 
			399.99,244.622 404.616,244.622 415.925,244.622 432.373,222.519 437.77,176.257 		"/>
		<path style="fill:#8C6239;" d="M439.826,157.307l6.425-12.579l-10.023,0.803l6.426-9.367l-23.131,5.353l5.397-5.353l-22.617,7.226
			l2.827-7.226l-21.845,12.579l1.285-6.155l-10.28,11.508l-0.257-2.676c-4.883,3.747-7.197,21.679-7.197,21.679l3.447,32.639
			l2.208,1.619l-1.542-25.693l8.738-9.903l22.616,5.085l23.42-4.175l7.935,8.993l-1.542,25.693l2.208-1.619l3.447-32.639l4.433-7.36
			h-2.891l4.626-7.628L439.826,157.307z"/>
	</g>
	<polygon style="fill:#FFC794;" points="293.548,346.057 278.882,368.057 226.881,415.391 237.548,427.391 301.548,380.724 
		329.548,346.057 	"/>
	<path style="fill:#BEEB9F;" d="M400.084,263.057c-20.132-1-20.868-11-20.868-11l-48,11l-50.667,82l42.667,24l20.667-30.667
		l-3,118.167c0,0,20.534,6.882,59.201,7.548V263.057L400.084,263.057z"/>
	<path style="fill:#FFC794;" d="M244.243,425.07l-16.004-13.511l-17.97,0.466l-11.546-1.395l0.371,3.469l8.905,4.012l3.363,1.395
		l-27.952,11.859l2.094,3.186l19.574-5.507l-20.533,12.915l2.94,2.898l23.082-10.947l-14.466,14.992l3.224,2.055l15.018-14.53
		l-5.644,15.51l3.862,0.995l5.95-15.783C218.513,437.148,239.15,433.258,244.243,425.07z"/>
	<path style="fill:#3E454C;" d="M400.588,262.717c20.138-0.894,20.364-10.889,20.364-10.889l48.504,11.254l56.065,100.533
		l-31.444,20.75l-37.688-46.017l2.374,118.18c0,0-20.569,6.774-59.24,7.235L400.588,262.717L400.588,262.717z"/>
	<polygon style="fill:#FFFFFF;" points="407.174,318.423 418.732,263.586 408.966,267.682 402.303,281.557 405.218,318.932 	"/>
	<polygon style="fill:#E6E6E6;" points="420.952,253.057 400.084,263.057 411.963,275.343 426.216,261.057 	"/>
	<path style="fill:#616970;" d="M420.952,253.057l-20.868,99l32.29-60.5l-9.158-9.75l10.25-8
		C433.466,273.807,425.438,256.807,420.952,253.057z"/>
	<polygon style="fill:#3E454C;" points="525.521,363.615 565.985,401.829 544.379,422.049 494.077,384.365 503.521,363.498 	"/>
	<path style="fill:#CCCCCC;" d="M580.716,400.057"/>
	<polygon style="fill:#FF5335;" points="410.352,273.676 405.466,283.807 400.084,283.807 400.084,263.057 	"/>
	<polygon style="fill:#DD3924;" points="405.466,283.807 408.126,313.906 400.084,352.057 400.084,283.807 	"/>
	<path style="fill:#F06060;" d="M334.541,721.75c0,0,5.438-16.56,20.256-18.375l0.281-2.469
		C355.078,700.906,335.539,703.876,334.541,721.75z"/>
	<path style="fill:#F06060;" d="M334.541,721.75c0,0-1.727-15.62-10.49-17.911l1.259-2.291
		C325.31,701.548,336.438,705.989,334.541,721.75z"/>
</g>
</svg>
