<?xml version="1.0" encoding="utf-8"?>
<!-- Generator: Adobe Illustrator 27.5.0, SVG Export Plug-In . SVG Version: 6.00 Build 0)  -->
<svg version="1.1" id="Capa_1" xmlns="http://www.w3.org/2000/svg" xmlns:xlink="http://www.w3.org/1999/xlink" x="0px" y="0px"
	 viewBox="0 0 1975 2279" style="enable-background:new 0 0 1975 2279;" xml:space="preserve">
<path style="fill:#F7B7A1;" d="M739.013,1069.523c3.135,1.643,7.717,2.485,11.011,0.743c3.271,3.559,8.052,5.673,12.733,5.673
	l1.052-0.036c4.367-0.303,8.277-2.12,10.776-5.003c3.106,2.925,7.065,4.354,10.901,3.988c5.241-0.534,10.104-4.699,11.935-10.179
	c6.073,3.674,14.394,4.585,21.789,2.371c5.123-1.533,10.844-5.191,11.534-10.87c0.246-2.025-0.162-4.218-1.216-6.51
	c-0.311-0.686-0.681-1.361-1.096-2.005l5.147-8.227c1.918-3.067,4.093-6.542,4.496-10.446c0.505-4.888-1.957-10.268-6.589-14.392
	c-3.423-3.046-7.57-5.197-11.579-7.274c-0.754-0.388-1.505-0.78-2.251-1.173c-7.489-3.972-14.653-8.635-21.298-13.853
	c-1.128-0.89-2.572-2.072-3.823-3.434c39.345-175.3,53.138-199.793,74.019-236.872c4.872-8.651,9.91-17.595,15.8-29.323
	c24.558,0.471,55.54-3.428,85.036-10.671l0.204-0.278c-0.57-9.138-1.041-17.851-1.405-25.906l-0.044-0.141
	c-26.055-38.822-44.557-79.916-54.996-122.134c-0.138-0.56-0.272-1.125-0.405-1.69l-0.131-0.173l-0.214-0.021
	c-29.451,9.718-54.538,22.546-74.567,38.12l-0.225-0.089l-0.274,0.052c-1.156,1.041-2.35,2.14-3.533,3.271
	c-28.612,23.608-35.97,45.103-36.244,45.955c-17.462,29.004-31.675,65.136-42.253,107.391
	c-8.528,34.07-14.735,72.238-18.448,113.441c-6.419,71.212-3.297,128.021-2.902,134.511c-0.617,2.041-1.261,4.072-1.905,6.107
	c-0.5,1.576-1,3.151-1.487,4.731c-2.905,9.415-5.458,19.505-4.492,29.512C725.134,1055.728,730.86,1065.242,739.013,1069.523z"/>
<path style="fill:#F7B7A1;" d="M1082.63,1478.09c-27.58-3.92-100.828-19.819-185.045-82.663l-0.267-0.031l-0.16,0.22
	c-1.023,10.671-1.876,21.19-2.531,31.275c-41.93-13.026-113.454-16.292-216.621,41.664c-66.839,37.55-185.314,56.04-233.148,62.247
	l-0.204,0.141c-3.409,6.557-9.01,20.117-8.196,37.251c1.005,21.169,11.312,40.957,30.639,58.809l0.181,0.068l0.181-0.068
	c0.081-0.073,7.426-6.757,12.395-6.757l1.306,0.178c1.405,0.424,2.365,1.638,2.852,3.595l0.045,0.209l0.317,0.204
	c116.023-24.346,237.759-30.998,319.454-32.291c95.128-1.507,160.913,3.512,169.057,4.506c11.647,1.397,22.99-0.445,33.685-5.495
	c7.021-2.334,14.403-7.604,21.931-15.653c14.337-14.083,21.892-29.873,22.693-31.605c10.142-17.207,20.79-39.224,31.649-65.434
	l-0.016-0.236L1082.63,1478.09z"/>
<path style="fill:#F7B7A1;" d="M1463.74,2032.681c0.332-1.429,1.476-2.465,3.397-3.077l0.215-0.063l0.162-0.125l0.026-0.204
	c-51.984-186.709-58.937-396.504-59.513-478.02c1.518-24.132-2.415-58.102-11.689-100.969l-0.171-0.194l-0.256,0.042
	c-67.776,52.675-130.615,74.985-171.396,84.422l-0.189,0.162l0.024,0.241c13.212,20.798,26.204,39.146,38.615,54.549
	c-7.34,13.654-19.461,42.788-18.901,85.415c0.678,51.696,19.34,107.538,55.475,165.975c40.18,64.984,67.258,185.202,77.037,233.873
	l0.154,0.193c5.676,2.507,16.386,6.243,29.784,6.243c2.538,0,5.176-0.135,7.892-0.434c21.106-2.35,40.219-13.932,56.809-34.426
	l-0.023-0.361C1471.106,2045.838,1462.594,2037.626,1463.74,2032.681z"/>
<path style="fill:#F7B7A1;" d="M1199.695,455.945l0.144-0.042l0.123-0.241l-2.669-43.815c7.489-0.654,15.551-1.638,22.163-2.711
	c19.414-3.161,22.499-15.883,26.403-31.997c2.564-10.577,5.472-22.567,13.544-34.431c7.46-0.413,16.116-8.635,17.752-14.899
	c0.707-2.706,0.058-4.768-1.873-5.966c-8.248-5.092-17.605-26.723-20.515-34.63c-6.437-17.496-22.31-71.5-22.47-72.044
	c-0.453-1.481-0.952-2.962-1.486-4.407l-0.233-0.173c-24.925-1.743-44.848,8.3-46.361,23.362
	c-0.764,7.609-4.806,14.386-8.719,20.939c-3.122,5.234-6.348,10.645-7.976,16.517c-0.301,1.089-0.594,2.183-0.89,3.271
	c-1.74,6.453-3.538,13.126-6.809,19.039c-2.428,4.401-5.605,6.887-8.968,9.52l-1.261,0.989c-2.667-8.316-8.049-15.157-14.458-18.349
	c-5.008-2.496-10.26-2.627-14.787-0.366c-5.359,2.669-9.221,8.436-10.593,15.82c-2.321,12.493,3.069,27.015,12.553,33.861
	c-5.932,39.769-21.785,62.702-34.653,70.913l-0.123,0.189l-1.227,9.221l0.052,0.204l0.183,0.1
	c42.716,4.695,89.149,27.136,113.025,40.093L1199.695,455.945z"/>
<path style="fill:#F7B7A1;" d="M1622.144,525.755c-1.675-3.114-4.998-6.375-8.706-6.772c-0.777-5.139-3.933-9.87-8.279-12.382
	c-3.786-2.198-8.052-2.879-11.731-1.879c-0.939-4.171-3.407-7.589-6.806-9.405c-4.639-2.491-11.006-1.753-15.588,1.764
	c-2.983-6.443-9.365-11.848-16.736-14.156c-5.108-1.591-11.893-1.758-15.638,2.559c-1.34,1.549-2.227,3.595-2.638,6.087
	c-0.123,0.743-0.193,1.507-0.212,2.266c-2.954,1.319-5.909,2.632-8.866,3.941c-3.302,1.471-7.05,3.134-9.57,6.144
	c-3.155,3.778-4.124,9.614-2.588,15.622c1.131,4.422,3.358,8.51,5.508,12.466c0.411,0.753,0.825,1.512,1.23,2.271
	c3.98,7.463,7.314,15.334,9.907,23.399c0.644,2.004,1.033,3.548,1.251,4.982c-130.659,123.311-155.793,135.898-193.843,154.953
	c-7.181,3.6-14.604,7.316-23.339,12.068c-2.321,1.266-4.25,2.335-6.047,3.349c-5.613-12.56-21.902-45.097-54.122-81.898
	l-0.233-0.089l-0.207,0.141c-26.408,50.644-60.279,92.905-100.671,125.619c-1.134,0.921-2.258,1.8-3.114,2.465l-0.102,0.183
	l0.063,0.199c38.466,45.416,71.335,65.194,92.133,73.787c17.124,7.076,29.119,7.944,33.971,7.944c1.543,0,2.365-0.089,2.399-0.089
	c13.034-1.821,26.505-5.218,40.036-10.101c32.751-11.812,67.08-32.704,102.04-62.095c28.177-23.687,56.87-52.963,85.279-87.012
	c49.004-58.725,81.006-112.227,84.618-118.344c1.669-1.361,3.389-2.727,5.05-4.045c1.276-1.015,2.554-2.025,3.82-3.046
	c7.673-6.175,15.431-13.109,20.23-21.949C1625.936,544.956,1626.509,533.862,1622.144,525.755z"/>
<path style="fill:#5D1E42;" d="M1101.482,1464.075c-113.655-133.438-144.599-269.864-152.629-322.33l-0.133-0.193
	c-3.213-1.785-6.382-3.711-9.386-5.705c-0.024-0.021-2.284-1.983-4.694-5.495l-0.256-0.115l-0.217,0.183
	c-34.853,102.581-64.293,241.75-64.587,243.142l0.089,0.261c8.96,7.636,18.244,15.052,27.599,22.033
	c84.314,62.917,157.666,78.842,185.291,82.768c6.487,0.921,10.108,1.12,10.145,1.12h0.013l0.233-0.131
	c2.894-4.998,5.775-10.121,8.564-15.234L1101.482,1464.075z"/>
<path style="fill:#7B2C53;" d="M1414.917,1435.076c-0.782-2.428-78.654-244.262-133.336-336.418
	c-0.625-1.057-1.251-2.093-1.871-3.119l-0.173-0.121l-0.207,0.042c-0.61,0.408-1.222,0.791-1.822,1.141
	c-42.428,24.534-222.577,104.073-328.79,44.95l-0.282,0.016l-0.112,0.262c3.558,23.247,12.995,70.976,36.223,129.408
	c27.884,70.15,67.091,135.144,116.526,193.183c23.336,27.403,49.195,53.444,76.856,77.403l0.175,0.063h0.003
	c0.175,0,17.943-0.251,46.528-6.871c40.835-9.451,103.751-31.783,171.606-84.526c6.222-4.831,12.479-9.923,18.592-15.125
	L1414.917,1435.076z"/>
<path style="fill:#F49F95;" d="M1235.262,321.597c-0.766-4.506-4.31-8.258-9.978-10.561c-5.626-2.277-12.686-2.868-19.871-1.644
	c-14.886,2.528-25.72,12.116-24.147,21.379c1.313,7.73,10.864,12.822,22.647,12.822c2.329,0,4.744-0.199,7.202-0.618
	C1226.001,340.453,1236.832,330.86,1235.262,321.597z"/>
<path style="fill:#EB8D80;" d="M1139.906,312.124c-1.973-5.166-5.26-9.263-9.26-11.535c-3.297-1.868-6.741-2.329-9.97-1.334
	c-3.405,1.052-6.298,3.716-8.148,7.495c-0.437,0.895-0.204,2.146,0.531,2.841l1.272,0.44l1.021-0.817
	c1.468-2.993,3.748-5.097,6.422-5.924c2.522-0.785,5.226-0.414,7.819,1.062c1.224,0.691,2.368,1.601,3.409,2.706
	c-4.299,0.471-8.023,3.339-10.271,7.939c-0.437,0.895-0.202,2.14,0.536,2.837l0.089,0.058l1,0.371l0.259-0.042l0.866-0.681
	l0.076-0.094c2.206-4.517,6.084-6.867,10.381-6.223c0.4,0.764,0.759,1.56,1.065,2.371c1.583,4.155,1.921,8.672,0.947,12.723
	c-0.248,1.031,0.207,2.214,1.036,2.685l0.076,0.026l0.698,0.152l0.058,0.005h0.036c0.589-0.084,1.057-0.565,1.224-1.262
	C1142.284,322.89,1141.868,317.279,1139.906,312.124z"/>
<path style="fill:#E84154;" d="M484.531,1623.895c-0.534-2.161-1.617-3.496-3.216-3.983c-4.812-1.434-12.696,5.338-14.033,6.532
	c-44.878-41.606-28.308-83.417-22.151-95.25c1.337-2.575,2.318-4.014,2.328-4.03l0.037-0.22
	c-2.088-8.133-5.602-12.937-10.441-14.282c-8.185-2.276-17.278,6.04-18.482,7.186c-14.777-5.239-28.68-6.071-40.227-2.391
	c-13.33,0.492-24.807,5.825-32.314,15.025c-7.413,9.085-10.48,21.363-8.416,33.688c2.847,17.004,7.908,31.956,12.375,45.149
	c3.569,10.551,6.942,20.521,8.458,29.554c1.394,8.321-0.728,16.171-3.182,25.262c-3.451,12.775-7.748,28.674-3.768,52.429
	c4.893,29.224,22.718,57.642,42.383,67.575c5.404,2.727,10.781,4.093,16.095,4.093c5.098,0,10.137-1.256,15.083-3.763
	c0.78-0.398,1.46-0.832,2.041-1.298c0.602-0.335,1.193-0.712,1.753-1.125c12.548-9.138,11.817-27.758,10.972-49.325
	c-0.552-14.063-1.177-30.004,2.072-44.919c3.397-15.585,17.04-30.982,28.002-43.349c8.704-9.823,15.578-17.579,14.669-22.394
	L484.531,1623.895z"/>
<path style="fill:#E84154;" d="M1633.077,2077.846c-0.432-0.733-0.919-1.403-1.424-1.957c-0.392-0.602-0.808-1.162-1.232-1.675
	c-9.938-11.927-28.478-9.975-49.943-7.735c-14,1.47-29.862,3.13-44.955,0.859c-15.774-2.371-32.026-14.984-45.087-25.121
	c-10.36-8.039-18.553-14.392-23.226-13.189l-0.23,0.063c-2.12,0.675-3.386,1.842-3.763,3.469c-1.131,4.888,6.149,12.32,7.429,13.576
	c-38.646,47.562-81.48,33.672-93.7,28.271c-2.595-1.146-4.061-2.01-4.077-2.02l-0.22-0.026c-7.979,2.617-12.545,6.437-13.573,11.351
	c-1.741,8.327,7.151,16.852,8.376,17.982c-4.268,15.083-4.187,29.019,0.241,40.308c1.363,13.272,7.439,24.372,17.113,31.26
	c6.832,4.867,15.149,7.405,23.784,7.405c3.428,0,6.906-0.403,10.36-1.214c16.781-3.947,31.375-9.976,44.251-15.292
	c10.294-4.25,20.018-8.264,28.936-10.362c8.219-1.931,16.187-0.325,25.416,1.528c12.974,2.612,29.124,5.867,52.565,0.346
	c28.842-6.788,56.038-26.429,64.665-46.698C1639.425,2098.068,1638.852,2087.596,1633.077,2077.846z"/>
<path style="fill:#E84154;" d="M1319.675,850.727l-0.251-0.036c-13.494,4.867-26.929,8.253-39.921,10.069
	c-0.139,0.021-13.691,1.455-36.147-7.834c-20.701-8.562-53.403-28.25-91.698-73.405c0.826-0.644,1.86-1.455,2.902-2.298
	c40.358-32.688,74.21-74.885,100.626-125.441c32.231,36.885,48.425,69.432,53.897,81.736l0.162,0.147l0.215-0.021
	c1.868-1.057,3.87-2.167,6.298-3.491l0.139-0.267c-0.581-4.967-1.219-9.944-1.9-14.8c-13.9-99.53-42.074-164.064-88.65-203.064
	c0.557-6.725,1.858-29.035-3.645-43.799l-0.108-0.131c-0.081-0.052-8.457-5.427-21.771-12.649
	c-23.912-12.979-70.416-35.452-113.223-40.157c-3.907-0.429-7.743-0.706-11.409-0.827l-0.139,0.032
	c-0.251,0.146-25.073,14.685-27.515,60.478c-23.357,8.06-41.823,22.07-54.886,41.648c-3.854,5.772-7.162,11.655-10.114,17.982
	c-20.279,3.637-41.7,8.463-63.663,14.35c-2.881,0.77-6.251,1.722-10.608,3.004l-0.185,0.314l0.35,1.644
	c0.568,2.659,1.154,5.406,1.79,8.096c0.133,0.565,0.27,1.131,0.411,1.691c10.443,42.26,28.959,83.39,55.027,122.249
	c0.361,8.033,0.832,16.731,1.403,25.838c0.665,10.671,1.452,21.86,2.41,34.206c8.073,104.146-1.337,191.723-10.655,246.847
	c-9.952,58.887-21.913,94.281-22.366,95.605c-13.853,19.422-7.361,34.782-2.253,42.213c2.449,3.575,4.76,5.579,4.81,5.621
	c3.043,2.015,6.222,3.951,9.449,5.747c25.788,14.35,57.659,21.63,94.749,21.624h0.094c30.48-0.01,64.558-4.904,101.291-14.543
	c64.584-16.957,119.159-43.93,133.184-52.042c0.613-0.35,1.235-0.743,1.85-1.156l0.33-0.225l0.193-0.131
	c18.72-13.241,4.807-37.262,3.721-39.068c14.088-46.112,31.741-119.167,35.912-205.529L1319.675,850.727z"/>
<path style="fill:#421F35;" d="M1274.358,1106.712c-75.273,42.726-154.9,57.223-208.444,61.86
	c-58.031,5.024-98.766-0.125-99.169-0.178l-0.23,0.084l-0.068,0.236c6.408,32.95,12.825,58.405,23.321,75.524l0.227,0.126
	l0.044-0.005c41.096-7.034,81.629-18.626,120.48-34.452c31.079-12.66,61.156-28.041,89.395-45.72
	c48.085-30.103,74.507-56.783,74.768-57.05l0.021-0.35L1274.358,1106.712z"/>
<path style="fill:#421F35;" d="M1050.56,334.142c2.557,4.03,5.226,8.054,8.052,12.319c12.932,19.505,26.304,39.675,28.923,59.908
	l0.154,0.204l0.113,0.026l0.144-0.042c12.987-8.279,28.98-31.401,34.918-71.442l-0.11-0.262
	c-9.405-6.694-14.766-21.065-12.466-33.426c1.34-7.217,5.095-12.843,10.302-15.439c4.373-2.182,9.457-2.051,14.308,0.372
	c6.377,3.176,11.723,10.054,14.303,18.401l0.178,0.178l0.246-0.047c0.526-0.419,1.047-0.827,1.562-1.23
	c3.407-2.669,6.625-5.192,9.109-9.682c3.3-5.972,5.108-12.676,6.856-19.16c0.293-1.089,0.589-2.183,0.89-3.266
	c1.607-5.809,4.815-11.184,7.918-16.386c3.941-6.605,8.018-13.435,8.792-21.165c1.371-13.644,18.276-23.074,40.256-23.074
	c1.811,0,3.658,0.063,5.534,0.194l0.225-0.094c14.475-17.485,14.562-31.51,13.411-44.385c-0.95-10.639-4.022-21.494-8.426-29.773
	c-12.217-22.959-38.029-38.576-64.23-38.869l-0.555-0.005c-7.223,0-12.346,1.586-15.651,4.836c-1.648,1.617-2.816,3.643-3.946,5.6
	c-0.908,1.57-1.847,3.198-3.022,4.59c-5.558,6.584-14.986,7.16-24.1,7.714c-9.287,0.57-18.888,1.157-24.529,8.06
	c-2.981,3.642-4.268,8.499-5.511,13.193c-1.675,6.327-3.26,12.309-8.698,15.14c-1.743,0.906-3.724,1.34-5.639,1.753
	c-0.625,0.136-1.248,0.272-1.865,0.424c-12.404,3.019-22.69,12.838-26.202,25.016c-1.426,4.935-1.708,10.331-0.819,15.611
	c-6.819,2.575-13.228,7.06-18.069,12.65c-13.202,15.256-17.493,38.67-11.484,62.644
	C1026.826,296.78,1038.892,315.777,1050.56,334.142z"/>
<path style="fill:#421F35;" d="M1231.073,250.934c-4.498-0.958-13.081,1.983-14.963,2.774c-6.092,2.544-11.993,6.803-17.061,12.315
	c-0.869,0.947-1.306,2.616-1.039,3.972c0.196,0.994,0.727,1.722,1.541,2.099l0.873,0.188c1.762,0,4.027-1.884,5.904-3.448
	c0.688-0.571,1.282-1.063,1.724-1.351c4.325-2.81,8.936-5.218,13.704-7.154c2.311-0.932,4.76-1.785,7.484-2.596l0.699-0.194
	c1.708-0.46,3.831-1.03,3.951-3.307C1233.983,252.494,1233.006,251.353,1231.073,250.934z"/>
<path style="fill:#421F35;" d="M1227.375,265.761c-3.965,1.277-5.32,8.128-3.022,15.282c2.046,6.369,6.317,10.86,10.027,10.86
	l1.326-0.204c3.965-1.277,5.32-8.128,3.023-15.282C1236.432,269.267,1231.321,264.51,1227.375,265.761z"/>
<path style="fill:#421F35;" d="M1059.786,661.642l-0.335-0.136l-0.165,0.319c9.096,33.887,20.337,62.786,33.413,85.892
	c10.464,18.501,22.124,33.353,34.651,44.15c21.366,18.412,38.1,18.621,38.267,18.621l0.241-0.152l-0.032-0.283l-20.5-26.063
	C1091.117,725.542,1060.092,662.27,1059.786,661.642z"/>
<path style="fill:#421F35;" d="M1228.495,600.248c-18.126-16.213-34.601-25.702-34.766-25.791l-0.35,0.073l0.039,0.356
	c26.11,23.326,62.846,72.771,63.229,73.284l17.65,20.243l0.202,0.089l0.126-0.032l0.134-0.303
	C1266.843,639.159,1245.232,615.221,1228.495,600.248z"/>
<path style="fill:#421F35;" d="M1195.542,440.873l0.191-0.078l0.076-0.204l-1.892-28.737l-0.102-0.194l-0.212-0.052
	c-0.385,0.057-38.861,6.73-66.392-18.338h-0.361l-0.034,0.361c0.338,0.45,34.285,45.348,68.71,47.242H1195.542z"/>
<path style="fill:#421F35;" d="M883.693,717.452l0.487,0.094c0.536,0,1.042-0.325,1.248-0.853c2.232-5.72,2.837-11.938,1.751-17.977
	c-0.131-0.733-0.821-1.23-1.557-1.084c-0.728,0.131-1.212,0.827-1.081,1.555c0.987,5.474,0.414,11.346-1.609,16.532
	C882.662,716.41,883.002,717.185,883.693,717.452z"/>
<path style="fill:#421F35;" d="M888.605,717.755l0.691,0.194l1.149-0.649l6.542-10.87c0.379-0.633,0.175-1.454-0.458-1.836
	c-0.631-0.382-1.455-0.178-1.839,0.455l-6.542,10.87C887.767,716.551,887.971,717.378,888.605,717.755z"/>
<path style="fill:#421F35;" d="M966.638,668.021h0.011c0.741-0.005,1.334-0.612,1.329-1.35
	c-0.348-40.093-0.709-81.553,12.126-120.352c0.233-0.704-0.149-1.46-0.85-1.693c-0.714-0.241-1.462,0.146-1.693,0.85
	c-12.974,39.223-12.613,80.907-12.262,121.215C965.304,667.43,965.903,668.021,966.638,668.021z"/>
<path style="fill:#421F35;" d="M959.565,638.395l0.121-0.005c0.738-0.068,1.282-0.717,1.216-1.455
	c-1.698-19.055-0.46-38.194,3.684-56.888c0.16-0.722-0.296-1.433-1.018-1.596c-0.735-0.152-1.437,0.293-1.599,1.02
	c-4.202,18.956-5.461,38.372-3.736,57.704C958.296,637.872,958.88,638.395,959.565,638.395z"/>
<path style="fill:#421F35;" d="M1056.968,660.642l1.164,0.675l0.665-0.178c0.644-0.367,0.866-1.183,0.5-1.827
	c-2.376-4.155-4.328-8.577-5.807-13.146c-0.228-0.701-0.968-1.073-1.688-0.863c-0.704,0.231-1.088,0.984-0.861,1.69
	C1052.475,651.735,1054.503,656.325,1056.968,660.642z"/>
<path style="fill:#421F35;" d="M1054.495,668.221l0.793,0.262l1.078-0.544c0.439-0.596,0.311-1.439-0.285-1.874
	c-3.056-2.25-5.445-5.286-6.908-8.792c-0.285-0.681-1.073-1.005-1.75-0.717c-0.683,0.282-1.005,1.068-0.722,1.753
	C1048.351,662.26,1051.046,665.687,1054.495,668.221z"/>
<path style="fill:#421F35;" d="M1179.729,558.228c-0.523,0.524-0.523,1.371,0,1.895c3.852,3.852,7.382,8.075,10.486,12.555
	l1.101,0.576l0.764-0.241c0.607-0.419,0.759-1.256,0.338-1.863c-3.198-4.611-6.83-8.96-10.794-12.922
	C1181.101,557.705,1180.253,557.705,1179.729,558.228z"/>
<path style="fill:#421F35;" d="M1195.467,572.709l0.489-0.094c0.688-0.267,1.028-1.047,0.759-1.737
	c-1.267-3.219-2.832-6.343-4.653-9.284c-0.39-0.628-1.219-0.821-1.845-0.435c-0.628,0.393-0.822,1.22-0.432,1.847
	c1.735,2.805,3.229,5.783,4.432,8.855C1194.428,572.385,1194.933,572.709,1195.467,572.709z"/>
<path style="fill:#421F35;" d="M1144.741,764.647l0.882,0.33l1.01-0.46c17.917-20.505,35.114-42.082,51.112-64.136
	c0.435-0.596,0.304-1.434-0.295-1.868c-0.597-0.435-1.437-0.303-1.871,0.298c-15.952,21.986-33.099,43.501-50.966,63.948
	C1144.126,763.313,1144.184,764.16,1144.741,764.647z"/>
<path style="fill:#421F35;" d="M1200.569,713.035l0.821,0.282l1.06-0.518c14.235-18.38,27.494-37.833,39.408-57.819
	c0.379-0.633,0.17-1.46-0.466-1.837c-0.631-0.377-1.458-0.168-1.837,0.466c-11.856,19.898-25.055,39.256-39.225,57.547
	C1199.879,711.742,1199.986,712.585,1200.569,713.035z"/>
<path style="fill:#421F35;" d="M1226.648,656.393l0.607,0.147c0.487,0,0.958-0.267,1.193-0.733
	c2.366-4.643,5.176-9.096,8.355-13.241c0.45-0.586,0.34-1.429-0.246-1.878c-0.583-0.45-1.426-0.346-1.878,0.246
	c-3.279,4.275-6.178,8.87-8.617,13.659C1225.724,655.252,1225.988,656.058,1226.648,656.393z"/>
<path style="fill:#421F35;" d="M1068.142,628.65c-0.39,0.628-0.197,1.455,0.431,1.847c25.233,15.659,56.579,23.739,90.066,23.739
	c16.373,0,33.258-1.931,50.192-5.856c0.72-0.167,1.17-0.884,1.002-1.607c-0.165-0.717-0.881-1.188-1.609-1
	c-50.874,11.78-101.265,5.385-138.237-17.559C1069.364,627.833,1068.531,628.022,1068.142,628.65z"/>
<path style="fill:#421F35;" d="M1094.827,636.328l0.591,0.136c0.495,0,0.971-0.278,1.204-0.749c0.325-0.664,0.053-1.465-0.612-1.795
	l-20.51-10.08c-0.662-0.324-1.468-0.042-1.795,0.612c-0.325,0.664-0.053,1.465,0.612,1.795L1094.827,636.328z"/>
<path style="fill:#421F35;" d="M1177.56,665.169l0.215-0.016c9.417-1.512,18.668-4.15,27.491-7.84
	c0.683-0.282,1.005-1.068,0.719-1.753c-0.285-0.681-1.072-1.01-1.75-0.717c-8.633,3.606-17.676,6.186-26.884,7.662
	c-0.73,0.12-1.227,0.805-1.112,1.539C1176.346,664.698,1176.914,665.169,1177.56,665.169z"/>
<path style="fill:#421F35;" d="M1058.145,477.539c28.389,0.484,56.726,4.294,84.217,11.323l0.332,0.042
	c0.599,0,1.144-0.403,1.298-1.007c0.183-0.717-0.249-1.447-0.966-1.63c-27.696-7.081-56.239-10.917-84.835-11.406
	c-0.638,0.024-1.35,0.578-1.363,1.316C1056.816,476.917,1057.407,477.526,1058.145,477.539z"/>
<path style="fill:#421F35;" d="M1176.49,499.358c14.212,1.229,28.041,4.755,41.107,10.477l0.536,0.113
	c0.516,0,1.008-0.298,1.228-0.803c0.295-0.677-0.013-1.468-0.691-1.764c-13.33-5.838-27.444-9.436-41.949-10.692
	c-0.724-0.018-1.384,0.482-1.45,1.219C1175.208,498.646,1175.752,499.294,1176.49,499.358z"/>
<path style="fill:#421F35;" d="M1203.45,495.969c-0.113,0.73,0.387,1.416,1.12,1.528c5.105,0.79,10.168,2.049,15.049,3.744
	l0.439,0.073c0.555,0,1.073-0.348,1.267-0.9c0.241-0.699-0.129-1.462-0.827-1.706c-5.032-1.745-10.255-3.046-15.52-3.86
	C1204.256,494.758,1203.563,495.239,1203.45,495.969z"/>
<path style="fill:#421F35;" d="M1059.125,472.19h0.018c7.254-0.102,14.564,0.374,21.758,1.418l0.194,0.013
	c0.654,0,1.227-0.481,1.324-1.148c0.105-0.733-0.403-1.411-1.136-1.518c-7.332-1.06-14.787-1.541-22.177-1.444
	c-0.741,0.011-1.332,0.618-1.321,1.358C1057.795,471.602,1058.391,472.19,1059.125,472.19z"/>
<path style="fill:#421F35;" d="M1080.851,431.495c25.772,8.177,50.809,19.005,74.415,32.191l0.654,0.17l1.169-0.685
	c0.361-0.646,0.131-1.462-0.516-1.824c-23.762-13.272-48.967-24.176-74.912-32.406c-0.712-0.225-1.458,0.165-1.682,0.871
	C1079.755,430.519,1080.147,431.273,1080.851,431.495z"/>
<path style="fill:#421F35;" d="M1083.096,422.933l20.531,6.218l0.387,0.057c0.576,0,1.107-0.371,1.282-0.952
	c0.214-0.707-0.186-1.455-0.895-1.669l-20.531-6.218c-0.698-0.217-1.457,0.186-1.669,0.895
	C1081.987,421.97,1082.387,422.719,1083.096,422.933z"/>
<path style="fill:#421F35;" d="M1178.814,464.024c10.65,1.429,21.374,3.365,31.867,5.762l0.299,0.034
	c0.612,0,1.165-0.421,1.305-1.041c0.165-0.722-0.285-1.439-1.007-1.604c-10.574-2.415-21.376-4.368-32.108-5.804
	c-0.719-0.131-1.408,0.413-1.504,1.148C1177.565,463.251,1178.081,463.927,1178.814,464.024z"/>
<path style="fill:#421F35;" d="M1304.927,737.067c-4.011,3.627-7.384,7.84-10.025,12.534c-0.363,0.649-0.133,1.465,0.511,1.826
	l0.656,0.173l1.167-0.681c2.499-4.443,5.691-8.436,9.486-11.864c0.549-0.497,0.592-1.345,0.097-1.894
	C1306.322,736.612,1305.472,736.575,1304.927,737.067z"/>
<path style="fill:#421F35;" d="M1288.055,741.756l0.759,0.236l1.104-0.581c1.981-2.889,4.841-5.26,8.046-6.678
	c0.678-0.299,0.984-1.088,0.683-1.769c-0.298-0.675-1.096-0.984-1.766-0.68c-3.708,1.638-6.88,4.27-9.172,7.609
	C1287.29,740.505,1287.445,741.337,1288.055,741.756z"/>
<path style="fill:#421F35;" d="M1274.649,855.296c1.338,0.439,2.729,0.654,4.119,0.654c3.74,0,7.452-1.539,10.017-4.328
	c0.6-0.649,1.413-1.664,1.573-2.993c0.128-1.104-0.241-2.203-1.039-3.098c-0.969-1.084-2.471-1.754-3.926-1.754h-0.013
	c-2.311,0-4.273,1.235-5.851,2.23c-0.625,0.398-0.814,1.224-0.419,1.847c0.398,0.638,1.222,0.806,1.847,0.424
	c1.636-1.031,2.999-1.822,4.425-1.822h0.008c0.693,0,1.468,0.346,1.929,0.859l0.377,1c-0.05,0.424-0.33,0.895-0.882,1.491
	c-2.771,3.01-7.434,4.229-11.328,2.947c-0.699-0.236-1.46,0.146-1.69,0.853C1273.563,854.307,1273.945,855.066,1274.649,855.296z"/>
<path style="fill:#421F35;" d="M978.856,1108.005l0.827,0.283l1.055-0.513c0.455-0.581,0.353-1.424-0.228-1.884
	c-6.348-4.972-13.253-9.232-20.528-12.671c-4.967-2.339-11.469-4.794-17.635-2.962c-0.709,0.21-1.112,0.952-0.903,1.665
	c0.212,0.706,0.947,1.13,1.667,0.9c5.296-1.565,11.189,0.681,15.724,2.826C965.932,1098.993,972.667,1103.154,978.856,1108.005z"/>
<path style="fill:#421F35;" d="M949.763,1082.785l0.144-0.005l12.097-1.266c0.735-0.079,1.269-0.738,1.193-1.47
	c-0.076-0.738-0.754-1.303-1.471-1.199l-12.102,1.267c-0.735,0.078-1.269,0.738-1.19,1.475
	C948.504,1082.272,949.088,1082.785,949.763,1082.785z"/>
<path style="fill:#421F35;" d="M1273.823,1060.354c0.636,0.372,1.463,0.152,1.829-0.492c0.371-0.638,0.152-1.46-0.489-1.832
	c-2.879-1.659-6.291-0.769-9.243,0.325c-6.735,2.486-13.29,5.589-19.479,9.221c-0.639,0.377-0.853,1.198-0.479,1.837l1.156,0.659
	l0.678-0.183c6.055-3.554,12.464-6.589,19.053-9.022C1269.217,1059.983,1271.896,1059.245,1273.823,1060.354z"/>
<path style="fill:#421F35;" d="M1264.857,1054.723c0.72,0.104,1.376-0.503,1.429-1.246c0.05-0.738-0.508-1.376-1.245-1.423
	c-6.419-0.439-12.908-0.398-19.299,0.115c-0.738,0.057-1.287,0.706-1.227,1.444c0.055,0.702,0.641,1.23,1.332,1.23l0.11-0.005
	C1252.21,1054.336,1258.572,1054.304,1264.857,1054.723z"/>
<path style="fill:#421F35;" d="M1174.86,1114.819c-54.706,16.365-113.582,21.347-170.258,14.413c-0.698-0.068-1.4,0.429-1.492,1.167
	c-0.092,0.733,0.432,1.403,1.167,1.492c16.71,2.046,33.604,3.062,50.534,3.062c40.858,0,81.891-5.919,120.817-17.569
	c0.709-0.209,1.112-0.958,0.9-1.664C1176.317,1115.013,1175.574,1114.583,1174.86,1114.819z"/>
<path style="fill:#421F35;" d="M1160.774,1112.422c-21.107,5.375-42.844,8.86-64.607,10.357c-0.738,0.047-1.295,0.685-1.246,1.429
	c0.05,0.706,0.639,1.245,1.335,1.245l0.094-0.005c21.926-1.502,43.823-5.013,65.084-10.43c0.717-0.183,1.151-0.91,0.968-1.627
	C1162.219,1112.673,1161.494,1112.244,1160.774,1112.422z"/>
<path style="fill:#421F35;" d="M1217.725,859.268c-0.657-0.351-1.466-0.089-1.808,0.57
	c-40.821,78.8-110.709,141.518-172.373,196.852c-0.549,0.497-0.596,1.345-0.102,1.895l0.997,0.445l0.895-0.34
	c61.833-55.491,131.915-118.382,172.964-197.616C1218.638,860.414,1218.381,859.608,1217.725,859.268z"/>
<path style="fill:#421F35;" d="M1209.56,899.912l0.639,0.162l1.177-0.701l13.884-25.54c0.353-0.648,0.112-1.46-0.536-1.816
	c-0.649-0.351-1.463-0.121-1.818,0.539l-13.884,25.539C1208.668,898.745,1208.909,899.556,1209.56,899.912z"/>
<path style="fill:#421F35;" d="M1058.281,1030.806c-0.489-0.565-1.334-0.607-1.892-0.121c-12.048,10.635-25.134,20.212-38.89,28.47
	c-0.636,0.377-0.843,1.204-0.461,1.837l1.149,0.649l0.691-0.194c13.895-8.337,27.112-18.014,39.285-28.753
	C1058.719,1032.203,1058.771,1031.361,1058.281,1030.806z"/>
<path style="fill:#421F35;" d="M1280.699,886.242c-0.675-0.293-1.466,0.036-1.751,0.722
	c-23.912,57.595-62.338,107.862-99.501,156.476c-0.448,0.586-0.338,1.429,0.251,1.874l0.813,0.278l1.065-0.529
	c37.265-48.745,75.802-99.153,99.847-157.072C1281.706,887.309,1281.382,886.524,1280.699,886.242z"/>
<path style="fill:#421F35;" d="M1265.009,945.338c-0.628-0.382-1.458-0.167-1.834,0.471c-11.019,18.652-23.006,37.037-35.629,54.637
	c-0.432,0.602-0.293,1.439,0.309,1.869l0.78,0.251l1.088-0.56c12.671-17.663,24.702-36.111,35.761-54.836
	C1265.859,946.531,1265.648,945.71,1265.009,945.338z"/>
<path style="fill:#421F35;" d="M1045.894,919.642l0.798,0.267l1.075-0.539l80.912-108.841c0.442-0.596,0.316-1.433-0.278-1.873
	c-0.581-0.445-1.426-0.319-1.874,0.272l-80.912,108.841C1045.174,918.365,1045.3,919.202,1045.894,919.642z"/>
<path style="fill:#421F35;" d="M1115.865,839.371l0.754,0.23l1.109-0.586l12.108-17.825c0.413-0.612,0.256-1.444-0.356-1.863
	c-0.602-0.408-1.437-0.256-1.863,0.356l-12.108,17.825C1115.096,838.12,1115.253,838.952,1115.865,839.371z"/>
<path style="fill:#421F35;" d="M1045.938,882.866c-5.94,12.722-13.764,24.409-23.25,34.734c-0.5,0.544-0.466,1.392,0.081,1.89
	l0.905,0.356l0.987-0.435c9.672-10.524,17.647-22.441,23.705-35.415c0.314-0.67,0.024-1.465-0.646-1.779
	C1047.056,881.914,1046.255,882.196,1045.938,882.866z"/>
<path style="fill:#421F35;" d="M991.628,1004.042l0.788-0.256c20.853-15.161,38.374-34.661,55.321-53.518
	c8.023-8.928,16.321-18.16,24.856-26.805c0.521-0.528,0.516-1.376-0.01-1.895c-0.529-0.518-1.377-0.518-1.894,0.01
	c-8.583,8.693-16.901,17.946-24.945,26.9c-16.852,18.751-34.277,38.147-54.902,53.141c-0.6,0.434-0.73,1.272-0.296,1.874
	L991.628,1004.042z"/>
<path style="fill:#421F35;" d="M987.981,1017.256l0.311-0.036c6.199-1.486,12.055-4.815,16.496-9.373
	c0.516-0.534,0.505-1.381-0.026-1.894c-0.523-0.518-1.376-0.497-1.894,0.021c-4.09,4.207-9.488,7.274-15.198,8.64
	c-0.72,0.173-1.164,0.895-0.992,1.617C986.824,1016.843,987.373,1017.256,987.981,1017.256z"/>
<path style="fill:#421F35;" d="M1011.439,818.986l0.727,0.214l1.125-0.612c13.429-20.798,26.084-42.47,37.615-64.419
	c0.346-0.654,0.092-1.465-0.562-1.81c-0.646-0.346-1.468-0.089-1.808,0.565c-11.496,21.876-24.111,43.48-37.495,64.21
	C1010.639,817.756,1010.819,818.583,1011.439,818.986z"/>
<path style="fill:#421F35;" d="M1047.765,777.621l0.667,0.178l1.162-0.67c7.377-12.827,13.649-26.382,18.642-40.298
	c0.249-0.696-0.113-1.46-0.808-1.711c-0.691-0.246-1.463,0.115-1.714,0.811c-4.94,13.759-11.144,27.172-18.443,39.858
	C1046.901,776.433,1047.124,777.249,1047.765,777.621z"/>
<path style="fill:#421F35;" d="M1060.804,1383.945c-0.418-0.612-1.248-0.769-1.86-0.356c-0.613,0.418-0.772,1.251-0.358,1.863
	c23.092,34.033,50.026,65.533,80.056,93.621l0.916,0.361l0.979-0.424c0.505-0.539,0.476-1.387-0.063-1.894
	C1110.588,1449.165,1083.784,1417.816,1060.804,1383.945z"/>
<path style="fill:#421F35;" d="M1088.775,1406.784c-0.471-0.571-1.314-0.66-1.887-0.189c-0.573,0.466-0.656,1.309-0.191,1.884
	c12.448,15.245,26.078,29.773,40.517,43.187l0.911,0.356l0.981-0.429c0.505-0.539,0.474-1.387-0.07-1.894
	C1114.688,1436.374,1101.141,1421.935,1088.775,1406.784z"/>
<path style="fill:#421F35;" d="M1266.218,1194.729c-0.045-0.738-0.702-1.261-1.416-1.261c-0.738,0.047-1.303,0.681-1.258,1.418
	c4.943,85.044-4.967,169.539-29.451,251.144c-0.215,0.712,0.188,1.46,0.898,1.67l0.384,0.057c0.576,0,1.11-0.377,1.282-0.952
	C1261.233,1364.895,1271.179,1280.087,1266.218,1194.729z"/>
<path style="fill:#421F35;" d="M1257.572,1406.156c-0.717-0.151-1.426,0.356-1.554,1.083l-7.84,43.899
	c-0.131,0.727,0.356,1.423,1.083,1.554l0.238,0.021c0.636,0,1.201-0.455,1.316-1.104l7.84-43.898
	C1258.786,1406.983,1258.3,1406.287,1257.572,1406.156z"/>
<path style="fill:#421F35;" d="M1255.335,1227.344h0.066c0.712,0,1.303-0.555,1.337-1.272c0.735-14.879,0.251-29.946-1.437-44.778
	c-0.086-0.743-0.761-1.251-1.484-1.177c-0.735,0.083-1.264,0.743-1.18,1.481c1.672,14.69,2.151,29.606,1.426,44.338
	C1254.027,1226.679,1254.595,1227.307,1255.335,1227.344z"/>
<path style="fill:#421F35;" d="M1342.799,1295.326h-0.016c-0.741,0.011-1.332,0.618-1.324,1.356
	c0.597,50.518-3.216,101.409-11.333,151.263c-0.121,0.727,0.377,1.418,1.107,1.539l0.218,0.016c0.644,0,1.211-0.466,1.319-1.125
	c8.143-50.006,11.969-101.053,11.369-151.724C1344.131,1295.918,1343.532,1295.326,1342.799,1295.326z"/>
<path style="fill:#421F35;" d="M1350.511,1302.324c-0.738,0.052-1.293,0.696-1.237,1.434c0.983,13.047,1.274,26.288,0.866,39.355
	c-0.024,0.738,0.557,1.356,1.298,1.382h0.042c0.722,0,1.316-0.57,1.34-1.297c0.411-13.162,0.117-26.503-0.871-39.638
	C1351.89,1302.816,1351.246,1302.235,1350.511,1302.324z"/>
<path style="fill:#421F35;" d="M1321.609,1420.773h-0.016c-0.738,0.011-1.332,0.613-1.324,1.356
	c0.199,17.595-1.29,35.289-4.422,52.591c-0.131,0.733,0.354,1.429,1.081,1.56l0.241,0.021c0.633,0,1.199-0.455,1.316-1.099
	c3.161-17.475,4.663-35.337,4.464-53.104C1322.941,1421.364,1322.342,1420.773,1321.609,1420.773z"/>
<path style="fill:#421F35;" d="M1126.011,1224.025c-0.727,0.141-1.206,0.843-1.068,1.57c9.365,49.545,14.405,100.247,14.975,150.693
	c0.008,0.733,0.607,1.324,1.34,1.324h0.016c0.74-0.01,1.332-0.617,1.324-1.355c-0.573-50.597-5.626-101.456-15.023-151.163
	C1127.439,1224.371,1126.722,1223.895,1126.011,1224.025z"/>
<path style="fill:#421F35;" d="M1139.73,1217.002c-0.068-0.738-0.756-1.329-1.452-1.214c-0.738,0.068-1.282,0.717-1.217,1.455
	l4.752,53.407c0.063,0.696,0.646,1.22,1.332,1.22l0.12-0.005c0.738-0.068,1.282-0.717,1.217-1.455L1139.73,1217.002z"/>
<path style="fill:#421F35;" d="M1126.704,1392.251h0.026c0.727,0,1.324-0.581,1.34-1.313c0.293-14.434-1.136-28.91-4.244-43.014
	c-0.16-0.722-0.856-1.177-1.596-1.02c-0.722,0.157-1.18,0.874-1.02,1.596c3.064,13.9,4.469,28.161,4.182,42.386
	C1125.375,1391.623,1125.964,1392.234,1126.704,1392.251z"/>
<path style="fill:#421F35;" d="M951.126,1203.281c-0.154-0.722-0.856-1.178-1.596-1.021c-0.722,0.157-1.181,0.874-1.021,1.596
	c12.657,57.673,32.291,113.781,58.353,166.775c0.233,0.477,0.706,0.748,1.201,0.748l0.592-0.136c0.664-0.33,0.937-1.131,0.609-1.795
	C983.299,1316.648,963.739,1260.744,951.126,1203.281z"/>
<path style="fill:#421F35;" d="M980.36,1328.564l0.61-0.147c0.659-0.335,0.921-1.14,0.583-1.8
	c-11.053-21.656-20.703-44.296-28.679-67.282c-0.246-0.701-1-1.057-1.706-0.827c-0.699,0.241-1.068,1.005-0.827,1.706
	c8.018,23.1,17.715,45.85,28.826,67.616C979.403,1328.297,979.874,1328.564,980.36,1328.564z"/>
<path style="fill:#421F35;" d="M901.994,1385.913l1.115-0.597c0.411-0.617,0.244-1.45-0.371-1.858l-21.015-14
	c-0.609-0.408-1.444-0.246-1.858,0.372c-0.411,0.617-0.243,1.45,0.372,1.858l21.015,13.999L901.994,1385.913z"/>
<path style="fill:#421F35;" d="M911.988,1372.028l-27.319-10.969c-0.691-0.267-1.468,0.057-1.743,0.748
	c-0.277,0.685,0.058,1.465,0.743,1.743l27.319,10.969l0.499,0.094c0.531,0,1.034-0.319,1.243-0.843
	C913.005,1373.086,912.673,1372.306,911.988,1372.028z"/>
<path style="fill:#421F35;" d="M1081.971,1465.027c-7.355-2.894-14.531-6.39-21.329-10.394c-0.634-0.377-1.463-0.162-1.834,0.476
	c-0.377,0.638-0.162,1.46,0.473,1.837c6.919,4.072,14.225,7.625,21.711,10.572l0.489,0.094c0.534,0,1.039-0.319,1.245-0.848
	C1082.999,1466.074,1082.662,1465.299,1081.971,1465.027z"/>
<path style="fill:#421F35;" d="M1079.838,1459.265l1.055,0.513l0.827-0.288c0.583-0.455,0.683-1.297,0.227-1.878
	c-5.495-6.992-11.511-13.696-17.885-19.924c-0.528-0.518-1.376-0.503-1.894,0.021c-0.518,0.528-0.507,1.376,0.021,1.894
	C1068.479,1445.752,1074.417,1452.367,1079.838,1459.265z"/>
<path style="fill:#421F35;" d="M899.579,1432.093c-0.108-0.727-0.801-1.251-1.52-1.125c-0.733,0.11-1.238,0.79-1.128,1.523
	c1.997,13.445,6.05,26.455,12.045,38.659c0.233,0.471,0.709,0.749,1.204,0.749l0.591-0.136c0.665-0.33,0.937-1.13,0.613-1.795
	C905.509,1458.009,901.537,1445.271,899.579,1432.093z"/>
<path style="fill:#421F35;" d="M891.894,1436.123c0-0.743-0.602-1.34-1.34-1.34h-0.003c-0.741,0-1.337,0.602-1.337,1.34
	c0.016,9.122,0.445,18.369,1.277,27.497c0.063,0.696,0.648,1.219,1.332,1.219l0.123-0.005c0.738-0.068,1.282-0.717,1.214-1.455
	C892.336,1454.33,891.909,1445.161,891.894,1436.123z"/>
<path style="fill:#421F35;" d="M1299.94,1595.105c-10.899,0.136-21.64-2.292-31.286-7.201c-0.646-0.33-1.463-0.079-1.8,0.586
	c-0.338,0.66-0.073,1.466,0.586,1.801c9.664,4.919,20.452,7.505,31.288,7.505l1.259-0.011c0.741-0.016,1.329-0.623,1.316-1.366
	C1301.29,1595.681,1300.788,1595.006,1299.94,1595.105z"/>
<path style="fill:#421F35;" d="M1282.277,1610.136c-5.296-3.794-9.902-8.405-13.685-13.712c-0.429-0.607-1.267-0.748-1.869-0.309
	c-0.604,0.429-0.743,1.266-0.314,1.868c3.957,5.542,8.772,10.362,14.309,14.33l0.78,0.251l1.089-0.56
	C1283.018,1611.402,1282.879,1610.565,1282.277,1610.136z"/>
<path style="fill:#421F35;" d="M989.009,1572.251c-0.73,0.12-1.22,0.816-1.096,1.544c0.125,0.733,0.827,1.25,1.546,1.094
	c3.277-0.545,6.885,0.805,8.971,3.396c0.52,0.644,0.641,1.094,0.578,1.293l-0.785,0.78c-7.144,5.155-17.158,5.825-24.922,1.7
	c-0.646-0.335-1.462-0.099-1.813,0.555c-0.348,0.654-0.099,1.465,0.552,1.81c3.771,2.005,8.017,2.993,12.267,2.993
	c5.498,0,11.001-1.654,15.486-4.888c0.746-0.544,1.476-1.183,1.779-2.167c0.246-0.811,0.264-2.124-1.055-3.763
	C997.793,1573.229,993.269,1571.497,989.009,1572.251z"/>
<path style="fill:#421F35;" d="M372.731,1520.219c-9.488,8.478-14.314,21.577-12.594,34.19c0.092,0.67,0.665,1.156,1.324,1.156
	l0.183-0.011c0.733-0.099,1.249-0.78,1.146-1.512c-1.599-11.739,2.894-23.933,11.726-31.825c0.552-0.492,0.599-1.34,0.107-1.894
	C374.128,1519.78,373.283,1519.722,372.731,1520.219z"/>
<path style="fill:#421F35;" d="M365.273,1613.679c-0.641,0.372-0.859,1.188-0.487,1.832c4.273,7.353,5.741,16.868,4.488,29.088
	c-0.437,4.249-1.144,8.562-1.826,12.733c-0.953,5.809-1.939,11.817-2.225,17.836c-0.036,0.738,0.534,1.365,1.274,1.402h0.063
	c0.712,0,1.303-0.56,1.337-1.277c0.28-5.861,1.253-11.791,2.193-17.532c0.691-4.207,1.405-8.557,1.847-12.89
	c1.314-12.801-0.267-22.844-4.833-30.71C366.731,1613.521,365.904,1613.297,365.273,1613.679z"/>
<path style="fill:#421F35;" d="M410.98,1783.876c-1.285-0.199-2.483-0.9-3.886-1.894c-5.956-4.218-10.909-9.849-14.326-16.297
	c-0.348-0.66-1.157-0.89-1.811-0.555c-0.654,0.345-0.903,1.156-0.555,1.811c3.611,6.814,8.847,12.77,15.145,17.228
	c1.481,1.047,3.114,2.057,5.019,2.355l0.21,0.016c0.649,0,1.217-0.471,1.322-1.13C412.212,1784.677,411.71,1783.992,410.98,1783.876
	z"/>
<path style="fill:#421F35;" d="M446.075,1635.434c-0.63-0.398-1.452-0.199-1.847,0.429c-0.39,0.628-0.199,1.455,0.429,1.842
	c5.178,3.224,9.63,7.531,13.23,12.812l1.107,0.586l0.756-0.235c0.61-0.414,0.767-1.245,0.35-1.858
	C456.288,1643.42,451.568,1638.852,446.075,1635.434z"/>
<path style="fill:#421F35;" d="M436.38,1647.477c-0.691-0.298-1.468,0.021-1.764,0.696c-0.293,0.68,0.019,1.47,0.696,1.764
	c5.377,2.328,10.315,5.919,14.283,10.378l1.002,0.45l0.89-0.34c0.555-0.492,0.604-1.334,0.112-1.889
	C447.373,1653.783,442.111,1649.957,436.38,1647.477z"/>
<path style="fill:#421F35;" d="M441.894,1672.168c-4.687-3.993-10.313-6.887-16.271-8.358c-0.727-0.209-1.442,0.262-1.622,0.974
	c-0.178,0.722,0.259,1.45,0.979,1.627c5.558,1.371,10.804,4.071,15.177,7.798l0.869,0.319l1.021-0.471
	C442.524,1673.492,442.456,1672.649,441.894,1672.168z"/>
<path style="fill:#421F35;" d="M436.372,1688.24c-5.307-4.359-11.678-7.206-18.43-8.237c-0.717-0.094-1.415,0.393-1.526,1.12
	c-0.112,0.733,0.39,1.418,1.123,1.528c6.272,0.958,12.197,3.606,17.132,7.661l0.851,0.304l1.036-0.487
	C437.026,1689.553,436.945,1688.711,436.372,1688.24z"/>
<path style="fill:#421F35;" d="M431.997,1706.782c-4.697-4.004-10.323-6.893-16.271-8.363c-0.738-0.167-1.447,0.267-1.622,0.984
	c-0.178,0.717,0.262,1.445,0.979,1.623c5.548,1.365,10.797,4.061,15.177,7.797l0.869,0.319l1.02-0.471
	C432.628,1708.107,432.56,1707.264,431.997,1706.782z"/>
<path style="fill:#421F35;" d="M416.679,1529.169c0.403-0.617,0.228-1.45-0.393-1.853c-0.612-0.403-1.447-0.225-1.853,0.398
	c-8.703,13.392-22.664,22.928-38.306,26.157c-0.722,0.152-1.191,0.858-1.039,1.586c0.131,0.633,0.689,1.068,1.309,1.068l0.274-0.026
	C393.008,1553.122,407.591,1543.163,416.679,1529.169z"/>
<path style="fill:#421F35;" d="M1404.672,2152.978c-11.265,2.638-23.543-0.602-32.037-8.463c-0.544-0.497-1.392-0.466-1.894,0.073
	c-0.502,0.544-0.468,1.392,0.073,1.895c7.036,6.51,16.48,10.074,25.984,10.074c2.845,0,5.694-0.32,8.486-0.973
	c0.72-0.167,1.167-0.889,0.997-1.606C1406.117,2153.26,1405.4,2152.795,1404.672,2152.978z"/>
<path style="fill:#421F35;" d="M1522.221,2136.785c-5.728,0.277-11.59-0.126-17.255-0.508c-4.163-0.282-8.468-0.576-12.728-0.607
	c-12.539-0.058-22.221,2.37-29.462,7.552c-0.602,0.429-0.74,1.267-0.309,1.869l1.088,0.56l0.78-0.251
	c6.631-4.742,15.525-7.055,27.18-7.055l0.701,0.005c4.179,0.031,8.444,0.319,12.568,0.597c5.744,0.397,11.676,0.79,17.561,0.518
	c0.738-0.037,1.311-0.665,1.274-1.403C1523.59,2137.324,1522.98,2136.833,1522.221,2136.785z"/>
<path style="fill:#421F35;" d="M1625.313,2083.577c-0.79-0.042-1.374,0.523-1.418,1.261c-0.081,1.34-0.759,2.685-1.481,3.946
	c-3.546,6.176-8.57,11.514-14.525,15.439c-0.618,0.408-0.788,1.24-0.382,1.858l1.12,0.602l0.738-0.22
	c6.303-4.156,11.621-9.808,15.373-16.35c0.885-1.539,1.719-3.224,1.832-5.118
	C1626.613,2084.257,1626.051,2083.624,1625.313,2083.577z"/>
<path style="fill:#421F35;" d="M1476.766,2066.191l0.597,0.142c0.492,0,0.966-0.272,1.199-0.743
	c2.658-5.333,6.442-10.058,11.241-14.047c0.571-0.471,0.649-1.319,0.175-1.889c-0.471-0.571-1.321-0.644-1.886-0.173
	c-5.089,4.229-9.101,9.248-11.927,14.916C1475.834,2065.055,1476.101,2065.861,1476.766,2066.191z"/>
<path style="fill:#421F35;" d="M1489.645,2074.407l0.414,0.068c0.565,0,1.091-0.361,1.274-0.926
	c1.766-5.443,4.801-10.577,8.774-14.853c0.502-0.539,0.473-1.387-0.068-1.89c-0.539-0.497-1.387-0.476-1.895,0.068
	c-4.236,4.553-7.473,10.033-9.36,15.847C1488.557,2073.424,1488.942,2074.182,1489.645,2074.407z"/>
<path style="fill:#421F35;" d="M1506.801,2083.21l0.199,0.016c0.651,0,1.224-0.476,1.321-1.141c0.824-5.532,2.959-10.88,6.181-15.48
	c0.426-0.607,0.277-1.445-0.327-1.869c-0.607-0.419-1.442-0.277-1.866,0.33c-3.459,4.94-5.754,10.687-6.636,16.622
	C1505.563,2082.42,1506.068,2083.101,1506.801,2083.21z"/>
<path style="fill:#421F35;" d="M1530.322,2068.588c-0.609-0.414-1.442-0.246-1.86,0.361c-3.752,5.579-5.937,12.047-6.317,18.715
	c-0.042,0.743,0.523,1.377,1.261,1.418h0.076c0.706,0,1.298-0.549,1.337-1.261c0.353-6.191,2.381-12.199,5.867-17.375
	C1531.1,2069.833,1530.938,2069.001,1530.322,2068.588z"/>
<path style="fill:#421F35;" d="M1548.778,2071.163c-0.596-0.419-1.439-0.277-1.866,0.33c-3.459,4.951-5.754,10.702-6.633,16.626
	c-0.11,0.733,0.395,1.413,1.128,1.523l0.199,0.015c0.652,0,1.224-0.476,1.322-1.141c0.822-5.521,2.959-10.875,6.183-15.486
	C1549.535,2072.424,1549.386,2071.586,1548.778,2071.163z"/>
<path style="fill:#421F35;" d="M1374.255,2105.201c13.835,7.227,24.401,19.929,28.993,34.844c0.175,0.576,0.707,0.947,1.28,0.947
	l0.395-0.057c0.707-0.22,1.104-0.968,0.885-1.675c-4.799-15.596-15.847-28.879-30.313-36.436c-0.654-0.345-1.462-0.084-1.808,0.565
	C1373.345,2104.05,1373.598,2104.856,1374.255,2105.201z"/>
<path style="fill:#421F35;" d="M1401.239,2062.459c0.197,0.55,0.712,0.89,1.262,0.89l0.45-0.078c0.698-0.251,1.06-1.015,0.811-1.711
	l-9.554-26.743c-0.249-0.696-1.01-1.057-1.711-0.811c-0.696,0.245-1.06,1.015-0.811,1.711L1401.239,2062.459z"/>
<path style="fill:#421F35;" d="M1423.923,2020.586c-0.188-0.717-0.934-1.125-1.635-0.958c-0.717,0.189-1.144,0.927-0.956,1.638
	l9.567,36.289c0.157,0.602,0.702,1,1.295,1l0.343-0.042c0.714-0.188,1.141-0.927,0.952-1.638L1423.923,2020.586z"/>
<path style="fill:#421F35;" d="M507.066,1561.266c-15.829,6.353-31.608,13.439-46.897,21.059c-0.662,0.33-0.931,1.136-0.602,1.795
	c0.233,0.471,0.706,0.743,1.198,0.743l0.597-0.141c15.227-7.589,30.94-14.643,46.703-20.965c0.685-0.278,1.018-1.057,0.743-1.743
	C508.534,1561.328,507.757,1561.009,507.066,1561.266z"/>
<path style="fill:#421F35;" d="M448.36,1559.104l0.424-0.068l28.651-9.561c0.701-0.236,1.08-0.995,0.848-1.696
	c-0.236-0.702-0.989-1.078-1.696-0.848l-28.651,9.561c-0.702,0.236-1.081,0.995-0.848,1.696
	C447.276,1558.748,447.8,1559.104,448.36,1559.104z"/>
</svg>
