<?xml version="1.0" encoding="utf-8"?>
<!-- Generator: Adobe Illustrator 27.5.0, SVG Export Plug-In . SVG Version: 6.00 Build 0)  -->
<svg version="1.1" id="Layer_1" xmlns="http://www.w3.org/2000/svg" xmlns:xlink="http://www.w3.org/1999/xlink" x="0px" y="0px"
	 viewBox="0 0 900 900" style="enable-background:new 0 0 900 900;display:none;" xml:space="preserve">
<path style="display:inline;opacity:0.63;fill:#655D8C;" d="M302.026,868.31l484.69,0c2.479,0,4.489,2.01,4.489,4.489l0,0
	c0,2.479-2.01,4.488-4.489,4.488l-484.69,0c-2.479,0-4.488-2.01-4.488-4.489l0,0C297.538,870.32,299.547,868.31,302.026,868.31z"/>
<polygon style="display:inline;opacity:0.45;fill:#8D848D;" points="663.361,565.213 788.855,877.198 511.869,877.198 552.11,585.5 
	"/>
<g style="display:inline;">
	<circle style="opacity:0.52;fill:#8D848D;" cx="451.181" cy="386.686" r="286.742"/>
	<circle style="fill:#FFFFFF;stroke:#B1B6BC;stroke-width:19;stroke-miterlimit:10;" cx="451.431" cy="366.602" r="279.524"/>
	<path style="opacity:0.37;fill:#717991;" d="M451.431,87.078c-154.377,0-279.524,125.147-279.524,279.524
		s125.147,279.524,279.524,279.524s279.524-125.147,279.524-279.524S605.808,87.078,451.431,87.078z M451.431,637.652
		c-143.07,0-259.051-115.981-259.051-259.051s115.981-259.051,259.051-259.051s259.051,115.981,259.051,259.051
		S594.501,637.652,451.431,637.652z"/>
	<g>
		<path style="fill:#7D91A4;" d="M642.12,557.62c-51,51-118.81,79.09-190.94,79.09c-72.12,0-139.93-28.09-190.93-79.09
			c-51.01-51-79.09-118.81-79.09-190.93c0-66.82,24.1-129.93,68.2-179.41c3.5-3.93,7.13-7.78,10.89-11.53
			c15.1-15.1,31.67-28.19,49.39-39.14c42.14-26.03,90.77-39.95,141.54-39.95c72.13,0,139.94,28.09,190.94,79.09
			s79.09,118.81,79.09,190.94C721.21,438.81,693.12,506.62,642.12,557.62z M655.55,162.31c-54.59-54.59-127.17-84.65-204.37-84.65
			c-54.45,0-106.59,14.95-151.75,42.91c-18.88,11.69-36.53,25.65-52.62,41.74c-3.66,3.66-7.22,7.41-10.65,11.23
			c-47.84,53.12-74,121.12-74,193.15c0,77.2,30.06,149.78,84.65,204.37c54.59,54.59,127.17,84.65,204.37,84.65
			c27.71,0,54.82-3.87,80.72-11.36c44.1-12.75,84.69-35.99,118.7-68.46c1.67-1.58,3.32-3.2,4.95-4.83
			c54.59-54.59,84.66-127.17,84.66-204.37C740.21,289.48,710.14,216.9,655.55,162.31z"/>
	</g>
	<path style="fill:#D1D3D4;" d="M656.85,335.039c-0.268-1.066-1.434-1.737-2.591-1.49l-191.735,40.848l145.752-120.776
		c2.176-1.803,2.354-4.918,0.397-6.923c-1.957-2.004-5.338-2.169-7.514-0.367L451.575,370.283c-0.023,0.02-0.039,0.043-0.062,0.063
		c-0.891-2.515-2.884-4.688-5.708-5.822l-110.648-44.428c-5.239-2.104-11.394,0.124-13.678,4.951v0
		c-2.284,4.827,0.135,10.497,5.374,12.601l110.648,44.428c3.064,1.23,6.436,0.97,9.169-0.415c1.183,1.017,2.766,1.645,4.512,1.645
		c2.733,0,5.079-1.527,6.089-3.704l197.962-42.174C656.39,337.18,657.118,336.106,656.85,335.039z"/>
	
		<ellipse transform="matrix(0.2313 -0.9729 0.9729 0.2313 -13.7919 723.9158)" style="fill:#767C89;" cx="451.181" cy="370.685" rx="15.128" ry="15.128"/>
	<path style="fill:#767C89;" d="M451.178,366.684L451.178,366.684c-1.957-2.176-1.778-5.557,0.398-7.514l149.584-134.543
		c2.176-1.957,5.557-1.778,7.514,0.398l0,0c1.957,2.176,1.778,5.557-0.398,7.514L458.692,367.081
		C456.516,369.039,453.135,368.859,451.178,366.684z"/>
	<path style="fill:#EF524B;" d="M450.465,368.64L450.465,368.64c-0.268-1.158,0.46-2.324,1.618-2.591l202.176-46.753
		c1.157-0.268,2.323,0.46,2.591,1.618l0,0c0.268,1.158-0.46,2.324-1.618,2.591l-202.176,46.753
		C451.899,370.526,450.733,369.798,450.465,368.64z"/>
	<path style="fill:#767C89;" d="M451.179,366.596L451.179,366.596c-2.284,5.239-8.439,7.658-13.678,5.374l-110.648-48.224
		c-5.239-2.284-7.658-8.439-5.374-13.678l0,0c2.284-5.239,8.439-7.658,13.678-5.374l110.648,48.224
		C451.044,355.202,453.463,361.357,451.179,366.596z"/>
	<path style="fill:none;stroke:#8A949B;stroke-width:19;stroke-miterlimit:10;" d="M444.561,366.685c0-3.656,2.964-6.62,6.62-6.62
		c3.656,0,6.62,2.964,6.62,6.62s-2.964,6.62-6.62,6.62C447.525,373.305,444.561,370.341,444.561,366.685z"/>
	<g>
		
			<ellipse transform="matrix(0.7071 -0.7071 0.7071 0.7071 46.9641 354.3177)" style="fill:#D1D3D4;" cx="451.181" cy="120.468" rx="10.141" ry="10.141"/>
		
			<ellipse transform="matrix(0.7071 -0.7071 0.7071 0.7071 -307.9996 501.3484)" style="fill:#D1D3D4;" cx="451.181" cy="622.463" rx="10.141" ry="10.141"/>
		
			<ellipse transform="matrix(0.8478 -0.5303 0.5303 0.8478 -32.1529 196.1469)" style="fill:#D1D3D4;" cx="325.683" cy="154.095" rx="10.141" ry="10.142"/>
		
			<ellipse transform="matrix(0.8407 -0.5416 0.5416 0.8407 -227.0047 406.1395)" style="fill:#D1D3D4;" cx="576.68" cy="588.835" rx="10.141" ry="10.142"/>
		<path style="fill:#D1D3D4;" d="M228.741,254.749c-4.851-2.8-6.513-9.003-3.712-13.854s9.003-6.512,13.854-3.712
			c4.851,2.8,6.513,9.003,3.712,13.854C239.794,255.888,233.591,257.55,228.741,254.749z"/>
		<path style="fill:#D1D3D4;" d="M663.481,505.747c-4.851-2.801-6.513-9.003-3.712-13.854c2.8-4.851,9.003-6.512,13.854-3.712
			c4.851,2.8,6.513,9.003,3.712,13.853C674.534,506.885,668.331,508.547,663.481,505.747z"/>
		
			<ellipse transform="matrix(0.2288 -0.9735 0.9735 0.2288 -207.2252 481.3646)" style="fill:#D1D3D4;" cx="200.184" cy="371.465" rx="10.141" ry="10.141"/>
		
			<ellipse transform="matrix(0.2824 -0.9593 0.9593 0.2824 147.5282 940.1518)" style="fill:#D1D3D4;" cx="702.179" cy="371.465" rx="10.141" ry="10.141"/>
		
			<ellipse transform="matrix(0.754 -0.6568 0.6568 0.754 -268.9164 275.8177)" style="fill:#D1D3D4;" cx="233.811" cy="496.964" rx="10.142" ry="10.141"/>
		<path style="fill:#D1D3D4;" d="M673.622,254.749c-4.851,2.8-11.053,1.139-13.854-3.712s-1.138-11.053,3.712-13.854
			c4.85-2.801,11.053-1.139,13.854,3.712C680.135,245.747,678.473,251.949,673.622,254.749z"/>
		
			<ellipse transform="matrix(0.5667 -0.8239 0.8239 0.5667 -344.0376 523.4827)" style="fill:#D1D3D4;" cx="325.683" cy="588.835" rx="10.141" ry="10.141"/>
		
			<ellipse transform="matrix(0.5911 -0.8066 0.8066 0.5911 111.5126 528.1602)" style="fill:#D1D3D4;" cx="576.68" cy="154.095" rx="10.141" ry="10.141"/>
	</g>
	<g>
		<circle style="fill:#787D82;" cx="451.181" cy="116.468" r="10.141"/>
		<circle style="fill:#787D82;" cx="451.181" cy="618.462" r="10.141"/>
		
			<ellipse transform="matrix(0.2164 -0.9763 0.9763 0.2164 108.6656 435.5796)" style="fill:#787D82;" cx="325.683" cy="150.095" rx="10.141" ry="10.141"/>
		
			<ellipse transform="matrix(0.255 -0.967 0.967 0.255 -135.8563 993.3494)" style="fill:#787D82;" cx="576.68" cy="584.835" rx="10.141" ry="10.141"/>
		<path style="fill:#787D82;" d="M228.741,250.749c-4.851-2.8-6.513-9.003-3.712-13.854s9.003-6.513,13.854-3.712
			s6.513,9.003,3.712,13.854C239.794,251.888,233.591,253.55,228.741,250.749z"/>
		<path style="fill:#787D82;" d="M663.481,501.746c-4.851-2.8-6.513-9.003-3.712-13.853c2.8-4.851,9.003-6.513,13.854-3.712
			c4.851,2.801,6.513,9.003,3.712,13.853C674.534,502.885,668.331,504.547,663.481,501.746z"/>
		
			<ellipse transform="matrix(0.1597 -0.9872 0.9872 0.1597 -194.5311 506.4044)" style="fill:#787D82;" cx="200.184" cy="367.465" rx="10.142" ry="10.141"/>
		
			<ellipse transform="matrix(0.1962 -0.9806 0.9806 0.1962 204.0798 983.8927)" style="fill:#787D82;" cx="702.179" cy="367.465" rx="10.142" ry="10.141"/>
		<path style="fill:#787D82;" d="M238.882,501.746c-4.851,2.801-11.053,1.139-13.854-3.712c-2.801-4.85-1.139-11.053,3.712-13.853
			c4.85-2.801,11.053-1.139,13.854,3.712C245.395,492.744,243.733,498.946,238.882,501.746z"/>
		<path style="fill:#787D82;" d="M673.622,250.749c-4.851,2.801-11.053,1.139-13.854-3.712c-2.8-4.851-1.138-11.053,3.712-13.854
			c4.85-2.801,11.053-1.139,13.854,3.712C680.135,241.746,678.473,247.949,673.622,250.749z"/>
		
			<ellipse transform="matrix(0.9761 -0.2173 0.2173 0.9761 -119.2985 84.7421)" style="fill:#787D82;" cx="325.683" cy="584.835" rx="10.141" ry="10.141"/>
		
			<ellipse transform="matrix(0.967 -0.255 0.255 0.967 -19.2099 151.9888)" style="fill:#787D82;" cx="576.68" cy="150.095" rx="10.141" ry="10.141"/>
	</g>
	<g>
		<path style="fill:#FFFFFF;" d="M243.01,173.454c2.377-2.559,4.833-5.106,7.335-7.608c14.508-14.509,30.483-27.406,47.542-38.389
			l4.84,7.603c-16.516,10.636-31.976,23.118-46.012,37.154c-2.506,2.499-5.002,5.091-7.457,7.742L243.01,173.454z"/>
	</g>
	<path style="opacity:0.69;fill:#8D848D;" d="M650.6,575.89c-34.01,32.47-74.6,55.71-118.7,68.46c-0.66-3.05-1.34-6.19-2.03-9.38
		C522.94,602.71,515.3,565.14,517,564c3-2,55-115,55-115l20-20l54.85,137.47L650.6,575.89z"/>
</g>
<g id="_x31_" style="display:inline;">
	<path style="fill:#17A552;" d="M592.32,841.96v23.25c0,6.6-5.4,12-12,12H310.57c-1.65,0-3-1.35-3-3c0-1.65,1.35-3,3-3h102.5v-35.25
		h-102.5c-1.65,0-3-1.35-3-3c0-1.65,1.35-3,3-3h269.75C586.92,829.96,592.32,835.36,592.32,841.96z"/>
	<path style="fill:#B7CC27;" d="M458.259,829.957h-7.25c6.6,0,12,5.4,12,12v23.25c0,6.6-5.4,12-12,12h7.25c6.6,0,12-5.4,12-12
		v-23.25C470.259,835.357,464.859,829.957,458.259,829.957z"/>
	<path style="fill:#B7CC27;" d="M555.634,829.957h-7.25c6.6,0,12,5.4,12,12v23.25c0,6.6-5.4,12-12,12h7.25c6.6,0,12-5.4,12-12
		v-23.25C567.634,835.357,562.234,829.957,555.634,829.957z"/>
	<path style="opacity:0.5;fill:#42525B;" d="M586.574,869.557h-164h-3.25h-6.25v1.651h-102.5c-1.65,0-3,1.35-3,3c0,1.65,1.35,3,3,3
		h102.5h3.25h164c5.536,0,10.213-3.804,11.583-8.923C590.297,869.091,588.49,869.557,586.574,869.557z"/>
	<path style="fill:#2ED155;" d="M431.324,865.207v-23.25c0-6.6-5.4-12-12-12h-3h-3.25h-102.5c-1.65,0-3,1.35-3,3c0,1.65,1.35,3,3,3
		h102.5v35.25h-102.5c-1.65,0-3,1.35-3,3c0,1.65,1.35,3,3,3h102.5h3.25h3C425.924,877.207,431.324,871.807,431.324,865.207z"/>
	<path style="fill:#FFFFFF;" d="M416.324,835.957H311.009c1.803,5.328,2.815,11.307,2.815,17.625c0,6.318-1.012,12.297-2.815,17.625
		h105.315c4.4,0,8-3.575,8-7.944v-19.363C424.324,839.532,420.724,835.957,416.324,835.957z"/>
	<path style="fill:#B1B6BC;" d="M416.324,835.957H311.009c0.317,0.938,0.601,1.903,0.868,2.88h103.197c4.4,0,8,3.575,8,7.944v19.363
		c0,0.554-0.059,1.094-0.168,1.616c0.892-1.281,1.418-2.83,1.418-4.496v-19.363C424.324,839.532,420.724,835.957,416.324,835.957z"
		/>
	<path style="fill:#56504C;" d="M424.324,863.264v-19.363c0-2.422-1.109-4.596-2.844-6.056c-1.428,4.838-2.221,10.155-2.221,15.738
		c0,5.583,0.793,10.9,2.221,15.738C423.216,867.86,424.324,865.685,424.324,863.264z"/>
</g>
<path style="display:inline;fill:#0DC8DB;" d="M301.324,782.707h200.301h3.25h102.5c1.65,0,3,1.35,3,3c0,1.65-1.35,3-3,3h-102.5
	v35.25h102.5c1.65,0,3,1.35,3,3c0,1.65-1.35,3-3,3h-102.5h-3.25H301.324c-6.6,0-12-5.4-12-12v-23.25
	C289.324,788.107,294.724,782.707,301.324,782.707z"/>
<path style="display:inline;opacity:0.5;fill:#42525B;" d="M295.074,822.307h200.301h3.25h6.25v1.651h102.5c1.65,0,3,1.35,3,3
	c0,1.65-1.35,3-3,3h-102.5h-3.25H301.324c-5.536,0-10.213-3.804-11.583-8.923C291.352,821.841,293.159,822.307,295.074,822.307z"/>
<path style="display:inline;fill:#1CE8F2;" d="M295.074,790.358h200.301h3.25h6.25v-1.651h102.5c1.65,0,3-1.35,3-3
	c0-1.65-1.35-3-3-3h-102.5h-3.25H301.324c-5.536,0-10.213,3.804-11.583,8.923C291.352,790.824,293.159,790.358,295.074,790.358z"/>
<path style="display:inline;fill:#258B99;" d="M486.625,817.957v-23.25c0-6.6,5.4-12,12-12h3h3.25h102.5c1.65,0,3,1.35,3,3
	c0,1.65-1.35,3-3,3h-102.5v35.25h102.5c1.65,0,3,1.35,3,3c0,1.65-1.35,3-3,3h-102.5h-3.25h-3
	C492.025,829.957,486.625,824.557,486.625,817.957z"/>
<path style="display:inline;fill:#F4E7DC;" d="M501.625,788.707h105.315c-1.803,5.328-2.815,11.307-2.815,17.625
	c0,6.318,1.012,12.297,2.815,17.625H501.625c-4.4,0-8-3.575-8-7.944v-19.363C493.625,792.282,497.225,788.707,501.625,788.707z"/>
<path style="display:inline;fill:#B1B6BC;" d="M501.625,788.707h105.315c-0.317,0.938-0.601,1.903-0.868,2.88H502.875
	c-4.4,0-8,3.575-8,7.944v19.363c0,0.554,0.059,1.094,0.168,1.616c-0.892-1.281-1.418-2.83-1.418-4.496v-19.363
	C493.625,792.282,497.225,788.707,501.625,788.707z"/>
<path style="display:inline;fill:#56504C;" d="M493.625,816.014v-19.363c0-2.422,1.109-4.596,2.844-6.056
	c1.428,4.838,2.221,10.155,2.221,15.738c0,5.583-0.793,10.9-2.221,15.738C494.734,820.61,493.625,818.435,493.625,816.014z"/>
<path style="display:inline;fill:#E8426E;" d="M319.324,735.457h206.375h3.25h102.5c1.65,0,3,1.35,3,3c0,1.65-1.35,3-3,3h-102.5
	v35.25h102.5c1.65,0,3,1.35,3,3c0,1.65-1.35,3-3,3h-102.5h-3.25H319.324c-6.6,0-12-5.4-12-12v-23.25
	C307.324,740.857,312.724,735.457,319.324,735.457z"/>
<path style="display:inline;fill:#B23259;" d="M313.074,775.057h206.375h3.25h6.25v1.651h102.5c1.65,0,3,1.35,3,3c0,1.65-1.35,3-3,3
	h-102.5h-3.25H319.324c-5.536,0-10.213-3.804-11.583-8.923C309.352,774.591,311.159,775.057,313.074,775.057z"/>
<path style="display:inline;fill:#FF527B;" d="M313.074,743.108h206.375h3.25h6.25v-1.651h102.5c1.65,0,3-1.35,3-3
	c0-1.65-1.35-3-3-3h-102.5h-3.25H319.324c-5.536,0-10.213,3.804-11.583,8.923C309.352,743.574,311.159,743.108,313.074,743.108z"/>
<path style="display:inline;fill:#B23259;" d="M510.699,770.707v-23.25c0-6.6,5.4-12,12-12h3h3.25h102.5c1.65,0,3,1.35,3,3
	c0,1.65-1.35,3-3,3h-102.5v35.25h102.5c1.65,0,3,1.35,3,3c0,1.65-1.35,3-3,3h-102.5h-3.25h-3
	C516.099,782.707,510.699,777.307,510.699,770.707z"/>
<path style="display:inline;fill:#F4E7DC;" d="M525.699,741.457h105.315c-1.803,5.328-2.815,11.307-2.815,17.625
	c0,6.318,1.012,12.297,2.815,17.625H525.699c-4.4,0-8-3.575-8-7.944v-19.363C517.699,745.032,521.299,741.457,525.699,741.457z"/>
<path style="display:inline;fill:#B1B6BC;" d="M525.699,741.457h105.315c-0.317,0.938-0.601,1.903-0.868,2.88H526.949
	c-4.4,0-8,3.575-8,7.944v19.363c0,0.554,0.059,1.094,0.168,1.616c-0.892-1.281-1.418-2.83-1.418-4.496v-19.363
	C517.699,745.032,521.299,741.457,525.699,741.457z"/>
<path style="display:inline;fill:#56504C;" d="M517.699,768.764v-19.363c0-2.422,1.109-4.596,2.844-6.056
	c1.428,4.838,2.221,10.155,2.221,15.738c0,5.583-0.793,10.9-2.221,15.738C518.808,773.36,517.699,771.185,517.699,768.764z"/>
<g style="display:inline;">
	<path style="fill:#F4F4E4;" d="M488.667,764.916h-74.675v-11.667h74.675c3.222,0,5.833,2.612,5.833,5.833l0,0
		C494.5,762.304,491.888,764.916,488.667,764.916z"/>
</g>
<g style="display:inline;">
	<path style="fill:#F4F4E4;" d="M389.825,753.249H402.5v11.667h-12.675c-3.222,0-5.833-2.612-5.833-5.833l0,0
		C383.991,755.861,386.603,753.249,389.825,753.249z"/>
</g>
<g id="_x34_" style="display:inline;">
	<path style="fill:#FF8D1C;" d="M586.36,700.21v23.25c0,6.6-5.4,12-12,12h-283.2c-1.65,0-3-1.35-3-3c0-1.65,1.35-3,3-3h102.5v-35.25
		h-102.5c-1.65,0-3-1.35-3-3c0-1.65,1.35-3,3-3h283.2C580.96,688.21,586.36,693.61,586.36,700.21z"/>
	<path style="fill:#D1651C;" d="M580.607,727.807H403.164h-3.25h-6.25v1.651h-102.5c-1.65,0-3,1.35-3,3c0,1.65,1.35,3,3,3h102.5
		h3.25h177.443c5.536,0,10.213-3.804,11.583-8.923C584.33,727.341,582.522,727.807,580.607,727.807z"/>
	<path style="fill:#FFC12A;" d="M493.6,695.86h-99.94v-1.65h-102.5c-1.65,0-3-1.35-3-3c0-1.65,1.35-3,3-3h191.52
		C486.68,689.65,490.69,692.44,493.6,695.86z"/>
	<path style="fill:#DA463A;" d="M438.848,688.207h-7.25c6.6,0,12,5.4,12,12v23.25c0,6.6-5.4,12-12,12h7.25c6.6,0,12-5.4,12-12
		v-23.25C450.848,693.607,445.448,688.207,438.848,688.207z"/>
	<path style="fill:#FFC12A;" d="M411.914,723.457v-23.25c0-6.6-5.4-12-12-12h-3h-3.25h-102.5c-1.65,0-3,1.35-3,3c0,1.65,1.35,3,3,3
		h102.5v35.25h-102.5c-1.65,0-3,1.35-3,3c0,1.65,1.35,3,3,3h102.5h3.25h3C406.514,735.457,411.914,730.057,411.914,723.457z"/>
	<path style="fill:#FFFFFF;" d="M396.914,694.207H291.598c1.803,5.328,2.815,11.307,2.815,17.625c0,6.318-1.012,12.297-2.815,17.625
		h105.315c4.4,0,8-3.575,8-7.944v-19.363C404.914,697.782,401.314,694.207,396.914,694.207z"/>
	<path style="fill:#B1B6BC;" d="M396.914,694.207H291.598c0.317,0.938,0.601,1.903,0.868,2.88h103.197c4.4,0,8,3.575,8,7.944v19.363
		c0,0.554-0.059,1.094-0.168,1.616c0.892-1.281,1.418-2.83,1.418-4.496v-19.363C404.914,697.782,401.314,694.207,396.914,694.207z"
		/>
	<path style="fill:#56504C;" d="M404.914,721.514v-19.363c0-2.422-1.109-4.596-2.844-6.056c-1.428,4.838-2.221,10.155-2.221,15.738
		c0,5.583,0.793,10.9,2.221,15.738C403.805,726.11,404.914,723.935,404.914,721.514z"/>
	<path style="opacity:0.7;fill:#D1651C;" d="M585.94,697.13c-1.61-0.81-3.42-1.27-5.33-1.27H493.6c-2.91-3.42-6.92-6.21-10.92-7.65
		h91.68c0.21,0,0.41,0.01,0.62,0.02c0.18,0,0.35,0.02,0.53,0.04c0.23,0.02,0.46,0.05,0.68,0.08c0.2,0.03,0.39,0.07,0.58,0.11
		c0.86,0.17,1.69,0.44,2.47,0.8c0.14,0.06,0.28,0.13,0.42,0.2c0.58,0.28,1.14,0.61,1.66,1
		C583.55,692.06,585.21,694.41,585.94,697.13z"/>
	<path style="fill:#D1651C;" d="M583.696,692.723c0.36,0.447,0.687,0.92,0.981,1.416
		C584.384,693.642,584.055,693.17,583.696,692.723z"/>
	<path style="fill:#D1651C;" d="M583.549,692.534c0.051,0.061,0.097,0.126,0.147,0.188
		C583.646,692.661,583.6,692.595,583.549,692.534z"/>
	<path style="fill:#D1651C;" d="M584.765,694.283c0.154,0.269,0.296,0.544,0.43,0.826
		C585.061,694.828,584.918,694.552,584.765,694.283z"/>
	<path style="fill:#D1651C;" d="M585.194,695.109c0.024,0.05,0.046,0.102,0.069,0.152
		C585.24,695.21,585.218,695.159,585.194,695.109z"/>
	<path style="fill:#D1651C;" d="M584.677,694.138c0.029,0.049,0.06,0.096,0.088,0.145
		C584.737,694.234,584.706,694.187,584.677,694.138z"/>
	<path style="fill:#D1651C;" d="M583.081,692.017c0.16,0.169,0.318,0.339,0.468,0.518C583.4,692.356,583.24,692.187,583.081,692.017
		z"/>
	<path style="fill:#D1651C;" d="M586.36,700.21v23.25c0,6.6-5.4,12-12,12h-67.95c4.52-1.41,5.82-6.26,2.73-11.97l-13.01-23.99
		c-0.69-1.26-1.54-2.49-2.53-3.64h87.01c1.91,0,3.72,0.46,5.33,1.27c-0.173-0.646-0.403-1.269-0.676-1.869
		C585.956,696.774,586.36,698.445,586.36,700.21z"/>
	<path style="fill:#D1651C;" d="M583.081,692.017c-0.136-0.144-0.273-0.286-0.416-0.423
		C582.807,691.732,582.946,691.873,583.081,692.017z"/>
	<path style="fill:#D1651C;" d="M581.32,690.46c0.323,0.232,0.63,0.484,0.928,0.746C581.949,690.945,581.644,690.691,581.32,690.46z
		"/>
	<path style="fill:#D1651C;" d="M582.665,691.594c-0.136-0.132-0.274-0.263-0.417-0.388
		C582.392,691.331,582.528,691.463,582.665,691.594z"/>
	<path style="opacity:0.54;fill:#DA463A;" d="M540.224,688.207h-4.25c6.6,0,12,5.4,12,12v23.25c0,6.6-5.4,12-12,12h4.25
		c6.6,0,12-5.4,12-12v-23.25C552.224,693.607,546.824,688.207,540.224,688.207z"/>
	<path style="opacity:0.54;fill:#DA463A;" d="M551.259,688.207h-4.25c6.6,0,12,5.4,12,12v23.25c0,6.6-5.4,12-12,12h4.25
		c6.6,0,12-5.4,12-12v-23.25C563.259,693.607,557.859,688.207,551.259,688.207z"/>
</g>
<path style="display:inline;fill:#B54840;" d="M334.31,632.332h164h3.25h102.5c1.65,0,3,1.596,3,3.548c0,1.951-1.35,3.548-3,3.548
	h-102.5v41.685h102.5c1.65,0,3,1.596,3,3.548c0,1.951-1.35,3.548-3,3.548h-102.5h-3.25h-164c-6.6,0-12-6.386-12-14.19v-27.494
	C322.31,638.718,327.71,632.332,334.31,632.332z"/>
<path style="display:inline;fill:#FF7F15;" d="M404.25,674.02c0,1.81,0.29,3.54,0.82,5.14h-57.25c-0.53-1.6-0.82-3.33-0.82-5.14
	v-27.5c0-1.81,0.29-3.54,0.82-5.14h57.25c-0.53,1.6-0.82,3.33-0.82,5.14V674.02z"/>
<path style="display:inline;fill:#E8641A;" d="M416.25,688.21H359c-5.07,0-9.43-3.77-11.18-9.05h57.25
	C406.82,684.44,411.18,688.21,416.25,688.21z"/>
<path style="display:inline;fill:#8C362A;" d="M359,688.21h-24.69c-5.54,0-10.21-4.5-11.58-10.55c1.61,0.95,3.41,1.5,5.33,1.5h19.76
	C349.57,684.44,353.93,688.21,359,688.21z"/>
<path style="display:inline;fill:#8C362A;" d="M607.06,684.66c0,1.95-1.35,3.55-3,3.55H416.25c-5.07,0-9.43-3.77-11.18-9.05h96.49
	v1.95h102.5C605.71,681.11,607.06,682.71,607.06,684.66z"/>
<path style="display:inline;fill:#FFA81D;" d="M416.25,632.33c-5.07,0-9.43,3.77-11.18,9.05h-57.25c1.75-5.28,6.11-9.05,11.18-9.05
	H416.25z"/>
<path style="display:inline;opacity:0.87;fill:#E5624C;" d="M334.31,632.33H359c-5.07,0-9.43,3.77-11.18,9.05h-19.76
	c-1.92,0-3.72,0.55-5.33,1.5C324.1,636.83,328.77,632.33,334.31,632.33z"/>
<path style="display:inline;opacity:0.9;fill:#E5624C;" d="M607.06,635.88c0,1.95-1.35,3.55-3,3.55h-102.5v1.95h-96.49
	c1.75-5.28,6.11-9.05,11.18-9.05h187.81C605.71,632.33,607.06,633.93,607.06,635.88z"/>
<path style="display:inline;fill:#8C362A;" d="M483.31,674.017v-27.494c0-7.805,5.4-14.19,12-14.19h3h3.25h102.5
	c1.65,0,3,1.596,3,3.548c0,1.951-1.35,3.548-3,3.548h-102.5v41.685h102.5c1.65,0,3,1.596,3,3.548c0,1.951-1.35,3.548-3,3.548h-102.5
	h-3.25h-3C488.71,688.207,483.31,681.821,483.31,674.017z"/>
<path style="display:inline;fill:#F4E7DC;" d="M498.31,639.427h105.316c-1.803,6.301-2.815,13.371-2.815,20.842
	c0,7.471,1.012,14.542,2.815,20.842H498.31c-4.4,0-8-4.227-8-9.394v-22.897C490.31,643.655,493.91,639.427,498.31,639.427z"/>
<path style="display:inline;fill:#B1B6BC;" d="M498.31,639.427h105.316c-0.317,1.109-0.601,2.251-0.868,3.406H499.56
	c-4.4,0-8,4.227-8,9.394v22.897c0,0.654,0.059,1.293,0.169,1.911c-0.892-1.515-1.419-3.346-1.419-5.317v-22.897
	C490.31,643.655,493.91,639.427,498.31,639.427z"/>
<path style="display:inline;fill:#56504C;" d="M490.31,671.718v-22.897c0-2.864,1.109-5.435,2.844-7.162
	c1.428,5.721,2.221,12.008,2.221,18.611c0,6.602-0.793,12.889-2.221,18.611C491.419,677.154,490.31,674.582,490.31,671.718z"/>
<path style="display:inline;fill:#DA463A;" d="M566.633,576.457H392.632h-3.25h-82.499c-1.65,0-3,1.596-3,3.548
	c0,1.951,1.35,3.548,3,3.548h82.499v41.685h-82.499c-1.65,0-3,1.596-3,3.548c0,1.951,1.35,3.548,3,3.548h82.499h3.25h174.001
	c6.6,0,12-6.386,12-14.19v-27.494C578.633,582.843,573.233,576.457,566.633,576.457z"/>
<path style="display:inline;fill:#BC342E;" d="M572.883,623.285H398.882h-3.25h-6.25v1.952h-82.499c-1.65,0-3,1.596-3,3.548
	c0,1.951,1.35,3.548,3,3.548h82.499h3.25h174.001c5.536,0,10.213-4.498,11.582-10.552
	C576.605,622.734,574.798,623.285,572.883,623.285z"/>
<path style="display:inline;fill:#BFE743;" d="M552.94,590.65v27.49c0,7.81-5.4,14.19-12,14.19h-67.25c6.6,0,12-6.38,12-14.19
	v-27.49c0-1.82-0.29-3.56-0.83-5.15h67.25C552.65,587.09,552.94,588.83,552.94,590.65z"/>
<path style="display:inline;fill:#F9F93D;" d="M552.11,585.5h-67.25c-1.74-5.28-6.1-9.04-11.17-9.04h67.25
	C546.01,576.46,550.37,580.22,552.11,585.5z"/>
<path style="display:inline;fill:#FC5047;" d="M484.86,585.5h-95.48v-1.95h-82.5c-1.65,0-3-1.59-3-3.55c0-1.95,1.35-3.54,3-3.54
	h166.81C478.76,576.46,483.12,580.22,484.86,585.5z"/>
<path style="display:inline;fill:#FC5047;" d="M578.22,587.01c-1.61-0.95-3.42-1.51-5.34-1.51h-20.77
	c-1.74-5.28-6.1-9.04-11.17-9.04h25.69C572.17,576.46,576.85,580.96,578.22,587.01z"/>
<path style="display:inline;fill:#FC5047;" d="M407.632,618.142v-27.494c0-7.805-5.4-14.19-12-14.19h-3h-3.25h-82.499
	c-1.65,0-3,1.596-3,3.548c0,1.951,1.35,3.548,3,3.548h82.499v41.685h-82.499c-1.65,0-3,1.596-3,3.548c0,1.951,1.35,3.548,3,3.548
	h82.499h3.25h3C402.232,632.332,407.632,625.946,407.632,618.142z"/>
<path style="display:inline;fill:#FFFFFF;" d="M392.632,583.552h-85.314c1.803,6.301,2.815,13.371,2.815,20.842
	c0,7.471-1.012,14.542-2.815,20.842h85.314c4.4,0,8-4.227,8-9.394v-22.897C400.632,587.78,397.032,583.552,392.632,583.552z"/>
<path style="display:inline;fill:#B1B6BC;" d="M392.632,583.552h-85.314c0.317,1.109,0.601,2.251,0.868,3.406h83.196
	c4.4,0,8,4.227,8,9.394v22.897c0,0.654-0.059,1.293-0.168,1.911c0.892-1.515,1.418-3.346,1.418-5.317v-22.897
	C400.632,587.78,397.032,583.552,392.632,583.552z"/>
<path style="display:inline;fill:#56504C;" d="M400.632,615.843v-22.897c0-2.864-1.109-5.435-2.844-7.162
	c-1.428,5.721-2.221,12.008-2.221,18.611c0,6.602,0.792,12.889,2.221,18.611C399.523,621.279,400.632,618.707,400.632,615.843z"/>
<g id="_x37_" style="display:inline;">
	<path style="fill:#3465BC;" d="M588.884,529.207h-164h-3.25h-102.5c-1.65,0-3,1.35-3,3c0,1.65,1.35,3,3,3h102.5v35.25h-102.5
		c-1.65,0-3,1.35-3,3c0,1.65,1.35,3,3,3h102.5h3.25h164c6.6,0,12-5.4,12-12v-23.25C600.884,534.607,595.484,529.207,588.884,529.207
		z"/>
	<path style="fill:#0DC8DB;" d="M536.823,529.207h-7.25c6.6,0,12,5.4,12,12v23.25c0,6.6-5.4,12-12,12h7.25c6.6,0,12-5.4,12-12
		v-23.25C548.823,534.607,543.423,529.207,536.823,529.207z"/>
	<path style="fill:#0DC8DB;" d="M573.194,529.207h-27.251c6.6,0,12,5.4,12,12v23.25c0,6.6-5.4,12-12,12h27.251c6.6,0,12-5.4,12-12
		v-23.25C585.194,534.607,579.794,529.207,573.194,529.207z"/>
	<path style="opacity:0.5;fill:#42525B;" d="M595.134,568.807h-164h-3.25h-6.25v1.651h-102.5c-1.65,0-3,1.35-3,3c0,1.65,1.35,3,3,3
		h102.5h3.25h164c5.536,0,10.213-3.804,11.583-8.923C598.857,568.341,597.049,568.807,595.134,568.807z"/>
	<path style="fill:#68A6FF;" d="M595.134,536.858h-164h-3.25h-6.25v-1.651h-102.5c-1.65,0-3-1.35-3-3c0-1.65,1.35-3,3-3h102.5h3.25
		h164c5.536,0,10.213,3.804,11.583,8.923C598.857,537.324,597.049,536.858,595.134,536.858z"/>
	<path style="fill:#5497F7;" d="M439.884,564.457v-23.25c0-6.6-5.4-12-12-12h-3h-3.25h-102.5c-1.65,0-3,1.35-3,3c0,1.65,1.35,3,3,3
		h102.5v35.25h-102.5c-1.65,0-3,1.35-3,3c0,1.65,1.35,3,3,3h102.5h3.25h3C434.484,576.457,439.884,571.057,439.884,564.457z"/>
	<path style="fill:#FFFFFF;" d="M424.884,535.207H319.569c1.803,5.328,2.815,11.307,2.815,17.625c0,6.318-1.012,12.297-2.815,17.625
		h105.315c4.4,0,8-3.575,8-7.944v-19.363C432.884,538.782,429.284,535.207,424.884,535.207z"/>
	<path style="fill:#B1B6BC;" d="M424.884,535.207H319.569c0.317,0.938,0.601,1.903,0.868,2.88h103.197c4.4,0,8,3.575,8,7.944v19.363
		c0,0.554-0.059,1.094-0.168,1.616c0.892-1.281,1.418-2.83,1.418-4.496v-19.363C432.884,538.782,429.284,535.207,424.884,535.207z"
		/>
	<path style="fill:#56504C;" d="M432.884,562.514v-19.363c0-2.422-1.109-4.596-2.844-6.056c-1.428,4.838-2.221,10.155-2.221,15.738
		c0,5.583,0.793,10.9,2.221,15.738C431.775,567.11,432.884,564.935,432.884,562.514z"/>
</g>
<path style="display:inline;fill:#FFC20D;" d="M317.241,466.624h164h3.25h102.5c1.65,0,3,1.788,3,3.973c0,2.186-1.35,3.974-3,3.974
	h-102.5v46.689h102.5c1.65,0,3,1.788,3,3.974c0,2.185-1.35,3.974-3,3.974h-102.5h-3.25h-164c-6.6,0-12-7.152-12-15.894v-30.795
	C305.241,473.777,310.641,466.624,317.241,466.624z"/>
<line style="display:inline;fill:none;stroke:#FFDC48;stroke-width:7;stroke-linecap:round;stroke-miterlimit:10;" x1="319" y1="475" x2="473.241" y2="475"/>
<path style="display:inline;fill:#E8A205;" d="M310.991,519.074h164h3.25h6.25v2.186h102.5c1.65,0,3,1.788,3,3.974
	c0,2.185-1.35,3.974-3,3.974h-102.5h-3.25h-164c-5.536,0-10.213-5.038-11.582-11.819
	C307.268,518.457,309.076,519.074,310.991,519.074z"/>
<path style="display:inline;fill:#EF8834;" d="M466.241,513.313v-30.795c0-8.742,5.4-15.894,12-15.894h3h3.25h102.5
	c1.65,0,3,1.788,3,3.973c0,2.186-1.35,3.974-3,3.974h-102.5v46.689h102.5c1.65,0,3,1.788,3,3.974c0,2.185-1.35,3.974-3,3.974h-102.5
	h-3.25h-3C471.641,529.208,466.241,522.055,466.241,513.313z"/>
<path style="display:inline;fill:#F4E7DC;" d="M481.241,474.571h105.315c-1.803,7.057-2.815,14.976-2.815,23.345
	s1.012,16.288,2.815,23.345H481.241c-4.4,0-8-4.735-8-10.521v-25.646C473.241,479.306,476.841,474.571,481.241,474.571z"/>
<path style="display:inline;fill:#B1B6BC;" d="M481.241,474.571h105.315c-0.317,1.243-0.601,2.521-0.868,3.815H482.491
	c-4.4,0-8,4.735-8,10.521v25.646c0,0.733,0.059,1.449,0.168,2.141c-0.892-1.697-1.418-3.748-1.418-5.955v-25.646
	C473.241,479.306,476.841,474.571,481.241,474.571z"/>
<path style="display:inline;fill:#56504C;" d="M473.241,510.739v-25.646c0-3.208,1.109-6.088,2.844-8.022
	c1.428,6.408,2.221,13.45,2.221,20.845c0,7.395-0.793,14.437-2.221,20.845C474.35,516.827,473.241,513.947,473.241,510.739z"/>
<path style="display:inline;fill:#E8A205;" d="M322.443,501.421v-9.01c0-2.179,1.766-3.945,3.945-3.945l0,0
	c2.179,0,3.945,1.766,3.945,3.945v9.01c0,2.179-1.766,3.945-3.945,3.945l0,0C324.209,505.366,322.443,503.599,322.443,501.421z"/>
<g id="_x39_" style="display:inline;">
	<path style="fill:#14A552;" d="M335.866,419.374h164h3.25h102.5c1.65,0,3,1.35,3,3c0,1.65-1.35,3-3,3h-102.5v35.25h102.5
		c1.65,0,3,1.35,3,3c0,1.65-1.35,3-3,3h-102.5h-3.25h-164c-6.6,0-12-5.4-12-12v-23.25
		C323.866,424.774,329.266,419.374,335.866,419.374z"/>
	<path style="fill:#B7CC27;" d="M367.81,466.62h-7.25c-6.6,0-12-5.4-12-12v-23.25c0-1.53,0.29-3,0.82-4.34h7.25
		c-0.53,1.34-0.82,2.81-0.82,4.34v23.25C355.81,461.22,361.21,466.62,367.81,466.62z"/>
	<path style="opacity:0.5;fill:#42525B;" d="M329.616,458.974h164h3.25h6.25v1.651h102.5c1.65,0,3,1.35,3,3c0,1.65-1.35,3-3,3
		h-102.5h-3.25h-164c-5.536,0-10.213-3.804-11.582-8.923C325.893,458.508,327.701,458.974,329.616,458.974z"/>
	<path style="fill:#D8E52E;" d="M367.81,419.37c-5.07,0-9.43,3.19-11.18,7.66h-7.25c1.75-4.47,6.11-7.66,11.18-7.66H367.81z"/>
	<path style="fill:#2ED155;" d="M360.56,419.37c-5.07,0-9.43,3.19-11.18,7.66h-19.76c-1.92,0-3.73,0.46-5.34,1.27
		c1.37-5.12,6.05-8.93,11.59-8.93H360.56z"/>
	<path style="fill:#2ED155;" d="M608.62,422.37c0,1.65-1.35,3-3,3h-102.5v1.66H356.63c1.75-4.47,6.11-7.66,11.18-7.66h237.81
		C607.27,419.37,608.62,420.72,608.62,422.37z"/>
	<path style="fill:#2E7256;" d="M484.866,454.624v-23.25c0-6.6,5.4-12,12-12h3h3.25h102.5c1.65,0,3,1.35,3,3c0,1.65-1.35,3-3,3
		h-102.5v35.25h102.5c1.65,0,3,1.35,3,3c0,1.65-1.35,3-3,3h-102.5h-3.25h-3C490.266,466.624,484.866,461.224,484.866,454.624z"/>
	<path style="fill:#F4E7DC;" d="M499.866,425.374h105.315c-1.803,5.328-2.815,11.307-2.815,17.625
		c0,6.318,1.012,12.297,2.815,17.625H499.866c-4.4,0-8-3.575-8-7.944v-19.363C491.866,428.949,495.466,425.374,499.866,425.374z"/>
	<path style="fill:#B1B6BC;" d="M499.866,425.374h105.315c-0.317,0.938-0.601,1.903-0.868,2.88H501.116c-4.4,0-8,3.575-8,7.944
		v19.363c0,0.553,0.059,1.094,0.168,1.616c-0.892-1.281-1.418-2.83-1.418-4.496v-19.363
		C491.866,428.949,495.466,425.374,499.866,425.374z"/>
	<path style="fill:#47403C;" d="M491.866,452.681v-19.363c0-2.422,1.109-4.596,2.844-6.056c1.428,4.838,2.221,10.155,2.221,15.738
		c0,5.583-0.793,10.9-2.221,15.738C492.975,457.277,491.866,455.103,491.866,452.681z"/>
</g>
<path style="display:inline;fill:#DC765D;" d="M507.137,159.08c-0.484-1.651-2.31-8.328-2.115-9.26
	c0.543-2.593,3.975-11.144,9.063-12.245c5.087-1.101,4.009,5.357,4.009,5.357l1.73,5.772l-7.253,12.539L507.137,159.08z"/>
<path style="display:inline;fill:#DC765D;" d="M379.324,159c0.484-1.651,1.977-7.76,1.394-10.462
	c-0.559-2.589-2.277-9.862-7.364-10.963c-5.087-1.101-6.844,4.404-6.844,4.404l0.121,5.615l8.237,13.651L379.324,159z"/>
<rect x="370.158" y="15.373" style="display:inline;fill:#94CC3B;" width="145.5" height="131.75"/>
<path style="display:inline;fill:#FFFFFF;" d="M410.689,77.178l3.676-3.676c1.185-1.185,3.137-1.073,4.178,0.24l18.811,23.712
	c1.315,1.657,3.921,1.317,4.766-0.623l22.912-52.602c0.636-1.46,2.359-2.098,3.793-1.403l5.544,2.688
	c1.356,0.657,1.949,2.269,1.344,3.649l-30.336,69.109c-0.849,1.934-3.45,2.27-4.763,0.616l-30.138-37.986
	C409.59,79.787,409.682,78.185,410.689,77.178z"/>
<g style="display:inline;">
	<path style="fill:#F7B288;" d="M517.536,139.06c0.235-1.027,0.895-3.724,0.612-4.195c-0.283-0.471-3.344-1.156-3.909-1.07
		c-0.565,0.086-4.333,1.969-4.427,2.611c-0.094,0.642,0.334,1.574,1.13,1.498c0.895-0.086,2.449-0.728,3.579-1.37
		c0.35,0.287,0.985,0.372,1.036,0.428l-0.047,1.541L517.536,139.06z"/>
	<path style="fill:#DC765D;" d="M517.749,138.135c-0.279-0.166-0.621-0.29-1.06-0.53c-0.706-0.385-1.166-0.681-1.13-0.642
		l-0.047,1.541l1.973,0.542c0.019,0.004,0.035,0.007,0.053,0.011C517.591,138.821,517.667,138.497,517.749,138.135z"/>
	<path style="fill:#F7B288;" d="M519.232,141.218c-0.094-0.77,0.188-2.825-0.377-2.953c-0.565-0.128-4.191-0.514-4.662-0.471
		c-0.471,0.043-4.333,2.697-4.286,3.21c0.047,0.514,0.612,1.755,1.366,1.626c0.754-0.128,3.438-1.541,3.438-1.541L519.232,141.218z"
		/>
	<path style="fill:#DC765D;" d="M519.217,140.157c-1.083-0.212-3.846-0.603-4.177-0.566c-0.326,0.037-3.499,1.64-4.718,2.461
		c0.241,0.361,0.572,0.642,0.951,0.578c0.754-0.128,3.438-1.541,3.438-1.541l4.521,0.128
		C519.201,140.965,519.21,140.573,519.217,140.157z"/>
	<path style="fill:#F7B288;" d="M520.362,143.914c-0.377-1.37-0.047-2.91-0.659-3.082s-4.144-0.685-4.521-0.642
		c-0.377,0.043-4.568,2.183-5.133,2.782c-0.307,0.325,0.4,1.513,0.989,1.541c0.895,0.043,3.721-1.241,4.191-1.669
		c0.706-0.086,1.837,0.128,1.837,0.128l0.236,1.027L520.362,143.914z"/>
	<path style="fill:#DC765D;" d="M520.22,143.7c0.031-0.01,0.052-0.061,0.068-0.129c-0.051-0.26-0.087-0.52-0.108-0.773
		c-0.933-0.306-3.434-0.779-4.151-0.168c-0.082,0.07-0.119,0.138-0.129,0.203c0.587,0.031,1.165,0.139,1.165,0.139l0.142,0.62
		c0.362,0.096,0.659,0.15,0.659,0.15S520.079,143.743,520.22,143.7z"/>
	<path style="fill:#F7B288;" d="M514.758,161.206c2.072-2.91,7.441-11.214,7.253-12.156c-0.384-1.921-0.659-5.543-1.06-5.693
		c-0.551-0.206-3.65-0.557-4.027-0.471c-0.377,0.086-5.165,2.211-4.615,2.911c0.942,1.199,2.166,0.77,4.239-0.428l1.601,0.171
		c0,0-0.471,1.284-0.094,2.654c-4.76,2.32-7.771,5.693-6.405,11.642L514.758,161.206z"/>
</g>
<g style="display:inline;">
	<path style="fill:#F7B288;" d="M367.976,138.853c-0.252-1.099-0.957-3.983-0.655-4.486c0.302-0.504,3.576-1.236,4.181-1.145
		c0.604,0.092,4.634,2.106,4.735,2.792c0.101,0.687-0.357,1.684-1.209,1.602c-0.957-0.092-2.619-0.778-3.828-1.465
		c-0.375,0.307-1.053,0.398-1.108,0.458l0.05,1.648L367.976,138.853z"/>
	<path style="fill:#DC765D;" d="M367.749,137.863c0.298-0.177,0.665-0.311,1.134-0.566c0.755-0.412,1.247-0.728,1.209-0.687
		l0.05,1.648l-2.11,0.58c-0.02,0.004-0.037,0.007-0.057,0.011C367.918,138.597,367.836,138.25,367.749,137.863z"/>
	<path style="fill:#F7B288;" d="M366.51,141.16c0.101-0.824-0.201-3.021,0.403-3.159c0.605-0.137,4.483-0.549,4.987-0.504
		c0.504,0.046,4.634,2.884,4.584,3.433c-0.05,0.549-0.655,1.877-1.461,1.74c-0.806-0.137-3.677-1.648-3.677-1.648L366.51,141.16z"/>
	<path style="fill:#DC765D;" d="M366.525,140.025c1.158-0.227,4.114-0.645,4.468-0.605c0.348,0.039,3.742,1.754,5.047,2.632
		c-0.258,0.386-0.612,0.687-1.017,0.618c-0.806-0.137-3.677-1.648-3.677-1.648l-4.836,0.137
		C366.543,140.889,366.532,140.47,366.525,140.025z"/>
	<path style="fill:#F7B288;" d="M365.231,144.044c0.403-1.465,0.05-3.113,0.705-3.296c0.655-0.183,4.433-0.732,4.836-0.687
		c0.403,0.046,4.886,2.335,5.49,2.976c0.328,0.348-0.427,1.618-1.058,1.648c-0.957,0.046-3.979-1.328-4.483-1.785
		c-0.756-0.092-1.965,0.137-1.965,0.137l-0.252,1.099L365.231,144.044z"/>
	<path style="fill:#DC765D;" d="M365.382,143.815c-0.033-0.01-0.056-0.065-0.072-0.138c0.055-0.279,0.093-0.556,0.116-0.827
		c0.997-0.327,3.673-0.833,4.44-0.18c0.088,0.075,0.127,0.147,0.138,0.217c-0.628,0.033-1.246,0.149-1.246,0.149l-0.152,0.663
		c-0.387,0.102-0.704,0.161-0.704,0.161S365.534,143.861,365.382,143.815z"/>
	<path style="fill:#F7B288;" d="M372.265,162.538c-2.216-3.113-7.959-11.994-7.757-13.001c0.411-2.054-0.063-5.434,0.491-5.919
		c0.473-0.414,3.976-0.875,4.379-0.784c0.403,0.092,5.566,2.392,4.977,3.14c-1.007,1.282-2.358,0.797-4.574-0.485l-1.663,0.346
		c0,0,1.024,1.321,0.621,2.786c3.01,1.25,8.111,6.96,6.85,12.452L372.265,162.538z"/>
</g>
<g style="display:inline;">
	<path style="fill:#2E282F;" d="M426.492,406.456c-0.25,1.25,0.333,4.5,0.333,5.25s-9.083-1.417-9.083-1.417l-0.167-4.5
		L426.492,406.456z"/>
	<path style="fill:#2E282F;" d="M466.992,405.789c0.25,1.25-0.333,4.5-0.333,5.25s9.083-1.417,9.083-1.417l0.25-6L466.992,405.789z"
		/>
	<path style="fill:#6C382E;" d="M479.242,402.789c2.083,2.083,10,8.25,11.333,8.917c1.333,0.667,14.731,3.148,15.356,3.773
		s0.913,2.918-0.065,3.896h-39.458c0,0-0.417-6.835,0-8.835c0,0,7.999-2.667,8.833-6.917L479.242,402.789z"/>
	<path style="fill:#6C382E;" d="M410.658,405.289c-3.083,2.25-8.75,6.667-10.583,7.5c-1.833,0.833-11.796,2.651-12.296,3.151
		s-0.954,3.434,0.379,3.434c1.333,0,39.25,0,39.25,0s0.5-3.835-0.333-8.585c-0.458-0.458-5.75-0.083-9.5-5L410.658,405.289z"/>
	<path style="fill:#3D303E;" d="M440.825,235.766l3.167-0.477l1.2,47.333c0,0,18.634-3.333,18.634,0.833c0,0,0.551,9.85,3.19,28.5
		c3.372,23.833,10.624,73.438,14.394,91.417c0,0-14.685,4.29-16.852,3.624c0,0-17.398-93.54-18.898-102.874
		c-0.833-0.833-4.583-0.75-5.667,0.333c0,0-6.5,56.5-12.167,102.563c0,0-15.5,0.437-18.667-1.563c0,0,9.233-74.83,10.833-92.833
		c2-22.5,1.583-29.25,1.583-31.25s17.75,1.083,17.75,1.083L440.825,235.766z"/>
</g>
<g style="display:inline;">
	<path style="fill:#DC765D;" d="M437.075,189.414c0.376,2.666-0.031,6.417-0.031,7.083c0,0.648,5.118,2.896,5.531,2.896
		c0.5,0,5.667-2.855,5.667-2.855s-0.609-5.181-0.31-6.51C448.139,189.11,437.075,189.414,437.075,189.414z"/>
	<path style="fill:#DC765D;" d="M454.742,173.716c0.917-0.857,2.824-2.463,3.333-0.5c0.833,3.214-0.333,7.57-3.167,7.784
		S454.742,173.716,454.742,173.716z"/>
	<path style="fill:#DC765D;" d="M430.618,173.716c-0.917-0.857-2.824-2.463-3.333-0.5c-0.833,3.214,0.333,7.57,3.167,7.784
		S430.618,173.716,430.618,173.716z"/>
	<path style="fill:#F7B288;" d="M444.653,191.456h-4.154c-6.05,0-11-7.95-11-14v-9.125c0-6.05,4.95-11,11-11h4.154
		c6.05,0,11,4.95,11,11v9.125C455.653,183.506,450.703,191.456,444.653,191.456z"/>
	<path style="fill:#883D2C;" d="M429.458,175.831c-0.058-2.75,1.097-4.398,1.354-7.022c0.304-3.104,1.804-4.666,1.641-7.958
		c5.123-0.688,4.705,5.926,11.027,5.926c-0.748-1.03-0.677-2.113-0.571-2.405c2.288,1.042,7.238,2.083,10.696,0.333
		c0,0,0,2,1.012,4.104c0.451,0.937,1.041,2.861,1.02,7.022c0-0.188,3.534-5.714,1.38-14.693c-1.096-4.571-9.192-9.141-15.89-8.683
		c-5.657,0.387-8.802,1.333-9.927,5.542c-1.083,0.458-2.695,1.004-3.779,4.212C425.829,166.921,427.908,172.788,429.458,175.831z"/>
	<circle style="fill:#4C4151;" cx="448.075" cy="174.331" r="1.25"/>
	<circle style="fill:#4C4151;" cx="437.575" cy="174.331" r="1.25"/>
	<g>
		<g>
			<path style="fill:#883D2C;" d="M446.825,171.677c1.297-0.148,2.693-0.131,3.935,0.295c0.61,0.209,0.872-0.756,0.266-0.964
				c-1.322-0.454-2.821-0.488-4.201-0.331C446.193,170.749,446.186,171.75,446.825,171.677L446.825,171.677z"/>
		</g>
	</g>
	<g>
		<g>
			<path style="fill:#883D2C;" d="M439.413,170.677c-1.38-0.158-2.88-0.123-4.201,0.331c-0.605,0.208-0.345,1.174,0.266,0.964
				c1.243-0.427,2.637-0.443,3.935-0.295C440.051,171.75,440.046,170.749,439.413,170.677L439.413,170.677z"/>
		</g>
	</g>
	<path style="fill:#DC765D;" d="M440.762,179.893c1.313,0.188,3,0.125,3.938,0.063C443.95,181.206,442.012,181.518,440.762,179.893z
		"/>
	<path style="fill:#A72E1F;" d="M438.263,184.539c3.388,0.925,7.28,0.381,8.562,0c0,0-1.648,1.959-4.213,1.959
		C440.186,186.498,439.453,185.355,438.263,184.539z"/>
	<path style="fill:#D62F1C;" d="M440.614,186.14c0.524,0.214,1.155,0.358,1.998,0.358c0.701,0,1.326-0.152,1.875-0.365
		c-0.027-0.041-0.048-0.08-0.089-0.125c-1.053-1.143-2.976-0.435-3.617,0C440.714,186.053,440.66,186.097,440.614,186.14z"/>
</g>
<g style="display:inline;">
	<path style="fill:#F2FAFD;" d="M503.574,159.33l0.5-3.75c0,0,10.5,0.75,12,3.75l-0.75,3.25L503.574,159.33z"/>
	<path style="fill:#F2FAFD;" d="M383.199,160.58c-0.375-1.875-0.375-3.5-0.75-3.875s-10.625,0.25-11.75,3.875v2.625L383.199,160.58z
		"/>
	<path style="fill:#4C4151;" d="M431.283,197.414c-33.375,5.25-45.334-15.084-46.689-38.367c0,0-11.145-0.717-14.436,3.44
		c2.666,44.625,40.541,53.886,50.808,54.552c0,0,1.817,28.375-0.599,67.208c0,0,8.75,4,19.833,4.917c0,0,1.167-2.417,1.167-9.833
		c0-7.417,0-28.651,0-43.867l-3.521-25.425C437.846,210.039,435.553,195.102,431.283,197.414z"/>
	<path style="fill:#4C4151;" d="M453.886,197.622c33.375,5.25,44.938-16.618,48.313-40.136c0,0,11.022,0.656,14.376,4.011
		c-5.751,44.708-40.251,53.654-52.371,55.75c0,0-1.817,28.375,0.599,67.208c0,0-8.75,4-19.833,4.917c0,0-1.167-2.417-1.167-9.833
		c0-7.417,0-28.651,0-43.867l3.521-25.424C447.324,210.247,449.616,195.31,453.886,197.622z"/>
	<g>
		<path style="fill:#3D303E;" d="M442.2,236.331c-0.142,0-0.28-0.061-0.377-0.171c-1.554-1.785-13.54-19.942-13.54-20.912
			c0-0.294,0-0.726,5.559-3.913c-2.088-0.369-4.966-1.229-5.12-1.275c-0.229-0.069-0.378-0.291-0.354-0.529
			c1.176-11.674,1.332-11.987,1.384-12.09c0.072-0.145,0.21-0.246,0.369-0.271l4.75-0.75c0.026-0.004,0.052-0.006,0.078-0.006
			c0.231,0,0.437,0.16,0.488,0.392l2.896,13.125l4.441,24.561c0.007,0.04,0.01,0.081,0.007,0.122l-0.083,1.25
			c-0.013,0.202-0.147,0.376-0.339,0.44C442.307,236.323,442.253,236.331,442.2,236.331z"/>
		<path style="fill:#3D303E;" d="M434.95,196.914l2.896,13.125l4.438,24.542l-0.083,1.25c-2.25-2.583-13.417-20.083-13.417-20.583
			s6.667-4.25,6.667-4.25c-0.043,0.002-0.088,0.003-0.136,0.003c-1.714,0-6.448-1.42-6.448-1.42s1.167-11.583,1.333-11.917
			L434.95,196.914 M434.951,195.914c-0.052,0-0.104,0.004-0.157,0.012l-4.75,0.75c-0.319,0.05-0.594,0.252-0.738,0.541
			c-0.099,0.198-0.249,0.498-1.434,12.264c-0.048,0.477,0.249,0.92,0.708,1.058c0.308,0.092,2.109,0.627,3.87,1.023
			c-4.666,2.726-4.666,3.14-4.666,3.686c0,0.304,0,0.72,6.024,10.053c1.414,2.191,6.145,9.473,7.638,11.187
			c0.193,0.222,0.47,0.343,0.754,0.343c0.107,0,0.214-0.017,0.319-0.053c0.384-0.129,0.652-0.477,0.678-0.881l0.083-1.25
			c0.005-0.082,0.001-0.164-0.014-0.244l-4.438-24.542l-2.903-13.163C435.824,196.234,435.413,195.914,434.951,195.914
			L434.951,195.914z"/>
	</g>
	<g>
		<g>
			<path style="fill:#3D303E;" d="M442.969,236.539c-0.053,0-0.107-0.008-0.16-0.026c-0.192-0.064-0.326-0.238-0.339-0.44
				l-0.083-1.25c-0.003-0.041,0-0.082,0.007-0.122l4.438-24.541l2.899-13.144c0.051-0.232,0.257-0.392,0.488-0.392
				c0.026,0,0.052,0.002,0.078,0.006l4.75,0.75c0.16,0.025,0.297,0.125,0.369,0.27c0.051,0.103,0.208,0.416,1.384,12.09
				c0.024,0.238-0.125,0.46-0.354,0.529c-0.154,0.046-3.032,0.906-5.12,1.275c5.56,3.187,5.56,3.62,5.56,3.913
				c0,0.97-11.986,19.127-13.54,20.912C443.25,236.479,443.111,236.539,442.969,236.539z"/>
			<path style="fill:#3D303E;" d="M450.219,197.122l4.75,0.75c0.167,0.333,1.333,11.917,1.333,11.917s-4.733,1.42-6.448,1.42
				c-0.048,0-0.093-0.001-0.136-0.003c0,0,6.667,3.75,6.667,4.25s-11.167,18-13.417,20.583l-0.083-1.25l4.438-24.542
				L450.219,197.122 M450.218,196.122c-0.462,0-0.873,0.32-0.975,0.785l-2.896,13.125l-4.445,24.579
				c-0.015,0.081-0.019,0.163-0.014,0.244l0.083,1.25c0.027,0.404,0.295,0.752,0.678,0.881c0.105,0.035,0.213,0.052,0.319,0.052
				c0.284,0,0.561-0.121,0.754-0.343c1.493-1.714,6.224-8.996,7.638-11.187c6.024-9.333,6.024-9.749,6.024-10.053
				c0-0.546,0-0.96-4.666-3.686c1.76-0.396,3.562-0.931,3.87-1.023c0.459-0.138,0.756-0.581,0.708-1.058
				c-1.185-11.766-1.335-12.066-1.434-12.264c-0.144-0.289-0.419-0.49-0.738-0.54l-4.75-0.75
				C450.323,196.126,450.27,196.122,450.218,196.122L450.218,196.122z"/>
		</g>
	</g>
	<circle style="fill:#3D303E;" cx="445.325" cy="238.289" r="1.5"/>
	<circle style="fill:#3D303E;" cx="445.325" cy="257.497" r="1.5"/>
	<circle style="fill:#3D303E;" cx="445.325" cy="276.706" r="1.5"/>
	<path style="fill:#EAE3E1;" d="M436.086,197.143c-0.3,0.3,1.551,12.938,1.551,12.938s2.678,20.308,5.022,25.685
		c0,0,3.228-8.373,5.041-25.435l1.812-13.75l-6.937,2.813L436.086,197.143z"/>
	<path style="fill:#45B2E7;" d="M441.158,200.872c1-0.417,2.5-0.333,2.833,0c0.333,0.333,0.917,2.583,0,3.5c0,0,0.792,3.917,1,6.125
		c0.208,2.208,0.583,16.876-0.917,21.417l-1.5,4.208l-1.667-4.583c0,0-1.184-9.845-0.592-21.125
		c0.133-2.538,0.511-5.251,1.011-6.001C441.327,204.413,440.367,203.414,441.158,200.872z"/>
	<path style="fill:#F2FAFD;" d="M447.916,192.956c-0.625,0.813-5.341,6.438-5.341,6.438l3.562,5.621c0,0,3.313-8.344,3.563-9.497
		C449.273,193.81,447.916,192.956,447.916,192.956z"/>
	<path style="fill:#F2FAFD;" d="M437.22,193.123c0,0.688,4.105,5.771,5.355,6.271l-3.156,5.406c0,0-4.074-7.594-4.074-9.656
		C435.345,195.143,436.179,193.831,437.22,193.123z"/>
	<path style="fill:#695C70;" d="M449.229,194.182c0,3.024-3.488,28.691-6.654,41.941c0,0,13.078-19.304,13.078-20.971
		c-1.553-1.553-5.87-3.155-7.578-4.863c0,0,7.507-0.457,7.896-2.083c0,0-1.063-11.583-1.73-11.583S450.543,195.407,449.229,194.182z
		"/>
	<path style="fill:#695C70;" d="M435.921,194.182c0,3.024,3.488,28.691,6.654,41.941c0,0-13.078-19.304-13.078-20.971
		c1.553-1.553,5.87-3.155,7.578-4.863c0,0-7.507-0.457-7.897-2.083c0,0,1.063-11.583,1.73-11.583
		C431.575,196.622,434.607,195.407,435.921,194.182z"/>
</g>
<path style="display:inline;fill:#32EFF9;" d="M536.827,529.208h-7.25c5.065,0.001,9.412,3.188,11.164,7.651h7.25
	C546.238,532.395,541.891,529.209,536.827,529.208z"/>
<path style="display:inline;fill:#32EFF9;" d="M573.198,529.208h-27.251c5.065,0.001,9.412,3.188,11.164,7.651h27.251
	C582.609,532.395,578.263,529.209,573.198,529.208z"/>
<path style="display:inline;fill:#FC5C54;" d="M442.766,695.858h7.25c-1.753-4.464-6.101-7.651-11.167-7.651h-7.25
	C436.665,688.207,441.013,691.394,442.766,695.858z"/>
<path style="display:inline;fill:#A1BA38;" d="M484.857,623.285c-1.752,5.279-6.101,9.045-11.167,9.045h67.25
	c5.066,0,9.415-3.765,11.167-9.045H484.857z"/>
<path style="display:inline;opacity:0.5;fill:#42525B;" d="M592.32,841.96v23.25c0,6.6-5.4,12-12,12h-87.01c6.6,0,9.07-5.4,5.5-12
	l-12.6-23.25c-3.58-6.6-11.9-12-18.5-12h112.61C586.92,829.96,592.32,835.36,592.32,841.96z"/>
</svg>
