<?xml version="1.0" encoding="utf-8"?>
<!-- Generator: Adobe Illustrator 27.5.0, SVG Export Plug-In . SVG Version: 6.00 Build 0)  -->
<svg version="1.1" xmlns="http://www.w3.org/2000/svg" xmlns:xlink="http://www.w3.org/1999/xlink" x="0px" y="0px"
	 viewBox="0 0 500 500" style="enable-background:new 0 0 500 500;" xml:space="preserve">
<g id="BACKGROUND">
	<rect style="fill:#F3D6D4;" width="500" height="500"/>
</g>
<g id="OBJECTS">
	<g>
		<path style="fill:#4D71F6;" d="M383.37,212.6h-2.953c-1.424,0-2.579-1.155-2.579-2.579v-15.239h8.111v15.239
			C385.948,211.446,384.794,212.6,383.37,212.6z"/>
		<path style="fill:#4D71F6;" d="M382.486,197.191h-0.795c-4.868,0-8.814-3.946-8.814-8.814v-2.418h18.035v2.807
			C390.91,193.419,387.138,197.191,382.486,197.191z"/>
		<path style="opacity:0.3;fill:#222D77;" d="M372.876,188.377c0,1.449,0.352,2.816,0.972,4.022
			c2.906,1.313,8.974,3.046,16.436-0.442c0.403-0.984,0.627-2.061,0.627-3.191v-2.807h-18.035V188.377z"/>
		<path style="fill:#4D71F6;" d="M355.815,134.956h52.255c1.858,0,3.366,1.492,3.381,3.35c0.093,12.063-1.755,52.572-30.793,52.572
			c-28.443,0-28.74-40.769-28.219-52.687C352.517,136.38,354.003,134.956,355.815,134.956z"/>
		<path style="fill:#4D71F6;" d="M402.8,172.776c0,0,15.364-0.6,19.686-8.643c4.321-8.042,2.521-15.004-2.281-16.805
			c-4.801-1.8-7.567,1.646-6.943,3.796c0.307,1.057,1.285,1.333,2.201,1.34c0.665,0.005,0.965,0.856,0.451,1.277
			c-1.246,1.021-3.22,1.757-5.426-0.745c-3.145-3.569,3.6-12.235,11.645-8.56c8.045,3.676,8.092,12.796,4.035,20.803
			c-4.057,8.007-14.947,12.812-28.506,12.278C397.661,177.519,398.438,173.159,402.8,172.776z"/>
		<path style="fill:#4D71F6;" d="M360.917,172.776c0,0-15.364-0.6-19.685-8.643c-4.321-8.042-2.521-15.004,2.281-16.805
			c4.801-1.8,7.568,1.646,6.943,3.796c-0.307,1.057-1.285,1.333-2.201,1.34c-0.665,0.005-0.965,0.856-0.45,1.277
			c1.246,1.021,3.22,1.757,5.426-0.745c3.146-3.569-3.6-12.235-11.645-8.56c-8.045,3.676-8.092,12.796-4.035,20.803
			c4.057,8.007,14.947,12.812,28.506,12.278C366.056,177.519,365.279,173.159,360.917,172.776z"/>
		<path style="opacity:0.3;fill:#222D77;" d="M400.758,134.955c-0.977,11.707-6.811,39.351-39.771,45.501
			c4.235,6.162,10.482,10.421,19.67,10.421c29.158,0,30.902-40.842,30.792-52.719c-0.016-1.775-1.454-3.203-3.228-3.203H400.758z"/>
		<path style="opacity:0.5;fill:#FFFFFF;" d="M362.615,149.364c0,4.484-0.94,8.12-2.099,8.12c-1.159,0-2.099-3.635-2.099-8.12
			s0.94-8.119,2.099-8.119C361.675,141.245,362.615,144.88,362.615,149.364z"/>
		<path style="fill:#4D71F6;" d="M392.208,218.527H371.26c-1.182,0-2.14-0.958-2.14-2.14v-5.789c0-1.182,0.958-2.14,2.14-2.14
			h20.948c1.182,0,2.14,0.958,2.14,2.14v5.789C394.348,217.569,393.39,218.527,392.208,218.527z"/>
	</g>
	<g>
		<path style="fill:#E799D5;" d="M437.61,231.795H324.404c-1.699,0-3.076-1.377-3.076-3.076v-8.201c0-1.699,1.377-3.076,3.076-3.076
			H437.61c1.699,0,3.076,1.377,3.076,3.076v8.201C440.686,230.417,439.309,231.795,437.61,231.795z"/>
		<path style="fill:#E799D5;" d="M381.223,279.194H268.017c-1.699,0-3.076-1.377-3.076-3.076v-8.201
			c0-1.699,1.377-3.076,3.076-3.076h113.206c1.699,0,3.076,1.377,3.076,3.076v8.201
			C384.299,277.817,382.922,279.194,381.223,279.194z"/>
		<path style="fill:#E799D5;" d="M309.401,329.452H196.195c-1.699,0-3.076-1.377-3.076-3.076v-8.201
			c0-1.699,1.377-3.076,3.076-3.076h113.206c1.699,0,3.076,1.377,3.076,3.076v8.201C312.477,328.074,311.1,329.452,309.401,329.452z
			"/>
		<path style="fill:#E799D5;" d="M243.757,376.377H130.552c-1.699,0-3.076-1.377-3.076-3.076V365.1c0-1.699,1.377-3.076,3.076-3.076
			h113.206c1.699,0,3.076,1.377,3.076,3.076v8.201C246.834,375,245.456,376.377,243.757,376.377z"/>
		<path style="fill:#E799D5;" d="M175.596,423.594H62.39c-1.699,0-3.076-1.377-3.076-3.076v-8.201c0-1.699,1.377-3.076,3.076-3.076
			h113.206c1.699,0,3.076,1.377,3.076,3.076v8.201C178.672,422.216,177.295,423.594,175.596,423.594z"/>
		<path style="fill:#CF7FC0;" d="M362.681,231.795h-39.154c-1.018,0-1.843-0.825-1.843-1.843v-10.667
			c0-1.018,0.825-1.843,1.843-1.843h39.154c1.018,0,1.843,0.825,1.843,1.843v10.667
			C364.524,230.969,363.699,231.795,362.681,231.795z"/>
		<path style="fill:#CF7FC0;" d="M305.681,279.194h-39.154c-1.018,0-1.843-0.825-1.843-1.843v-10.667
			c0-1.018,0.825-1.843,1.843-1.843h39.154c1.018,0,1.843,0.825,1.843,1.843v10.667
			C307.524,278.369,306.699,279.194,305.681,279.194z"/>
		<path style="fill:#CF7FC0;" d="M233.795,329.452h-39.154c-1.018,0-1.843-0.825-1.843-1.843v-10.667
			c0-1.018,0.825-1.843,1.843-1.843h39.154c1.018,0,1.843,0.825,1.843,1.843v10.667
			C235.638,328.627,234.813,329.452,233.795,329.452z"/>
		<path style="fill:#CF7FC0;" d="M168.087,376.377h-39.154c-1.018,0-1.843-0.825-1.843-1.843v-10.667
			c0-1.018,0.825-1.843,1.843-1.843h39.154c1.018,0,1.843,0.825,1.843,1.843v10.667C169.93,375.552,169.105,376.377,168.087,376.377
			z"/>
		<path style="fill:#CF7FC0;" d="M100.311,423.594H61.157c-1.018,0-1.843-0.825-1.843-1.843v-10.667
			c0-1.018,0.825-1.843,1.843-1.843h39.154c1.018,0,1.843,0.825,1.843,1.843v10.667
			C102.154,422.768,101.329,423.594,100.311,423.594z"/>
	</g>
	<g>
		<g>
			<path style="fill:#F0C7C6;" d="M310.67,140.507c1.001,1.713,3.512,1.602,4.359-0.193l8.571-18.181l9.036-19.166
				c0.738-1.566-0.325-3.385-2.051-3.51l-21.133-1.536l-20.047-1.457c-1.979-0.144-3.308,1.99-2.307,3.703l4.731,8.096
				c0.687,1.176,0.291,2.685-0.885,3.372l-45.768,26.745c-1.176,0.687-1.572,2.197-0.885,3.372l9.136,15.633
				c0.687,1.175,2.197,1.572,3.372,0.885l45.768-26.745c1.176-0.687,2.685-0.291,3.372,0.885L310.67,140.507z"/>
			<path style="fill:#F0C7C6;" d="M258.857,245.11c0.75,1.283,2.632,1.2,3.266-0.144l6.422-13.622l6.77-14.36
				c0.553-1.173-0.243-2.536-1.537-2.63l-15.834-1.151l-15.021-1.092c-1.483-0.108-2.479,1.491-1.729,2.774l3.545,6.066
				c0.515,0.881,0.218,2.012-0.663,2.527l-34.292,20.039c-0.881,0.515-1.178,1.646-0.663,2.527l6.845,11.714
				c0.515,0.881,1.646,1.177,2.527,0.663l34.292-20.039c0.881-0.515,2.012-0.218,2.527,0.663L258.857,245.11z"/>
			<path style="fill:#F0C7C6;" d="M130.133,308.307c1.001,1.713,3.512,1.602,4.358-0.193l8.571-18.181l9.036-19.166
				c0.738-1.566-0.325-3.385-2.051-3.51l-21.133-1.536l-20.047-1.457c-1.979-0.144-3.308,1.99-2.307,3.703l4.731,8.096
				c0.687,1.176,0.291,2.686-0.885,3.372l-45.768,26.745c-1.176,0.687-1.572,2.197-0.885,3.372l9.136,15.633
				c0.687,1.176,2.197,1.572,3.372,0.885l45.768-26.745c1.175-0.687,2.685-0.291,3.372,0.885L130.133,308.307z"/>
		</g>
		<g>
			<path style="fill:#F0C7C6;" d="M408.456,350.168h-61.296c-1.252,0-2.267-1.015-2.267-2.267v-10.356
				c0-1.252,1.015-2.267,2.267-2.267h61.296c1.252,0,2.267,1.015,2.267,2.267V347.9
				C410.723,349.153,409.708,350.168,408.456,350.168z"/>
			<path style="fill:#F0C7C6;" d="M318.062,427.427h-61.296c-1.252,0-2.267-1.015-2.267-2.267v-10.356
				c0-1.252,1.015-2.267,2.267-2.267h61.296c1.252,0,2.267,1.015,2.267,2.267v10.356
				C320.329,426.412,319.314,427.427,318.062,427.427z"/>
			<path style="fill:none;stroke:#F0C7C6;stroke-miterlimit:10;" d="M437.221,385.052h-61.296c-1.252,0-2.267-1.015-2.267-2.267
				v-10.356c0-1.252,1.015-2.267,2.267-2.267h61.296c1.252,0,2.267,1.015,2.267,2.267v10.356
				C439.488,384.037,438.473,385.052,437.221,385.052z"/>
		</g>
		<g>
			<path style="fill:#FFFFFF;" d="M95.225,107.461c0,1.749-1.418,3.167-3.167,3.167c-1.749,0-3.167-1.418-3.167-3.167
				c0-1.749,1.418-3.167,3.167-3.167C93.807,104.294,95.225,105.712,95.225,107.461z"/>
			<path style="fill:#FFFFFF;" d="M335.748,109.304c0,2.336-1.893,4.229-4.229,4.229c-2.336,0-4.229-1.894-4.229-4.229
				s1.894-4.229,4.229-4.229C333.855,105.074,335.748,106.968,335.748,109.304z"/>
			<circle style="fill:#FFFFFF;" cx="429.73" cy="303.413" r="3.563"/>
			<path style="fill:#FFFFFF;" d="M308.991,390.503c0,1.968-1.595,3.563-3.563,3.563c-1.968,0-3.563-1.595-3.563-3.563
				c0-1.968,1.595-3.563,3.563-3.563C307.396,386.94,308.991,388.536,308.991,390.503z"/>
			<path style="fill:#FFFFFF;" d="M83.349,378.627c0,3.279-2.659,5.938-5.938,5.938c-3.279,0-5.938-2.659-5.938-5.938
				c0-3.28,2.659-5.938,5.938-5.938C80.69,372.689,83.349,375.348,83.349,378.627z"/>
		</g>
	</g>
	<g>
		<path style="fill:#2E0B79;" d="M198.407,174.087c1.75,1.273,6.712-2.171,10.61-7.528c3.897-5.357,5.671-10.943,3.921-12.216
			c-1.75-1.273-6.361,2.249-10.258,7.606S196.658,172.814,198.407,174.087z"/>
		<path style="fill:#2E0B79;" d="M124.891,170.747c-1.874,1.082-6.421-2.82-9.703-8.505c-3.282-5.684-4.433-11.383-2.559-12.465
			c1.874-1.082,6.064,2.862,9.346,8.547C125.257,164.009,126.765,169.665,124.891,170.747z"/>
		<path style="fill:#DF6942;" d="M200.771,146.598l20.315,18.653c4.442,4.078,4.385,11.3-0.391,14.981
			c-2.863,2.207-5.892,2.016-11.762-1.924l-21.948-17.244L200.771,146.598z"/>
		<path style="fill:#DF6942;" d="M196.113,287.601l-0.084,12.128l20.387,1.496l-1.133-18.407
			C215.283,282.818,201.951,281.314,196.113,287.601z"/>
		<path style="fill:#8C78FA;" d="M196.109,298.282c-0.71,0.003-1.278,0.518-1.292,1.16c-0.149,6.756-1.62,15.891,2.428,15.873
			c3.521-0.016,38.886-0.172,40.447-0.179c1.561-0.007,1.113-4.64-3.184-5.679c-4.031-0.974-14.007-7.668-16.094-10.719
			c-0.237-0.347-0.646-0.552-1.098-0.549L196.109,298.282z"/>
		<path style="fill:#DF6942;" d="M118.563,322.859l-4.899,11.095l18.112,9.477l6.278-17.34
			C138.054,326.091,126.418,319.411,118.563,322.859z"/>
		<path style="fill:#8C78FA;" d="M114.156,331.311c-0.619-0.349-1.367-0.183-1.697,0.368c-3.473,5.797-9.272,13.007-5.746,14.995
			c2.324,1.31,18.104,10.113,27.404,15.355c0,0,10.349,0.262,11.26-0.121c1.439-0.606-2.195-3.819-6.223-6.944
			c0,0-5.539-8.534-5.842-12.219c-0.035-0.419-0.289-0.799-0.683-1.021L114.156,331.311z"/>
		<path style="fill:#FFFFFF;" d="M178.149,203.376c0.447,0.38-0.147,7.089-0.105,7.674c0.522,7.353-7.882,52.009-8.6,57.678
			c-0.691,5.455-23.809,56.374-28.874,67.483c-0.526,1.154-1.921,1.614-3.033,1.003l-24.347-13.377
			c-0.979-0.538-1.394-1.729-0.96-2.758l25.628-60.871c0.075-0.178,0.126-0.366,0.152-0.557l3.482-56.134
			c0.436-11.052,6.951-18.97,8.266-17.853L178.149,203.376z"/>
		
			<polyline style="fill:none;stroke:#4A15A8;stroke-width:0.5569;stroke-linecap:round;stroke-linejoin:round;stroke-miterlimit:10;" points="
			125.264,307.378 144.52,263.753 146.612,232.996 		"/>
		
			<line style="fill:none;stroke:#4A15A8;stroke-width:0.5569;stroke-linecap:round;stroke-linejoin:round;stroke-miterlimit:10;" x1="138.232" y1="330.075" x2="117.709" y2="319.501"/>
		<path style="fill:#FFFFFF;" d="M140.229,183.036c-0.879,0.22-10.228,11.103-8.69,24.982c0.526,4.749,3.93,14.507,11.519,18.141
			c15.089,7.226,39.384,8.366,49.568,7.104c2.726-0.338,2.5,3.469,2.298,5.298l-5.715,50.133c0.237,1.358,1.321,1.663,2.943,1.656
			l27.533,1.773c0.967-0.378,1.202-1.379,1.355-2.405c2.016-13.562,9.899-81.606,2.58-88.382c-7.444-6.892-55.79-6.559-61.684-9.904
			c-0.488-0.277,1.019-3.677,0.475-3.541L140.229,183.036z"/>
		
			<path style="fill:none;stroke:#4A15A8;stroke-width:0.5569;stroke-linecap:round;stroke-linejoin:round;stroke-miterlimit:10;" d="
			M176.765,226.018c7.604,1.09,15.185,1.001,19.124,0.844c1.791-0.072,3.325,1.25,3.515,3.033
			c1.256,11.79-4.052,48.548-4.052,48.548"/>
		
			<line style="fill:none;stroke:#4A15A8;stroke-width:0.5569;stroke-linecap:round;stroke-linejoin:round;stroke-miterlimit:10;" x1="217.071" y1="287.916" x2="194.922" y2="286.652"/>
		
			<path style="fill:none;stroke:#4A15A8;stroke-width:0.5569;stroke-linecap:round;stroke-linejoin:round;stroke-miterlimit:10;" d="
			M140.357,224.269c2.804,3.634,7.97,6.25,13.789,7.414c6.46,1.292,15.908,1.711,21.161,1.939"/>
		<g id="hand_6_">
			<path style="fill:#DF6942;" d="M257.113,158.23c2.222-2.621,7.805-6.398,8.97-6.987c1.165-0.589,6.108-2.223,7.378-1.852
				c1.27,0.371-0.058,2.768-3.215,3.957l-0.472,0.611c0,0,3.73-0.835,6.382-1.955c2.651-1.12,4.296-1.131,4.536-0.109
				c0.24,1.023-5.627,4.389-6.837,4.671l0.275,0.608c0,0,7.991-2.104,9.101-2.042c1.329,0.074,0.929,2.004-0.834,2.785
				c0,0,1.737,0.109,1.683,1.16c-0.054,1.051-7.865,4.342-7.865,4.342s6.642-1.315,6.835,0.387
				c0.194,1.702-15.656,5.546-21.999,6.136c0,0-27.124,9.583-34.046,11.242c-9.04,2.167-18.72-0.229-18.74-6.201
				C208.235,166.378,224.787,162.249,257.113,158.23z"/>
			
				<path style="fill:none;stroke:#814939;stroke-width:0.659;stroke-linecap:round;stroke-linejoin:round;stroke-miterlimit:10;" d="
				M266.084,151.243c1.165-0.589,6.108-2.223,7.378-1.852c1.27,0.371-0.058,2.768-3.215,3.957l-0.472,0.611
				c0,0,3.73-0.835,6.382-1.955c2.651-1.12,4.296-1.131,4.536-0.109c0.24,1.023-5.627,4.389-6.837,4.671l0.275,0.608
				c0,0,7.991-2.104,9.101-2.042c1.329,0.074,0.929,2.004-0.834,2.785c0,0,1.737,0.109,1.683,1.16
				c-0.054,1.051-7.865,4.342-7.865,4.342s6.642-1.315,6.835,0.387c0.097,0.851-3.094,1.953-7.101,2.915"/>
			<g>
				
					<path style="fill:none;stroke:#814939;stroke-width:0.659;stroke-linecap:round;stroke-linejoin:round;stroke-miterlimit:10;" d="
					M270.247,153.348c-1.688,3.364-4.898,7.278-5.483,7.375"/>
				
					<path style="fill:none;stroke:#814939;stroke-width:0.659;stroke-linecap:round;stroke-linejoin:round;stroke-miterlimit:10;" d="
					M273.609,155.193c0.524,1.286,0.167,7.507,0.167,7.507"/>
				
					<line style="fill:none;stroke:#814939;stroke-width:0.659;stroke-linecap:round;stroke-linejoin:round;stroke-miterlimit:10;" x1="276.215" y1="163.419" x2="273.818" y2="164.083"/>
				
					<path style="fill:none;stroke:#814939;stroke-width:0.659;stroke-linecap:round;stroke-linejoin:round;stroke-miterlimit:10;" d="
					M273.853,160.91c0.004-0.114,8.544-2.993,8.544-2.993"/>
			</g>
		</g>
		<path style="fill:#4A15A8;" d="M191.762,150.471l-5.447,28.899l-2.55,14.788c-0.268,1.132-1.345,1.548-2.362,2.112
			c-11.275,6.253-14.395,0.056-37.51,4.665c-14.557,2.903-14.759,0.422-12.702-11.917c2.689-16.133,1.826-46.349,1.967-47.083
			c2.826-14.637,10.255-13.952,20.718-15.689c11.54-1.915,24.572-1.527,24.572-1.527s4.046,0.811,10.9,4.529
			c3.115,1.687,4.91,2.432,5.448,7.495C195.451,142.818,194.163,133.173,191.762,150.471z"/>
		<path style="fill:#4A15A8;" d="M192.64,131.311l20.565,23.316c0.269,0.302,0,0,0,0c-2.694,1.477-12.476,8.449-14.406,19.737
			L176,156.087c0,0,0,0,0,0l15.232-24.856C191.453,130.87,192.358,130.995,192.64,131.311z"/>
		<path style="fill:#DF6942;" d="M126.49,143.327l-21.59,14.847c-4.72,3.246-5.627,10.047-1.624,14.145
			c2.399,2.456-3.562,8.999,7.984,2.223l26.275-15.775L126.49,143.327z"/>
		<path style="fill:#4A15A8;" d="M139.383,129.963l-26.817,19.83c-0.309,0.261-0.085,0.235,0.239,0.477
			c2.452,1.833,11.713,9.112,12.086,20.477l23.921-14.195c0.273-0.162,0.383-0.502,0.257-0.794l-8.281-25.678
			C140.619,129.693,139.706,129.69,139.383,129.963z"/>
		<g id="hand_5_">
			<path style="fill:#DF6942;" d="M110.015,156.588c-8.517,0.88-15.172,11.62-21.567,19.562
				c-6.395,7.942-13.149,18.019-13.149,18.019s-5.47,8.24-7.167,11.391c-1.697,3.151-1.267,4.169-0.707,4.37
				c0.56,0.201,3.352-3.243,3.866-3.906c0,0-1.288,4.551-1.455,6.84c-0.166,2.289,0.922,3.187,2.206,1.269
				c0,0-0.454,2.856,1.026,2.979c1.48,0.123,5.071-10.01,5.071-10.01s-2.731,8.382-0.796,9.435
				c1.935,1.052,5.843-11.115,5.843-11.115s1.761,5.825,3.247,5.499c1.486-0.326,1.214-3.023,1.242-5.324
				c0.027-2.301-0.658-7.553,0.153-8.608c0.811-1.055,24.691-19.896,28.206-28.205C119.299,161.069,115.184,156.054,110.015,156.588
				z"/>
			<g>
				
					<path style="fill:none;stroke:#814939;stroke-width:0.6311;stroke-linecap:round;stroke-linejoin:round;stroke-miterlimit:10;" d="
					M80.562,186.613c-3.07,4.284-5.263,7.556-5.263,7.556s-5.47,8.24-7.167,11.391c-1.697,3.151-1.267,4.169-0.707,4.37
					c0.56,0.201,3.352-3.243,3.866-3.906c0,0-1.288,4.551-1.455,6.84c-0.166,2.289,0.922,3.187,2.206,1.269
					c0,0-0.454,2.856,1.026,2.979c1.48,0.123,5.071-10.01,5.071-10.01s-2.731,8.382-0.796,9.435
					c1.935,1.052,5.843-11.115,5.843-11.115s1.761,5.825,3.247,5.499c1.486-0.326,1.214-3.023,1.242-5.324"/>
				
					<path style="fill:none;stroke:#814939;stroke-width:0.6311;stroke-linecap:round;stroke-linejoin:round;stroke-miterlimit:10;" d="
					M74.429,206.2c-0.563,1.606-2.386,7.934-2.386,7.934"/>
				
					<line style="fill:none;stroke:#814939;stroke-width:0.6311;stroke-linecap:round;stroke-linejoin:round;stroke-miterlimit:10;" x1="72.004" y1="204.197" x2="71.291" y2="206.024"/>
			</g>
		</g>
		<path style="fill:#322D52;" d="M182.307,106.48c0,0,4.858-3.167,4.674-11.209c-0.076-3.34-1.731-5.628-2.501-7.234
			c-1.084-2.261-0.64-3.442-2.931-5.696c-2.089-2.056-5.624-2.252-10.108-2.905c-3.924-0.572-10.125-1.229-13.135,1.211
			c-3.502,2.839-5.685,6.627-7.929,9.806c-1.889,2.674-2.615,3.602-2.845,8.111c-0.236,4.642,2.16,7.488,4.243,10.587
			c2.345,3.488,3.469,7.342,5.908,9.046C162.288,121.412,182.307,106.48,182.307,106.48z"/>
		<path style="fill:#DF6942;" d="M176.502,129.286c0,0-1.53,7.167-6.287,7.712c-7.765,0.892-14.072-10.982-14.072-10.982
			c1.251-9.955,0.796-17.054,0.796-17.054c-1.017-6.367,12.363-13.898,16.621,4.854l0.473,2.496l1.661,8.737L176.502,129.286z"/>
		<path style="fill:#80493C;" d="M175.743,125.349c-5.014,0.417-11.201-2.428-14.372-8.75l12.661-0.286L175.743,125.349z"/>
		<g>
			<path style="fill:#DF6942;" d="M173.439,123.565c-6.741,0.092-13.665-5.832-16.566-15.196
				c-3.237-10.446,0.603-14.558,2.165-18.201c1.562-3.642,2.913-5.702,13.985-5.684c9.656,0.015,10.649,2.957,11.189,19.834
				c0.046,1.449,0.204,8.075-0.805,11.067C181.619,120.686,178.432,123.497,173.439,123.565z"/>
		</g>
		<path style="fill:#DF6942;" d="M159.452,105.928c0.197-3.657-4.751-7.16-6.983-2.594c-1.933,3.953,2.104,6.067,5.706,6.124
			L159.452,105.928z"/>
		<path style="fill:#322D52;" d="M166.684,89.207c0,0-2.995,15.513-11.239,13.066c-3.762-1.117-3.737-8.381-3.737-8.381
			L166.684,89.207z"/>
		<path style="fill:#322D52;" d="M184.956,92.472c0,0-7.52,7.026-24.245,0.549l-6.794,4.267l1.347-9.561l12.658-4.309l7.676,0.404
			l4.982,1.077l0.639,0.511C183.387,87.146,182.618,89.347,184.956,92.472L184.956,92.472z"/>
		<path d="M170.761,102.908c0.382-0.129,0.793,0.222,0.919,0.783c0.126,0.561-0.082,1.121-0.464,1.25
			c-0.382,0.129-0.794-0.222-0.919-0.783C170.171,103.596,170.379,103.037,170.761,102.908z"/>
		<g>
			<path style="fill:#2C2E38;" d="M172.354,101.584c-0.096,0.334-1.164,0.167-2.344,0.205c-1.212,0.149-2.249,0.427-2.376,0.131
				c-0.128-0.111,0.128-0.445,0.526-0.722c0.398-0.278,1.052-0.519,1.77-0.612c0.766-0.074,1.451,0.129,1.818,0.333
				C172.194,101.214,172.402,101.418,172.354,101.584z"/>
		</g>
		<path style="fill:none;stroke:#000000;stroke-width:0.608;stroke-linecap:round;stroke-miterlimit:10;" d="M176.089,105.198
			c0,0,2.518,3.777,2.351,4.398c-0.042,0.331-0.789,0.578-1.369,0.701"/>
		<path d="M181.09,102.518c-0.382-0.129-0.793,0.222-0.919,0.783c-0.126,0.561,0.082,1.121,0.464,1.25
			c0.382,0.129,0.794-0.222,0.919-0.783C181.679,103.206,181.472,102.647,181.09,102.518z"/>
		<g>
			<path style="fill:#2C2E38;" d="M177.538,101.197c0.112,0.326,1.171,0.089,2.351,0.047c1.217,0.067,2.266,0.275,2.379-0.029
				c0.122-0.119-0.149-0.435-0.561-0.686c-0.412-0.251-1.077-0.447-1.798-0.492c-0.768-0.023-1.443,0.227-1.799,0.454
				C177.679,100.817,177.482,101.034,177.538,101.197z"/>
		</g>
		<path style="fill:none;stroke:#000000;stroke-width:0.608;stroke-linecap:round;stroke-miterlimit:10;" d="M168.832,102.429"/>
		<path style="opacity:0.51;fill:none;stroke:#8C2312;stroke-width:0.608;stroke-linecap:round;stroke-miterlimit:10;" d="
			M173.323,113.955c0,0,1.277,2.199,4.452,0.981"/>
		
			<path style="fill:none;stroke:#26252F;stroke-width:0.4099;stroke-linecap:round;stroke-linejoin:round;stroke-miterlimit:10;" d="
			M224.714,72.777L224.714,72.777c-10.345,0-18.731,8.386-18.731,18.731v0.024c0,4.747,1.78,9.069,4.691,12.37l-4.725,5.519
			c-0.725,0.846,0.058,2.126,1.142,1.865l10.353-2.487c2.236,0.943,4.692,1.465,7.271,1.465l0,0
			c10.345,0,18.731-8.386,18.731-18.731v-0.024C243.445,81.164,235.059,72.777,224.714,72.777z"/>
		<path style="fill:none;stroke:#8C78FA;stroke-width:3;stroke-linecap:round;stroke-linejoin:round;stroke-miterlimit:10;" d="
			M215.451,93.009l5.264,6.06c0.368,0.424,1.028,0.416,1.386-0.017l12.222-14.785"/>
	</g>
</g>
</svg>
